<svg width="420" height="79" viewBox="0 0 420 79" fill="none" xmlns="http://www.w3.org/2000/svg">
<rect width="420" height="79" rx="7" fill="#141414"/>
<g clip-path="url(#clip0_56_2668)">
<rect x="20" y="19" width="40" height="40" rx="20" fill="white"/>
<g clip-path="url(#clip1_56_2668)">
<mask id="mask0_56_2668" style="mask-type:luminance" maskUnits="userSpaceOnUse" x="20" y="19" width="40" height="40">
<path d="M60 19H20V59H60V19Z" fill="white"/>
</mask>
<g mask="url(#mask0_56_2668)">
<path d="M60 19H20V59H60V19Z" fill="white"/>
<path d="M60 19H20V59H60V19Z" fill="#2C2C2C"/>
<path d="M30.78 33.32C38.6777 33.32 45.08 26.9176 45.08 19.02C45.08 11.1223 38.6777 4.71997 30.78 4.71997C22.8823 4.71997 16.48 11.1223 16.48 19.02C16.48 26.9176 22.8823 33.32 30.78 33.32Z" fill="url(#paint0_linear_56_2668)"/>
<path d="M50.14 73.32C58.0376 73.32 64.44 66.9176 64.44 59.02C64.44 51.1223 58.0376 44.72 50.14 44.72C42.2423 44.72 35.84 51.1223 35.84 59.02C35.84 66.9176 42.2423 73.32 50.14 73.32Z" fill="url(#paint1_linear_56_2668)"/>
<g opacity="0.7">
<path opacity="0.6" d="M28.6261 48.2077C29.8474 47.4525 30.2253 45.8503 29.4701 44.629C28.7149 43.4076 27.1126 43.0298 25.8913 43.785C24.67 44.5401 24.2921 46.1424 25.0473 47.3637C25.8025 48.5851 27.4048 48.9629 28.6261 48.2077Z" fill="url(#paint2_linear_56_2668)"/>
<path opacity="0.6" d="M37.1315 42.9485C38.3528 42.1933 38.7307 40.591 37.9755 39.3697C37.2203 38.1484 35.618 37.7705 34.3967 38.5257C33.1754 39.2809 32.7975 40.8831 33.5527 42.1045C34.3079 43.3258 35.9102 43.7036 37.1315 42.9485Z" fill="url(#paint3_linear_56_2668)"/>
<path opacity="0.6" d="M45.6368 37.6892C46.8582 36.934 47.236 35.3317 46.4808 34.1104C45.7257 32.8891 44.1234 32.5112 42.9021 33.2664C41.6807 34.0216 41.3029 35.6239 42.0581 36.8452C42.8132 38.0665 44.4155 38.4444 45.6368 37.6892Z" fill="url(#paint4_linear_56_2668)"/>
<path opacity="0.6" d="M54.1422 32.4301C55.3635 31.675 55.7413 30.0727 54.9862 28.8514C54.231 27.6301 52.6287 27.2522 51.4074 28.0074C50.1861 28.7626 49.8082 30.3648 50.5634 31.5861C51.3186 32.8075 52.9208 33.1853 54.1422 32.4301Z" fill="url(#paint5_linear_56_2668)"/>
</g>
</g>
</g>
<g clip-path="url(#clip2_56_2668)">
<path d="M34.5052 45.9201V31.0837H39.7935C40.9429 31.0837 41.8968 31.2817 42.655 31.6778C43.4181 32.0738 43.988 32.6219 44.3647 33.3222C44.7414 34.0177 44.9297 34.8218 44.9297 35.7346C44.9297 36.6425 44.739 37.4418 44.3575 38.1325C43.9807 38.8183 43.4109 39.3519 42.6478 39.7335C41.8895 40.115 40.9357 40.3058 39.7863 40.3058H35.7802V38.3788H39.5834C40.3079 38.3788 40.8971 38.2749 41.3511 38.0673C41.8099 37.8596 42.1455 37.5577 42.358 37.1617C42.5705 36.7657 42.6767 36.29 42.6767 35.7346C42.6767 35.1744 42.5681 34.689 42.3508 34.2785C42.1383 33.868 41.8026 33.5541 41.3438 33.3367C40.8898 33.1146 40.2934 33.0035 39.5545 33.0035H36.7437V45.9201H34.5052ZM41.8292 39.2263L45.4948 45.9201H42.9448L39.3516 39.2263H41.8292Z" fill="white"/>
</g>
</g>
<g clip-path="url(#clip3_56_2668)">
<path d="M82.248 29.4365C82.248 29.2314 82.2161 29.0492 82.1523 28.8896C82.0931 28.7301 81.986 28.5843 81.8311 28.4521C81.6761 28.32 81.4574 28.1924 81.1748 28.0693C80.8968 27.9417 80.5413 27.8118 80.1084 27.6797C79.6344 27.5339 79.1969 27.3721 78.7959 27.1943C78.3994 27.012 78.0531 26.8024 77.7568 26.5654C77.4606 26.3239 77.2305 26.0482 77.0664 25.7383C76.9023 25.4238 76.8203 25.0615 76.8203 24.6514C76.8203 24.2458 76.9046 23.8766 77.0732 23.5439C77.2464 23.2113 77.4902 22.9242 77.8047 22.6826C78.1237 22.4365 78.4997 22.2474 78.9326 22.1152C79.3656 21.9785 79.8441 21.9102 80.3682 21.9102C81.1064 21.9102 81.7422 22.0469 82.2754 22.3203C82.8132 22.5938 83.2256 22.9606 83.5127 23.4209C83.8044 23.8812 83.9502 24.3893 83.9502 24.9453H82.248C82.248 24.6172 82.1774 24.3278 82.0361 24.0771C81.8994 23.8219 81.6898 23.6214 81.4072 23.4756C81.1292 23.3298 80.776 23.2568 80.3477 23.2568C79.9421 23.2568 79.6048 23.3184 79.3359 23.4414C79.0671 23.5645 78.8665 23.7308 78.7344 23.9404C78.6022 24.1501 78.5361 24.387 78.5361 24.6514C78.5361 24.8382 78.5794 25.0091 78.666 25.1641C78.7526 25.3145 78.8848 25.4557 79.0625 25.5879C79.2402 25.7155 79.4635 25.8363 79.7324 25.9502C80.0013 26.0641 80.318 26.1735 80.6826 26.2783C81.234 26.4424 81.7148 26.6247 82.125 26.8252C82.5352 27.0212 82.877 27.2445 83.1504 27.4951C83.4238 27.7458 83.6289 28.0306 83.7656 28.3496C83.9023 28.6641 83.9707 29.0218 83.9707 29.4229C83.9707 29.8421 83.8864 30.2204 83.7178 30.5576C83.5492 30.8903 83.3076 31.1751 82.9932 31.4121C82.6833 31.6445 82.3096 31.8245 81.8721 31.9521C81.4391 32.0752 80.9561 32.1367 80.4229 32.1367C79.9443 32.1367 79.4727 32.0729 79.0078 31.9453C78.5475 31.8177 78.1283 31.624 77.75 31.3643C77.3717 31.0999 77.071 30.7718 76.8477 30.3799C76.6243 29.9834 76.5127 29.5208 76.5127 28.9922H78.2285C78.2285 29.3158 78.2832 29.5915 78.3926 29.8193C78.5065 30.0472 78.6637 30.234 78.8643 30.3799C79.0648 30.5212 79.2972 30.626 79.5615 30.6943C79.8304 30.7627 80.1175 30.7969 80.4229 30.7969C80.8239 30.7969 81.1589 30.7399 81.4277 30.626C81.7012 30.512 81.9062 30.3525 82.043 30.1475C82.1797 29.9424 82.248 29.7054 82.248 29.4365ZM89.4941 30.5166V26.9893C89.4941 26.7249 89.4463 26.4971 89.3506 26.3057C89.2549 26.1143 89.109 25.9661 88.9131 25.8613C88.7217 25.7565 88.4801 25.7041 88.1885 25.7041C87.9196 25.7041 87.6872 25.7497 87.4912 25.8408C87.2952 25.932 87.1426 26.055 87.0332 26.21C86.9238 26.3649 86.8691 26.5404 86.8691 26.7363H85.2285C85.2285 26.4447 85.2992 26.1621 85.4404 25.8887C85.5817 25.6152 85.7868 25.3714 86.0557 25.1572C86.3245 24.943 86.6458 24.7744 87.0195 24.6514C87.3932 24.5283 87.8125 24.4668 88.2773 24.4668C88.8333 24.4668 89.3255 24.5602 89.7539 24.7471C90.1868 24.9339 90.5264 25.2165 90.7725 25.5947C91.0231 25.9684 91.1484 26.4378 91.1484 27.0029V30.291C91.1484 30.6283 91.1712 30.9313 91.2168 31.2002C91.2669 31.4645 91.3376 31.6947 91.4287 31.8906V32H89.7402C89.6628 31.8223 89.6012 31.5967 89.5557 31.3232C89.5146 31.0452 89.4941 30.7764 89.4941 30.5166ZM89.7334 27.502L89.7471 28.5205H88.5645C88.2591 28.5205 87.9902 28.5501 87.7578 28.6094C87.5254 28.6641 87.3317 28.7461 87.1768 28.8555C87.0218 28.9648 86.9056 29.097 86.8281 29.252C86.7507 29.4069 86.7119 29.5824 86.7119 29.7783C86.7119 29.9743 86.7575 30.1543 86.8486 30.3184C86.9398 30.4779 87.0719 30.6032 87.2451 30.6943C87.4229 30.7855 87.637 30.8311 87.8877 30.8311C88.2249 30.8311 88.5189 30.7627 88.7695 30.626C89.0247 30.4847 89.2253 30.3138 89.3711 30.1133C89.5169 29.9082 89.5944 29.7145 89.6035 29.5322L90.1367 30.2637C90.082 30.4505 89.9886 30.651 89.8564 30.8652C89.7243 31.0794 89.5511 31.2845 89.3369 31.4805C89.1273 31.6719 88.8743 31.8291 88.5781 31.9521C88.2865 32.0752 87.9492 32.1367 87.5664 32.1367C87.0833 32.1367 86.6527 32.041 86.2744 31.8496C85.8962 31.6536 85.5999 31.3916 85.3857 31.0635C85.1715 30.7308 85.0645 30.3548 85.0645 29.9355C85.0645 29.5436 85.1374 29.1973 85.2832 28.8965C85.4336 28.5911 85.6523 28.3359 85.9395 28.1309C86.2311 27.9258 86.5866 27.7708 87.0059 27.666C87.4251 27.5566 87.9036 27.502 88.4414 27.502H89.7334ZM95.168 30.6943L96.9795 24.6035H98.6885L96.1182 32H95.0518L95.168 30.6943ZM93.7803 24.6035L95.626 30.7217L95.7148 32H94.6484L92.0645 24.6035H93.7803ZM101.471 24.6035V32H99.8164V24.6035H101.471ZM99.707 22.6621C99.707 22.4115 99.7891 22.2041 99.9531 22.04C100.122 21.8714 100.354 21.7871 100.65 21.7871C100.942 21.7871 101.172 21.8714 101.341 22.04C101.509 22.2041 101.594 22.4115 101.594 22.6621C101.594 22.9082 101.509 23.1133 101.341 23.2773C101.172 23.4414 100.942 23.5234 100.65 23.5234C100.354 23.5234 100.122 23.4414 99.9531 23.2773C99.7891 23.1133 99.707 22.9082 99.707 22.6621ZM104.909 26.1826V32H103.262V24.6035H104.813L104.909 26.1826ZM104.615 28.0283L104.082 28.0215C104.087 27.4974 104.16 27.0166 104.301 26.5791C104.447 26.1416 104.647 25.7656 104.902 25.4512C105.162 25.1367 105.472 24.8952 105.832 24.7266C106.192 24.5534 106.593 24.4668 107.035 24.4668C107.391 24.4668 107.712 24.5169 107.999 24.6172C108.291 24.7129 108.539 24.8701 108.744 25.0889C108.954 25.3076 109.113 25.5924 109.223 25.9434C109.332 26.2897 109.387 26.7158 109.387 27.2217V32H107.732V27.2148C107.732 26.8594 107.68 26.5791 107.575 26.374C107.475 26.1644 107.327 26.0163 107.131 25.9297C106.939 25.8385 106.7 25.793 106.413 25.793C106.131 25.793 105.878 25.8522 105.654 25.9707C105.431 26.0892 105.242 26.251 105.087 26.4561C104.937 26.6611 104.82 26.8981 104.738 27.167C104.656 27.4359 104.615 27.723 104.615 28.0283ZM115.806 24.6035H117.303V31.7949C117.303 32.4603 117.161 33.0254 116.879 33.4902C116.596 33.9551 116.202 34.3083 115.696 34.5498C115.19 34.7959 114.605 34.9189 113.939 34.9189C113.657 34.9189 113.342 34.8779 112.996 34.7959C112.654 34.7139 112.322 34.5817 111.998 34.3994C111.679 34.2217 111.412 33.987 111.198 33.6953L111.971 32.7246C112.235 33.0391 112.527 33.2692 112.846 33.415C113.165 33.5609 113.5 33.6338 113.851 33.6338C114.229 33.6338 114.55 33.5632 114.814 33.4219C115.083 33.2852 115.291 33.0824 115.437 32.8135C115.582 32.5446 115.655 32.2165 115.655 31.8291V26.2783L115.806 24.6035ZM110.781 28.3838V28.2402C110.781 27.6797 110.85 27.1693 110.986 26.709C111.123 26.2441 111.319 25.8454 111.574 25.5127C111.829 25.1755 112.139 24.918 112.504 24.7402C112.868 24.5579 113.281 24.4668 113.741 24.4668C114.22 24.4668 114.628 24.5534 114.965 24.7266C115.307 24.8997 115.591 25.1481 115.819 25.4717C116.047 25.7907 116.225 26.1735 116.353 26.6201C116.485 27.0622 116.583 27.5544 116.646 28.0967V28.5547C116.587 29.0833 116.487 29.5664 116.346 30.0039C116.204 30.4414 116.018 30.8197 115.785 31.1387C115.553 31.4577 115.266 31.7038 114.924 31.877C114.587 32.0501 114.188 32.1367 113.728 32.1367C113.276 32.1367 112.868 32.0433 112.504 31.8564C112.144 31.6696 111.834 31.4076 111.574 31.0703C111.319 30.7331 111.123 30.3366 110.986 29.8809C110.85 29.4206 110.781 28.9215 110.781 28.3838ZM112.429 28.2402V28.3838C112.429 28.721 112.461 29.0355 112.524 29.3271C112.593 29.6188 112.695 29.8763 112.832 30.0996C112.973 30.3184 113.151 30.4915 113.365 30.6191C113.584 30.7422 113.841 30.8037 114.138 30.8037C114.525 30.8037 114.842 30.7217 115.088 30.5576C115.339 30.3936 115.53 30.1725 115.662 29.8945C115.799 29.612 115.895 29.2975 115.949 28.9512V27.7139C115.922 27.445 115.865 27.1943 115.778 26.9619C115.696 26.7295 115.585 26.5267 115.443 26.3535C115.302 26.1758 115.124 26.0391 114.91 25.9434C114.696 25.8431 114.443 25.793 114.151 25.793C113.855 25.793 113.598 25.8568 113.379 25.9844C113.16 26.112 112.98 26.2874 112.839 26.5107C112.702 26.734 112.6 26.9938 112.531 27.29C112.463 27.5863 112.429 27.903 112.429 28.2402ZM123.161 29.9971C123.161 29.833 123.12 29.6849 123.038 29.5527C122.956 29.416 122.799 29.293 122.566 29.1836C122.339 29.0742 122.001 28.974 121.555 28.8828C121.163 28.7962 120.803 28.6937 120.475 28.5752C120.151 28.4521 119.873 28.304 119.641 28.1309C119.408 27.9577 119.228 27.7526 119.101 27.5156C118.973 27.2786 118.909 27.0052 118.909 26.6953C118.909 26.3945 118.975 26.1097 119.107 25.8408C119.24 25.5719 119.429 25.335 119.675 25.1299C119.921 24.9248 120.219 24.763 120.57 24.6445C120.926 24.526 121.322 24.4668 121.76 24.4668C122.38 24.4668 122.91 24.5716 123.353 24.7812C123.799 24.9863 124.141 25.2666 124.378 25.6221C124.615 25.973 124.733 26.3695 124.733 26.8115H123.086C123.086 26.6156 123.036 26.4333 122.936 26.2646C122.84 26.0915 122.694 25.9525 122.498 25.8477C122.302 25.7383 122.056 25.6836 121.76 25.6836C121.477 25.6836 121.243 25.7292 121.056 25.8203C120.873 25.9069 120.737 26.0208 120.646 26.1621C120.559 26.3034 120.516 26.4583 120.516 26.627C120.516 26.75 120.538 26.8617 120.584 26.9619C120.634 27.0576 120.716 27.1465 120.83 27.2285C120.944 27.306 121.099 27.3789 121.295 27.4473C121.495 27.5156 121.746 27.5817 122.047 27.6455C122.612 27.764 123.097 27.9167 123.503 28.1035C123.913 28.2858 124.228 28.5228 124.446 28.8145C124.665 29.1016 124.774 29.4661 124.774 29.9082C124.774 30.2363 124.704 30.5371 124.562 30.8105C124.426 31.0794 124.225 31.3141 123.961 31.5146C123.697 31.7106 123.38 31.8633 123.011 31.9727C122.646 32.082 122.236 32.1367 121.78 32.1367C121.11 32.1367 120.543 32.0182 120.078 31.7812C119.613 31.5397 119.26 31.2321 119.019 30.8584C118.782 30.4801 118.663 30.0882 118.663 29.6826H120.256C120.274 29.988 120.358 30.2318 120.509 30.4141C120.664 30.5918 120.855 30.7217 121.083 30.8037C121.315 30.8812 121.555 30.9199 121.801 30.9199C122.097 30.9199 122.345 30.8812 122.546 30.8037C122.746 30.7217 122.899 30.6123 123.004 30.4756C123.109 30.3343 123.161 30.1748 123.161 29.9971ZM133.873 30.5166V26.9893C133.873 26.7249 133.825 26.4971 133.729 26.3057C133.634 26.1143 133.488 25.9661 133.292 25.8613C133.101 25.7565 132.859 25.7041 132.567 25.7041C132.299 25.7041 132.066 25.7497 131.87 25.8408C131.674 25.932 131.521 26.055 131.412 26.21C131.303 26.3649 131.248 26.5404 131.248 26.7363H129.607C129.607 26.4447 129.678 26.1621 129.819 25.8887C129.961 25.6152 130.166 25.3714 130.435 25.1572C130.703 24.943 131.025 24.7744 131.398 24.6514C131.772 24.5283 132.191 24.4668 132.656 24.4668C133.212 24.4668 133.704 24.5602 134.133 24.7471C134.566 24.9339 134.905 25.2165 135.151 25.5947C135.402 25.9684 135.527 26.4378 135.527 27.0029V30.291C135.527 30.6283 135.55 30.9313 135.596 31.2002C135.646 31.4645 135.716 31.6947 135.808 31.8906V32H134.119C134.042 31.8223 133.98 31.5967 133.935 31.3232C133.894 31.0452 133.873 30.7764 133.873 30.5166ZM134.112 27.502L134.126 28.5205H132.943C132.638 28.5205 132.369 28.5501 132.137 28.6094C131.904 28.6641 131.711 28.7461 131.556 28.8555C131.401 28.9648 131.285 29.097 131.207 29.252C131.13 29.4069 131.091 29.5824 131.091 29.7783C131.091 29.9743 131.136 30.1543 131.228 30.3184C131.319 30.4779 131.451 30.6032 131.624 30.6943C131.802 30.7855 132.016 30.8311 132.267 30.8311C132.604 30.8311 132.898 30.7627 133.148 30.626C133.404 30.4847 133.604 30.3138 133.75 30.1133C133.896 29.9082 133.973 29.7145 133.982 29.5322L134.516 30.2637C134.461 30.4505 134.368 30.651 134.235 30.8652C134.103 31.0794 133.93 31.2845 133.716 31.4805C133.506 31.6719 133.253 31.8291 132.957 31.9521C132.665 32.0752 132.328 32.1367 131.945 32.1367C131.462 32.1367 131.032 32.041 130.653 31.8496C130.275 31.6536 129.979 31.3916 129.765 31.0635C129.55 30.7308 129.443 30.3548 129.443 29.9355C129.443 29.5436 129.516 29.1973 129.662 28.8965C129.812 28.5911 130.031 28.3359 130.318 28.1309C130.61 27.9258 130.965 27.7708 131.385 27.666C131.804 27.5566 132.283 27.502 132.82 27.502H134.112ZM140.271 30.8242C140.54 30.8242 140.782 30.7718 140.996 30.667C141.215 30.5576 141.39 30.4072 141.522 30.2158C141.659 30.0244 141.734 29.8034 141.748 29.5527H143.3C143.291 30.0312 143.149 30.4665 142.876 30.8584C142.603 31.2503 142.24 31.5625 141.789 31.7949C141.338 32.0228 140.839 32.1367 140.292 32.1367C139.727 32.1367 139.235 32.041 138.815 31.8496C138.396 31.6536 138.048 31.3848 137.77 31.043C137.492 30.7012 137.282 30.307 137.141 29.8604C137.004 29.4137 136.936 28.9352 136.936 28.4248V28.1855C136.936 27.6751 137.004 27.1966 137.141 26.75C137.282 26.2988 137.492 25.9023 137.77 25.5605C138.048 25.2188 138.396 24.9521 138.815 24.7607C139.235 24.5648 139.725 24.4668 140.285 24.4668C140.878 24.4668 141.397 24.5853 141.844 24.8223C142.29 25.0547 142.641 25.3805 142.896 25.7998C143.156 26.2145 143.291 26.6976 143.3 27.249H141.748C141.734 26.9756 141.666 26.7295 141.543 26.5107C141.424 26.2874 141.256 26.1097 141.037 25.9775C140.823 25.8454 140.565 25.7793 140.265 25.7793C139.932 25.7793 139.656 25.8477 139.438 25.9844C139.219 26.1165 139.048 26.2988 138.925 26.5312C138.802 26.7591 138.713 27.0166 138.658 27.3037C138.608 27.5863 138.583 27.8802 138.583 28.1855V28.4248C138.583 28.7301 138.608 29.0264 138.658 29.3135C138.708 29.6006 138.795 29.8581 138.918 30.0859C139.046 30.3092 139.219 30.4893 139.438 30.626C139.656 30.7581 139.934 30.8242 140.271 30.8242ZM147.586 30.8242C147.855 30.8242 148.096 30.7718 148.311 30.667C148.529 30.5576 148.705 30.4072 148.837 30.2158C148.974 30.0244 149.049 29.8034 149.062 29.5527H150.614C150.605 30.0312 150.464 30.4665 150.19 30.8584C149.917 31.2503 149.555 31.5625 149.104 31.7949C148.652 32.0228 148.153 32.1367 147.606 32.1367C147.041 32.1367 146.549 32.041 146.13 31.8496C145.711 31.6536 145.362 31.3848 145.084 31.043C144.806 30.7012 144.596 30.307 144.455 29.8604C144.318 29.4137 144.25 28.9352 144.25 28.4248V28.1855C144.25 27.6751 144.318 27.1966 144.455 26.75C144.596 26.2988 144.806 25.9023 145.084 25.5605C145.362 25.2188 145.711 24.9521 146.13 24.7607C146.549 24.5648 147.039 24.4668 147.6 24.4668C148.192 24.4668 148.712 24.5853 149.158 24.8223C149.605 25.0547 149.956 25.3805 150.211 25.7998C150.471 26.2145 150.605 26.6976 150.614 27.249H149.062C149.049 26.9756 148.98 26.7295 148.857 26.5107C148.739 26.2874 148.57 26.1097 148.352 25.9775C148.137 25.8454 147.88 25.7793 147.579 25.7793C147.246 25.7793 146.971 25.8477 146.752 25.9844C146.533 26.1165 146.362 26.2988 146.239 26.5312C146.116 26.7591 146.027 27.0166 145.973 27.3037C145.923 27.5863 145.897 27.8802 145.897 28.1855V28.4248C145.897 28.7301 145.923 29.0264 145.973 29.3135C146.023 29.6006 146.109 29.8581 146.232 30.0859C146.36 30.3092 146.533 30.4893 146.752 30.626C146.971 30.7581 147.249 30.8242 147.586 30.8242ZM151.564 28.3838V28.2266C151.564 27.6934 151.642 27.1989 151.797 26.7432C151.952 26.2829 152.175 25.8841 152.467 25.5469C152.763 25.2051 153.123 24.9408 153.547 24.7539C153.975 24.5625 154.458 24.4668 154.996 24.4668C155.538 24.4668 156.021 24.5625 156.445 24.7539C156.874 24.9408 157.236 25.2051 157.532 25.5469C157.828 25.8841 158.054 26.2829 158.209 26.7432C158.364 27.1989 158.441 27.6934 158.441 28.2266V28.3838C158.441 28.917 158.364 29.4115 158.209 29.8672C158.054 30.3229 157.828 30.7217 157.532 31.0635C157.236 31.4007 156.876 31.665 156.452 31.8564C156.028 32.0433 155.548 32.1367 155.01 32.1367C154.467 32.1367 153.982 32.0433 153.554 31.8564C153.13 31.665 152.77 31.4007 152.474 31.0635C152.177 30.7217 151.952 30.3229 151.797 29.8672C151.642 29.4115 151.564 28.917 151.564 28.3838ZM153.212 28.2266V28.3838C153.212 28.7165 153.246 29.0309 153.314 29.3271C153.383 29.6234 153.49 29.8831 153.636 30.1064C153.782 30.3298 153.968 30.5052 154.196 30.6328C154.424 30.7604 154.695 30.8242 155.01 30.8242C155.315 30.8242 155.579 30.7604 155.803 30.6328C156.031 30.5052 156.217 30.3298 156.363 30.1064C156.509 29.8831 156.616 29.6234 156.685 29.3271C156.757 29.0309 156.794 28.7165 156.794 28.3838V28.2266C156.794 27.8984 156.757 27.5885 156.685 27.2969C156.616 27.0007 156.507 26.7386 156.356 26.5107C156.211 26.2829 156.024 26.1051 155.796 25.9775C155.573 25.8454 155.306 25.7793 154.996 25.7793C154.686 25.7793 154.417 25.8454 154.189 25.9775C153.966 26.1051 153.782 26.2829 153.636 26.5107C153.49 26.7386 153.383 27.0007 153.314 27.2969C153.246 27.5885 153.212 27.8984 153.212 28.2266ZM164.272 30.2568V24.6035H165.927V32H164.368L164.272 30.2568ZM164.505 28.7188L165.059 28.7051C165.059 29.2018 165.004 29.6598 164.895 30.0791C164.785 30.4938 164.617 30.8561 164.389 31.166C164.161 31.4714 163.869 31.7106 163.514 31.8838C163.158 32.0524 162.732 32.1367 162.235 32.1367C161.875 32.1367 161.545 32.0843 161.244 31.9795C160.943 31.8747 160.684 31.7129 160.465 31.4941C160.251 31.2754 160.084 30.9906 159.966 30.6396C159.847 30.2887 159.788 29.8695 159.788 29.3818V24.6035H161.436V29.3955C161.436 29.6644 161.467 29.89 161.531 30.0723C161.595 30.25 161.682 30.3936 161.791 30.5029C161.9 30.6123 162.028 30.6898 162.174 30.7354C162.32 30.7809 162.475 30.8037 162.639 30.8037C163.108 30.8037 163.477 30.7126 163.746 30.5303C164.02 30.3434 164.213 30.0928 164.327 29.7783C164.446 29.4639 164.505 29.1107 164.505 28.7188ZM169.249 26.1826V32H167.602V24.6035H169.153L169.249 26.1826ZM168.955 28.0283L168.422 28.0215C168.426 27.4974 168.499 27.0166 168.641 26.5791C168.786 26.1416 168.987 25.7656 169.242 25.4512C169.502 25.1367 169.812 24.8952 170.172 24.7266C170.532 24.5534 170.933 24.4668 171.375 24.4668C171.73 24.4668 172.052 24.5169 172.339 24.6172C172.631 24.7129 172.879 24.8701 173.084 25.0889C173.294 25.3076 173.453 25.5924 173.562 25.9434C173.672 26.2897 173.727 26.7158 173.727 27.2217V32H172.072V27.2148C172.072 26.8594 172.02 26.5791 171.915 26.374C171.815 26.1644 171.667 26.0163 171.471 25.9297C171.279 25.8385 171.04 25.793 170.753 25.793C170.47 25.793 170.217 25.8522 169.994 25.9707C169.771 26.0892 169.582 26.251 169.427 26.4561C169.276 26.6611 169.16 26.8981 169.078 27.167C168.996 27.4359 168.955 27.723 168.955 28.0283ZM178.799 24.6035V25.8066H174.629V24.6035H178.799ZM175.832 22.792H177.479V29.9561C177.479 30.1839 177.511 30.3594 177.575 30.4824C177.644 30.6009 177.737 30.6807 177.855 30.7217C177.974 30.7627 178.113 30.7832 178.272 30.7832C178.386 30.7832 178.496 30.7764 178.601 30.7627C178.705 30.749 178.79 30.7354 178.854 30.7217L178.86 31.9795C178.724 32.0205 178.564 32.057 178.382 32.0889C178.204 32.1208 177.999 32.1367 177.767 32.1367C177.388 32.1367 177.053 32.0706 176.762 31.9385C176.47 31.8018 176.242 31.5807 176.078 31.2754C175.914 30.9701 175.832 30.5645 175.832 30.0586V22.792Z" fill="white"/>
<g clip-path="url(#clip4_56_2668)">
<path d="M83.6348 43.4688V52H82.1641L78.3379 45.8887V52H76.8672V43.4688H78.3379L82.1758 49.5918V43.4688H83.6348ZM90.7305 50.834V52H86.4473V50.834H90.7305ZM86.8574 43.4688V52H85.3867V43.4688H86.8574ZM95.5 43.4395V52H94.0879V45.1152L91.9961 45.8242V44.6582L95.3301 43.4395H95.5ZM102.32 43.4395V52H100.908V45.1152L98.8164 45.8242V44.6582L102.15 43.4395H102.32ZM107.646 50.084L109.346 43.4688H110.236L110.137 45.1738L108.32 52H107.395L107.646 50.084ZM106.375 43.4688L107.752 50.0312L107.875 52H106.891L104.916 43.4688H106.375ZM112.164 50.0137L113.523 43.4688H114.988L113.014 52H112.029L112.164 50.0137ZM110.582 43.4688L112.264 50.1016L112.51 52H111.584L109.797 45.1738L109.703 43.4688H110.582ZM119.143 44.6055L116.594 52H115.053L118.264 43.4688H119.248L119.143 44.6055ZM121.275 52L118.721 44.6055L118.609 43.4688H119.6L122.822 52H121.275ZM121.152 48.8359V50.002H116.512V48.8359H121.152ZM126.209 50.4414L128.453 43.4688H130.076L127.018 52H125.922L126.209 50.4414ZM124.135 43.4688L126.361 50.4414L126.666 52H125.564L122.518 43.4688H124.135ZM131.031 43.4688H134.049C134.697 43.4688 135.25 43.5664 135.707 43.7617C136.164 43.957 136.514 44.2461 136.756 44.6289C137.002 45.0078 137.125 45.4766 137.125 46.0352C137.125 46.4609 137.047 46.8359 136.891 47.1602C136.734 47.4844 136.514 47.7578 136.229 47.9805C135.943 48.1992 135.604 48.3691 135.209 48.4902L134.764 48.707H132.051L132.039 47.541H134.072C134.424 47.541 134.717 47.4785 134.951 47.3535C135.186 47.2285 135.361 47.0586 135.479 46.8438C135.6 46.625 135.66 46.3789 135.66 46.1055C135.66 45.8086 135.602 45.5508 135.484 45.332C135.371 45.1094 135.195 44.9395 134.957 44.8223C134.719 44.7012 134.416 44.6406 134.049 44.6406H132.502V52H131.031V43.4688ZM135.9 52L133.896 48.168L135.438 48.1621L137.471 51.9238V52H135.9ZM142.223 43.4395V52H140.811V45.1152L138.719 45.8242V44.6582L142.053 43.4395H142.223ZM146.324 50.8867H146.441C146.98 50.8867 147.43 50.8164 147.789 50.6758C148.152 50.5312 148.441 50.332 148.656 50.0781C148.871 49.8242 149.025 49.5254 149.119 49.1816C149.213 48.8379 149.26 48.4648 149.26 48.0625V46.5918C149.26 46.2441 149.223 45.9395 149.148 45.6777C149.078 45.4121 148.977 45.1914 148.844 45.0156C148.715 44.8359 148.564 44.7012 148.393 44.6113C148.225 44.5215 148.043 44.4766 147.848 44.4766C147.633 44.4766 147.439 44.5254 147.268 44.623C147.1 44.7168 146.957 44.8477 146.84 45.0156C146.727 45.1797 146.639 45.373 146.576 45.5957C146.518 45.8145 146.488 46.0488 146.488 46.2988C146.488 46.5332 146.516 46.7598 146.57 46.9785C146.629 47.1934 146.715 47.3848 146.828 47.5527C146.941 47.7207 147.084 47.8535 147.256 47.9512C147.428 48.0488 147.629 48.0977 147.859 48.0977C148.078 48.0977 148.279 48.0566 148.463 47.9746C148.646 47.8887 148.807 47.7734 148.943 47.6289C149.08 47.4844 149.188 47.3223 149.266 47.1426C149.344 46.9629 149.387 46.7793 149.395 46.5918L149.934 46.7559C149.934 47.0527 149.871 47.3457 149.746 47.6348C149.625 47.9199 149.455 48.1816 149.236 48.4199C149.021 48.6543 148.77 48.8418 148.48 48.9824C148.195 49.123 147.885 49.1934 147.549 49.1934C147.143 49.1934 146.783 49.1172 146.471 48.9648C146.162 48.8086 145.904 48.5977 145.697 48.332C145.494 48.0664 145.342 47.7617 145.24 47.418C145.139 47.0742 145.088 46.7129 145.088 46.334C145.088 45.9238 145.15 45.5391 145.275 45.1797C145.4 44.8203 145.582 44.5039 145.82 44.2305C146.059 43.9531 146.348 43.7383 146.688 43.5859C147.031 43.4297 147.42 43.3516 147.854 43.3516C148.314 43.3516 148.719 43.4414 149.066 43.6211C149.414 43.8008 149.707 44.0488 149.945 44.3652C150.184 44.6816 150.363 45.0488 150.484 45.4668C150.605 45.8848 150.666 46.334 150.666 46.8145V47.3125C150.666 47.8164 150.621 48.3027 150.531 48.7715C150.441 49.2363 150.295 49.668 150.092 50.0664C149.893 50.4609 149.629 50.8086 149.301 51.1094C148.977 51.4062 148.578 51.6387 148.105 51.8066C147.637 51.9707 147.086 52.0527 146.453 52.0527H146.324V50.8867ZM157.885 48.959V50.084H151.732L151.686 49.2344L155.365 43.4688H156.496L155.271 45.5664L153.156 48.959H157.885ZM156.818 43.4688V52H155.406V43.4688H156.818ZM164.705 48.959V50.084H158.553L158.506 49.2344L162.186 43.4688H163.316L162.092 45.5664L159.977 48.959H164.705ZM163.639 43.4688V52H162.227V43.4688H163.639ZM171.227 49.6738C171.227 50.2051 171.104 50.6523 170.857 51.0156C170.611 51.3789 170.275 51.6543 169.85 51.8418C169.428 52.0254 168.951 52.1172 168.42 52.1172C167.889 52.1172 167.41 52.0254 166.984 51.8418C166.559 51.6543 166.223 51.3789 165.977 51.0156C165.73 50.6523 165.607 50.2051 165.607 49.6738C165.607 49.3223 165.676 49.0039 165.812 48.7188C165.949 48.4297 166.143 48.1816 166.393 47.9746C166.646 47.7637 166.943 47.6016 167.283 47.4883C167.627 47.375 168.002 47.3184 168.408 47.3184C168.947 47.3184 169.43 47.418 169.855 47.6172C170.281 47.8164 170.615 48.0918 170.857 48.4434C171.104 48.7949 171.227 49.2051 171.227 49.6738ZM169.809 49.6035C169.809 49.3184 169.75 49.0684 169.633 48.8535C169.516 48.6387 169.352 48.4727 169.141 48.3555C168.93 48.2383 168.686 48.1797 168.408 48.1797C168.127 48.1797 167.883 48.2383 167.676 48.3555C167.469 48.4727 167.307 48.6387 167.189 48.8535C167.076 49.0684 167.02 49.3184 167.02 49.6035C167.02 49.8926 167.076 50.1426 167.189 50.3535C167.303 50.5605 167.465 50.7188 167.676 50.8281C167.887 50.9375 168.135 50.9922 168.42 50.9922C168.705 50.9922 168.951 50.9375 169.158 50.8281C169.365 50.7188 169.525 50.5605 169.639 50.3535C169.752 50.1426 169.809 49.8926 169.809 49.6035ZM171.033 45.7129C171.033 46.1387 170.92 46.5176 170.693 46.8496C170.471 47.1816 170.162 47.4434 169.768 47.6348C169.373 47.8223 168.924 47.916 168.42 47.916C167.912 47.916 167.459 47.8223 167.061 47.6348C166.666 47.4434 166.355 47.1816 166.129 46.8496C165.906 46.5176 165.795 46.1387 165.795 45.7129C165.795 45.2051 165.906 44.7773 166.129 44.4297C166.355 44.0781 166.666 43.8105 167.061 43.627C167.455 43.4434 167.906 43.3516 168.414 43.3516C168.922 43.3516 169.373 43.4434 169.768 43.627C170.162 43.8105 170.471 44.0781 170.693 44.4297C170.92 44.7773 171.033 45.2051 171.033 45.7129ZM169.621 45.7598C169.621 45.5059 169.57 45.2832 169.469 45.0918C169.371 44.8965 169.232 44.7441 169.053 44.6348C168.873 44.5254 168.66 44.4707 168.414 44.4707C168.168 44.4707 167.955 44.5234 167.775 44.6289C167.596 44.7344 167.457 44.8828 167.359 45.0742C167.262 45.2656 167.213 45.4941 167.213 45.7598C167.213 46.0215 167.262 46.25 167.359 46.4453C167.457 46.6367 167.596 46.7871 167.775 46.8965C167.959 47.0059 168.174 47.0605 168.42 47.0605C168.666 47.0605 168.879 47.0059 169.059 46.8965C169.238 46.7871 169.377 46.6367 169.475 46.4453C169.572 46.25 169.621 46.0215 169.621 45.7598ZM178.047 49.6738C178.047 50.2051 177.924 50.6523 177.678 51.0156C177.432 51.3789 177.096 51.6543 176.67 51.8418C176.248 52.0254 175.771 52.1172 175.24 52.1172C174.709 52.1172 174.23 52.0254 173.805 51.8418C173.379 51.6543 173.043 51.3789 172.797 51.0156C172.551 50.6523 172.428 50.2051 172.428 49.6738C172.428 49.3223 172.496 49.0039 172.633 48.7188C172.77 48.4297 172.963 48.1816 173.213 47.9746C173.467 47.7637 173.764 47.6016 174.104 47.4883C174.447 47.375 174.822 47.3184 175.229 47.3184C175.768 47.3184 176.25 47.418 176.676 47.6172C177.102 47.8164 177.436 48.0918 177.678 48.4434C177.924 48.7949 178.047 49.2051 178.047 49.6738ZM176.629 49.6035C176.629 49.3184 176.57 49.0684 176.453 48.8535C176.336 48.6387 176.172 48.4727 175.961 48.3555C175.75 48.2383 175.506 48.1797 175.229 48.1797C174.947 48.1797 174.703 48.2383 174.496 48.3555C174.289 48.4727 174.127 48.6387 174.01 48.8535C173.896 49.0684 173.84 49.3184 173.84 49.6035C173.84 49.8926 173.896 50.1426 174.01 50.3535C174.123 50.5605 174.285 50.7188 174.496 50.8281C174.707 50.9375 174.955 50.9922 175.24 50.9922C175.525 50.9922 175.771 50.9375 175.979 50.8281C176.186 50.7188 176.346 50.5605 176.459 50.3535C176.572 50.1426 176.629 49.8926 176.629 49.6035ZM177.854 45.7129C177.854 46.1387 177.74 46.5176 177.514 46.8496C177.291 47.1816 176.982 47.4434 176.588 47.6348C176.193 47.8223 175.744 47.916 175.24 47.916C174.732 47.916 174.279 47.8223 173.881 47.6348C173.486 47.4434 173.176 47.1816 172.949 46.8496C172.727 46.5176 172.615 46.1387 172.615 45.7129C172.615 45.2051 172.727 44.7773 172.949 44.4297C173.176 44.0781 173.486 43.8105 173.881 43.627C174.275 43.4434 174.727 43.3516 175.234 43.3516C175.742 43.3516 176.193 43.4434 176.588 43.627C176.982 43.8105 177.291 44.0781 177.514 44.4297C177.74 44.7773 177.854 45.2051 177.854 45.7129ZM176.441 45.7598C176.441 45.5059 176.391 45.2832 176.289 45.0918C176.191 44.8965 176.053 44.7441 175.873 44.6348C175.693 44.5254 175.48 44.4707 175.234 44.4707C174.988 44.4707 174.775 44.5234 174.596 44.6289C174.416 44.7344 174.277 44.8828 174.18 45.0742C174.082 45.2656 174.033 45.4941 174.033 45.7598C174.033 46.0215 174.082 46.25 174.18 46.4453C174.277 46.6367 174.416 46.7871 174.596 46.8965C174.779 47.0059 174.994 47.0605 175.24 47.0605C175.486 47.0605 175.699 47.0059 175.879 46.8965C176.059 46.7871 176.197 46.6367 176.295 46.4453C176.393 46.25 176.441 46.0215 176.441 45.7598ZM183.145 43.4395V52H181.732V45.1152L179.641 45.8242V44.6582L182.975 43.4395H183.145ZM187.246 50.8867H187.363C187.902 50.8867 188.352 50.8164 188.711 50.6758C189.074 50.5312 189.363 50.332 189.578 50.0781C189.793 49.8242 189.947 49.5254 190.041 49.1816C190.135 48.8379 190.182 48.4648 190.182 48.0625V46.5918C190.182 46.2441 190.145 45.9395 190.07 45.6777C190 45.4121 189.898 45.1914 189.766 45.0156C189.637 44.8359 189.486 44.7012 189.314 44.6113C189.146 44.5215 188.965 44.4766 188.77 44.4766C188.555 44.4766 188.361 44.5254 188.189 44.623C188.021 44.7168 187.879 44.8477 187.762 45.0156C187.648 45.1797 187.561 45.373 187.498 45.5957C187.439 45.8145 187.41 46.0488 187.41 46.2988C187.41 46.5332 187.438 46.7598 187.492 46.9785C187.551 47.1934 187.637 47.3848 187.75 47.5527C187.863 47.7207 188.006 47.8535 188.178 47.9512C188.35 48.0488 188.551 48.0977 188.781 48.0977C189 48.0977 189.201 48.0566 189.385 47.9746C189.568 47.8887 189.729 47.7734 189.865 47.6289C190.002 47.4844 190.109 47.3223 190.188 47.1426C190.266 46.9629 190.309 46.7793 190.316 46.5918L190.855 46.7559C190.855 47.0527 190.793 47.3457 190.668 47.6348C190.547 47.9199 190.377 48.1816 190.158 48.4199C189.943 48.6543 189.691 48.8418 189.402 48.9824C189.117 49.123 188.807 49.1934 188.471 49.1934C188.064 49.1934 187.705 49.1172 187.393 48.9648C187.084 48.8086 186.826 48.5977 186.619 48.332C186.416 48.0664 186.264 47.7617 186.162 47.418C186.061 47.0742 186.01 46.7129 186.01 46.334C186.01 45.9238 186.072 45.5391 186.197 45.1797C186.322 44.8203 186.504 44.5039 186.742 44.2305C186.98 43.9531 187.27 43.7383 187.609 43.5859C187.953 43.4297 188.342 43.3516 188.775 43.3516C189.236 43.3516 189.641 43.4414 189.988 43.6211C190.336 43.8008 190.629 44.0488 190.867 44.3652C191.105 44.6816 191.285 45.0488 191.406 45.4668C191.527 45.8848 191.588 46.334 191.588 46.8145V47.3125C191.588 47.8164 191.543 48.3027 191.453 48.7715C191.363 49.2363 191.217 49.668 191.014 50.0664C190.814 50.4609 190.551 50.8086 190.223 51.1094C189.898 51.4062 189.5 51.6387 189.027 51.8066C188.559 51.9707 188.008 52.0527 187.375 52.0527H187.246V50.8867ZM197.195 43.416H197.371V44.5703H197.271C196.768 44.5703 196.332 44.6484 195.965 44.8047C195.602 44.9609 195.303 45.1758 195.068 45.4492C194.834 45.7227 194.658 46.043 194.541 46.4102C194.428 46.7734 194.371 47.1602 194.371 47.5703V48.9121C194.371 49.252 194.408 49.5527 194.482 49.8145C194.557 50.0723 194.66 50.2891 194.793 50.4648C194.93 50.6367 195.086 50.7676 195.262 50.8574C195.438 50.9473 195.627 50.9922 195.83 50.9922C196.041 50.9922 196.232 50.9492 196.404 50.8633C196.576 50.7734 196.723 50.6504 196.844 50.4941C196.965 50.3379 197.057 50.1523 197.119 49.9375C197.182 49.7227 197.213 49.4883 197.213 49.2344C197.213 48.9922 197.182 48.7656 197.119 48.5547C197.061 48.3398 196.973 48.1523 196.855 47.9922C196.738 47.8281 196.592 47.7012 196.416 47.6113C196.244 47.5176 196.045 47.4707 195.818 47.4707C195.537 47.4707 195.281 47.5371 195.051 47.6699C194.824 47.8027 194.641 47.9766 194.5 48.1914C194.363 48.4023 194.289 48.627 194.277 48.8652L193.738 48.6895C193.77 48.3262 193.85 48 193.979 47.7109C194.111 47.4219 194.285 47.1758 194.5 46.9727C194.715 46.7695 194.963 46.6152 195.244 46.5098C195.529 46.4004 195.842 46.3457 196.182 46.3457C196.596 46.3457 196.955 46.4238 197.26 46.5801C197.564 46.7363 197.816 46.9492 198.016 47.2188C198.219 47.4844 198.369 47.7891 198.467 48.1328C198.568 48.4727 198.619 48.8281 198.619 49.1992C198.619 49.6094 198.557 49.9922 198.432 50.3477C198.307 50.6992 198.123 51.0078 197.881 51.2734C197.643 51.5391 197.352 51.7461 197.008 51.8945C196.668 52.043 196.281 52.1172 195.848 52.1172C195.391 52.1172 194.982 52.0293 194.623 51.8535C194.268 51.6777 193.965 51.4355 193.715 51.127C193.469 50.8184 193.281 50.4629 193.152 50.0605C193.023 49.6582 192.959 49.2324 192.959 48.7832V48.1973C192.959 47.5488 193.041 46.9375 193.205 46.3633C193.369 45.7852 193.621 45.2754 193.961 44.834C194.305 44.3926 194.744 44.0469 195.279 43.7969C195.814 43.543 196.453 43.416 197.195 43.416ZM205.627 48.959V50.084H199.475L199.428 49.2344L203.107 43.4688H204.238L203.014 45.5664L200.898 48.959H205.627ZM204.561 43.4688V52H203.148V43.4688H204.561Z" fill="#A3A3A3"/>
</g>
</g>
<g clip-path="url(#clip5_56_2668)">
<path d="M321 29.8333V48.1666" stroke="#A3A3A3" stroke-width="2" stroke-linecap="round" stroke-linejoin="round"/>
<path d="M325.167 33.1667H318.917C318.143 33.1667 317.401 33.474 316.854 34.021C316.307 34.568 316 35.3099 316 36.0834C316 36.857 316.307 37.5988 316.854 38.1458C317.401 38.6928 318.143 39.0001 318.917 39.0001H323.083C323.857 39.0001 324.599 39.3074 325.146 39.8544C325.693 40.4013 326 41.1432 326 41.9167C326 42.6903 325.693 43.4322 325.146 43.9791C324.599 44.5261 323.857 44.8334 323.083 44.8334H316" stroke="#A3A3A3" stroke-width="2" stroke-linecap="round" stroke-linejoin="round"/>
</g>
<path d="M346.326 40.1875V42.3945H336.082L335.945 40.6855L341.873 31.2812H344.109L341.688 35.334L338.738 40.1875H346.326ZM344.715 31.2812V45.5H341.902V31.2812H344.715ZM357.576 43.3027V45.5H347.85V43.625L352.449 38.6934C352.911 38.179 353.276 37.7266 353.543 37.3359C353.81 36.9388 354.002 36.584 354.119 36.2715C354.243 35.9525 354.305 35.6497 354.305 35.3633C354.305 34.9336 354.233 34.5658 354.09 34.2598C353.947 33.9473 353.735 33.7064 353.455 33.5371C353.182 33.3678 352.843 33.2832 352.439 33.2832C352.01 33.2832 351.639 33.3874 351.326 33.5957C351.02 33.804 350.786 34.0938 350.623 34.4648C350.467 34.8359 350.389 35.2559 350.389 35.7246H347.566C347.566 34.8783 347.768 34.1035 348.172 33.4004C348.576 32.6908 349.145 32.1276 349.881 31.7109C350.617 31.2878 351.489 31.0762 352.498 31.0762C353.494 31.0762 354.334 31.2389 355.018 31.5645C355.708 31.8835 356.229 32.3457 356.58 32.9512C356.938 33.5501 357.117 34.2663 357.117 35.0996C357.117 35.5684 357.042 36.0273 356.893 36.4766C356.743 36.9193 356.528 37.362 356.248 37.8047C355.975 38.2409 355.643 38.6836 355.252 39.1328C354.861 39.582 354.428 40.0475 353.953 40.5293L351.482 43.3027H357.576ZM368.904 37.1406V39.6016C368.904 40.6693 368.79 41.5905 368.562 42.3652C368.335 43.1335 368.006 43.765 367.576 44.2598C367.153 44.748 366.648 45.1094 366.062 45.3438C365.477 45.5781 364.826 45.6953 364.109 45.6953C363.536 45.6953 363.003 45.6237 362.508 45.4805C362.013 45.3307 361.567 45.0996 361.17 44.7871C360.779 44.4746 360.441 44.0807 360.154 43.6055C359.874 43.1237 359.66 42.5508 359.51 41.8867C359.36 41.2227 359.285 40.4609 359.285 39.6016V37.1406C359.285 36.0729 359.399 35.1582 359.627 34.3965C359.861 33.6283 360.19 33 360.613 32.5117C361.043 32.0234 361.551 31.6654 362.137 31.4375C362.723 31.2031 363.374 31.0859 364.09 31.0859C364.663 31.0859 365.193 31.1608 365.682 31.3105C366.176 31.4538 366.622 31.6784 367.02 31.9844C367.417 32.2904 367.755 32.6842 368.035 33.166C368.315 33.6413 368.53 34.2109 368.68 34.875C368.829 35.5326 368.904 36.2878 368.904 37.1406ZM366.082 39.9727V36.7598C366.082 36.2454 366.053 35.7962 365.994 35.4121C365.942 35.028 365.861 34.7025 365.75 34.4355C365.639 34.1621 365.503 33.9408 365.34 33.7715C365.177 33.6022 364.992 33.4785 364.783 33.4004C364.575 33.3223 364.344 33.2832 364.09 33.2832C363.771 33.2832 363.488 33.3451 363.24 33.4688C362.999 33.5924 362.794 33.791 362.625 34.0645C362.456 34.3314 362.326 34.6895 362.234 35.1387C362.15 35.5814 362.107 36.1217 362.107 36.7598V39.9727C362.107 40.487 362.133 40.9395 362.186 41.3301C362.244 41.7207 362.329 42.056 362.439 42.3359C362.557 42.6094 362.693 42.834 362.85 43.0098C363.012 43.179 363.198 43.3027 363.406 43.3809C363.621 43.459 363.855 43.498 364.109 43.498C364.422 43.498 364.699 43.4362 364.939 43.3125C365.187 43.1823 365.395 42.9805 365.564 42.707C365.74 42.4271 365.87 42.0625 365.955 41.6133C366.04 41.1641 366.082 40.6172 366.082 39.9727ZM371.072 44.1426C371.072 43.7259 371.215 43.3776 371.502 43.0977C371.795 42.8177 372.182 42.6777 372.664 42.6777C373.146 42.6777 373.53 42.8177 373.816 43.0977C374.109 43.3776 374.256 43.7259 374.256 44.1426C374.256 44.5592 374.109 44.9076 373.816 45.1875C373.53 45.4674 373.146 45.6074 372.664 45.6074C372.182 45.6074 371.795 45.4674 371.502 45.1875C371.215 44.9076 371.072 44.5592 371.072 44.1426ZM383.875 31.1348H384.285V33.3809H384.119C383.377 33.3809 382.716 33.4915 382.137 33.7129C381.557 33.9342 381.066 34.25 380.662 34.6602C380.265 35.0638 379.959 35.5521 379.744 36.125C379.536 36.6979 379.432 37.3392 379.432 38.0488V40.4121C379.432 40.9199 379.48 41.3691 379.578 41.7598C379.682 42.1439 379.829 42.4661 380.018 42.7266C380.213 42.9805 380.441 43.1725 380.701 43.3027C380.962 43.4264 381.255 43.4883 381.58 43.4883C381.886 43.4883 382.163 43.4232 382.41 43.293C382.664 43.1628 382.879 42.9805 383.055 42.7461C383.237 42.5052 383.374 42.2253 383.465 41.9062C383.562 41.5807 383.611 41.2259 383.611 40.8418C383.611 40.4577 383.562 40.1029 383.465 39.7773C383.374 39.4518 383.237 39.1719 383.055 38.9375C382.872 38.6966 382.651 38.5111 382.391 38.3809C382.13 38.2507 381.837 38.1855 381.512 38.1855C381.069 38.1855 380.678 38.2897 380.34 38.498C380.008 38.6999 379.747 38.9603 379.559 39.2793C379.37 39.5983 379.269 39.9336 379.256 40.2852L378.406 39.7383C378.426 39.237 378.53 38.7617 378.719 38.3125C378.914 37.8633 379.181 37.4661 379.52 37.1211C379.865 36.7695 380.278 36.4961 380.76 36.3008C381.242 36.099 381.785 35.998 382.391 35.998C383.055 35.998 383.637 36.125 384.139 36.3789C384.646 36.6328 385.07 36.9811 385.408 37.4238C385.747 37.8665 386.001 38.3776 386.17 38.957C386.339 39.5365 386.424 40.1549 386.424 40.8125C386.424 41.5026 386.31 42.1439 386.082 42.7363C385.861 43.3288 385.538 43.8464 385.115 44.2891C384.699 44.7318 384.197 45.0768 383.611 45.3242C383.025 45.5716 382.368 45.6953 381.639 45.6953C380.883 45.6953 380.197 45.5586 379.578 45.2852C378.966 45.0052 378.439 44.6146 377.996 44.1133C377.553 43.612 377.212 43.0163 376.971 42.3262C376.736 41.6361 376.619 40.8809 376.619 40.0605V38.9668C376.619 37.821 376.785 36.7728 377.117 35.8223C377.456 34.8652 377.941 34.0384 378.572 33.3418C379.204 32.6387 379.965 32.0951 380.857 31.7109C381.749 31.3268 382.755 31.1348 383.875 31.1348ZM390.096 43.3613H390.281C391.062 43.3613 391.733 43.2669 392.293 43.0781C392.859 42.8828 393.325 42.6029 393.689 42.2383C394.054 41.8737 394.324 41.4277 394.5 40.9004C394.676 40.3665 394.764 39.7611 394.764 39.084V36.3887C394.764 35.8743 394.712 35.4219 394.607 35.0312C394.51 34.6406 394.367 34.3184 394.178 34.0645C393.995 33.804 393.781 33.6087 393.533 33.4785C393.292 33.3483 393.025 33.2832 392.732 33.2832C392.42 33.2832 392.143 33.3613 391.902 33.5176C391.661 33.6673 391.456 33.8724 391.287 34.1328C391.124 34.3932 390.997 34.6927 390.906 35.0312C390.822 35.3633 390.779 35.7116 390.779 36.0762C390.779 36.4408 390.822 36.7891 390.906 37.1211C390.991 37.4466 391.118 37.7363 391.287 37.9902C391.456 38.2376 391.668 38.4362 391.922 38.5859C392.176 38.7292 392.475 38.8008 392.82 38.8008C393.152 38.8008 393.449 38.7389 393.709 38.6152C393.976 38.485 394.201 38.3158 394.383 38.1074C394.572 37.8991 394.715 37.668 394.812 37.4141C394.917 37.1602 394.969 36.903 394.969 36.6426L395.896 37.1504C395.896 37.6061 395.799 38.0553 395.604 38.498C395.408 38.9408 395.135 39.3444 394.783 39.709C394.438 40.0671 394.038 40.3535 393.582 40.5684C393.126 40.7832 392.638 40.8906 392.117 40.8906C391.453 40.8906 390.864 40.7702 390.35 40.5293C389.835 40.2819 389.399 39.9434 389.041 39.5137C388.689 39.0775 388.423 38.5697 388.24 37.9902C388.058 37.4108 387.967 36.7826 387.967 36.1055C387.967 35.4154 388.077 34.7676 388.299 34.1621C388.527 33.5566 388.849 33.0228 389.266 32.5605C389.689 32.0983 390.193 31.737 390.779 31.4766C391.372 31.2096 392.029 31.0762 392.752 31.0762C393.475 31.0762 394.132 31.2161 394.725 31.4961C395.317 31.776 395.825 32.1732 396.248 32.6875C396.671 33.1953 396.997 33.804 397.225 34.5137C397.459 35.2233 397.576 36.0111 397.576 36.877V37.8535C397.576 38.778 397.475 39.6374 397.273 40.4316C397.078 41.2259 396.782 41.9453 396.385 42.5898C395.994 43.2279 395.506 43.7747 394.92 44.2305C394.34 44.6862 393.667 45.0345 392.898 45.2754C392.13 45.5163 391.271 45.6367 390.32 45.6367H390.096V43.3613Z" fill="white"/>
<defs>
<linearGradient id="paint0_linear_56_2668" x1="30.8" y1="17.2" x2="36.66" y2="31.5" gradientUnits="userSpaceOnUse">
<stop stop-color="#95F3FF"/>
<stop offset="1" stop-color="#95F3FF" stop-opacity="0"/>
</linearGradient>
<linearGradient id="paint1_linear_56_2668" x1="42.92" y1="45.4" x2="51.88" y2="60.9" gradientUnits="userSpaceOnUse">
<stop stop-color="#EFFFF9" stop-opacity="0"/>
<stop offset="1" stop-color="#EFFFF9"/>
</linearGradient>
<linearGradient id="paint2_linear_56_2668" x1="27.5622" y1="42.7518" x2="27.2615" y2="47.3192" gradientUnits="userSpaceOnUse">
<stop stop-color="#EFFFF9" stop-opacity="0"/>
<stop offset="1" stop-color="#EFFFF9"/>
</linearGradient>
<linearGradient id="paint3_linear_56_2668" x1="36.0675" y1="37.4925" x2="35.7669" y2="42.0599" gradientUnits="userSpaceOnUse">
<stop stop-color="#EFFFF9" stop-opacity="0"/>
<stop offset="1" stop-color="#EFFFF9"/>
</linearGradient>
<linearGradient id="paint4_linear_56_2668" x1="44.5729" y1="32.2333" x2="44.2723" y2="36.8007" gradientUnits="userSpaceOnUse">
<stop stop-color="#EFFFF9" stop-opacity="0"/>
<stop offset="1" stop-color="#EFFFF9"/>
</linearGradient>
<linearGradient id="paint5_linear_56_2668" x1="53.0782" y1="26.9742" x2="52.7776" y2="31.5417" gradientUnits="userSpaceOnUse">
<stop stop-color="#EFFFF9" stop-opacity="0"/>
<stop offset="1" stop-color="#EFFFF9"/>
</linearGradient>
<clipPath id="clip0_56_2668">
<rect x="20" y="19" width="40" height="40" rx="20" fill="white"/>
</clipPath>
<clipPath id="clip1_56_2668">
<rect width="40" height="40" fill="white" transform="translate(20 19)"/>
</clipPath>
<clipPath id="clip2_56_2668">
<rect width="20" height="40" fill="white" transform="translate(30 19)"/>
</clipPath>
<clipPath id="clip3_56_2668">
<rect width="130" height="36" fill="white" transform="translate(76 19)"/>
</clipPath>
<clipPath id="clip4_56_2668">
<rect width="130" height="14" fill="white" transform="translate(76 41)"/>
</clipPath>
<clipPath id="clip5_56_2668">
<rect width="20" height="20" fill="white" transform="translate(311 29)"/>
</clipPath>
</defs>
</svg>
