<svg width="11" height="13" viewBox="0 0 11 13" fill="none" xmlns="http://www.w3.org/2000/svg">
<path d="M6.88686 2.55523C7.26981 2.09066 7.53976 1.4566 7.53976 0.816249C7.53976 0.728359 7.53348 0.640468 7.52093 0.571411C6.89314 0.596523 6.13979 0.985753 5.69406 1.5131C5.33622 1.91488 5.00977 2.55523 5.00977 3.19557C5.00977 3.29602 5.0286 3.39019 5.03488 3.42158C5.07254 3.42786 5.13532 3.44041 5.20438 3.44041C5.76311 3.44041 6.46624 3.06374 6.88686 2.55523ZM7.32631 3.57225C6.3909 3.57225 5.625 4.14354 5.13532 4.14354C4.61426 4.14354 3.93624 3.60992 3.12012 3.60992C1.56948 3.60992 0 4.89061 0 7.30132C0 8.80802 0.577567 10.3963 1.29953 11.4196C1.91476 12.286 2.45466 12.9954 3.23312 12.9954C3.99902 12.9954 4.33803 12.4869 5.29227 12.4869C6.25907 12.4869 6.47879 12.9828 7.32631 12.9828C8.16755 12.9828 8.72628 12.2106 9.2599 11.451C9.85003 10.5784 10.1011 9.73087 10.1074 9.68692C10.0572 9.67437 8.45006 9.01519 8.45006 7.17576C8.45006 5.58118 9.71191 4.8655 9.78725 4.809C8.95229 3.60992 7.67787 3.57225 7.32631 3.57225Z" fill="#141414"/>
</svg>
