<svg width="490" height="316" viewBox="0 0 490 316" fill="none" xmlns="http://www.w3.org/2000/svg">
<g filter="url(#filter0_d_56_2570)">
<rect width="490" height="316" rx="7" fill="#141414"/>
<g clip-path="url(#clip0_56_2570)">
<g clip-path="url(#clip1_56_2570)">
<g clip-path="url(#clip2_56_2570)">
<rect x="33" y="77" width="40" height="40" rx="20" fill="white"/>
<g clip-path="url(#clip3_56_2570)">
<mask id="mask0_56_2570" style="mask-type:luminance" maskUnits="userSpaceOnUse" x="33" y="77" width="40" height="40">
<path d="M73 77H33V117H73V77Z" fill="white"/>
</mask>
<g mask="url(#mask0_56_2570)">
<path d="M73 77H33V117H73V77Z" fill="white"/>
<path d="M73 77H33V117H73V77Z" fill="#2C2C2C"/>
<path d="M43.78 91.32C51.6777 91.32 58.08 84.9176 58.08 77.02C58.08 69.1223 51.6777 62.72 43.78 62.72C35.8823 62.72 29.48 69.1223 29.48 77.02C29.48 84.9176 35.8823 91.32 43.78 91.32Z" fill="url(#paint0_linear_56_2570)"/>
<path d="M63.14 131.32C71.0376 131.32 77.44 124.918 77.44 117.02C77.44 109.122 71.0376 102.72 63.14 102.72C55.2423 102.72 48.84 109.122 48.84 117.02C48.84 124.918 55.2423 131.32 63.14 131.32Z" fill="url(#paint1_linear_56_2570)"/>
<g opacity="0.7">
<path opacity="0.6" d="M41.6261 106.208C42.8474 105.453 43.2253 103.85 42.4701 102.629C41.7149 101.408 40.1126 101.03 38.8913 101.785C37.67 102.54 37.2921 104.142 38.0473 105.364C38.8025 106.585 40.4048 106.963 41.6261 106.208Z" fill="url(#paint2_linear_56_2570)"/>
<path opacity="0.6" d="M50.1315 100.948C51.3528 100.193 51.7307 98.591 50.9755 97.3697C50.2203 96.1484 48.618 95.7705 47.3967 96.5257C46.1754 97.2809 45.7975 98.8831 46.5527 100.104C47.3079 101.326 48.9102 101.704 50.1315 100.948Z" fill="url(#paint3_linear_56_2570)"/>
<path opacity="0.6" d="M58.6368 95.6892C59.8582 94.934 60.236 93.3317 59.4808 92.1104C58.7257 90.8891 57.1234 90.5112 55.9021 91.2664C54.6807 92.0216 54.3029 93.6239 55.0581 94.8452C55.8132 96.0665 57.4155 96.4444 58.6368 95.6892Z" fill="url(#paint4_linear_56_2570)"/>
<path opacity="0.6" d="M67.1422 90.4301C68.3635 89.675 68.7413 88.0727 67.9862 86.8514C67.231 85.6301 65.6287 85.2522 64.4074 86.0074C63.1861 86.7626 62.8082 88.3648 63.5634 89.5861C64.3186 90.8075 65.9208 91.1853 67.1422 90.4301Z" fill="url(#paint5_linear_56_2570)"/>
</g>
</g>
</g>
<g clip-path="url(#clip4_56_2570)">
<path d="M47.5052 103.92V89.0837H52.7935C53.9429 89.0837 54.8968 89.2817 55.655 89.6778C56.4181 90.0738 56.988 90.6219 57.3647 91.3222C57.7414 92.0177 57.9297 92.8218 57.9297 93.7346C57.9297 94.6425 57.739 95.4418 57.3575 96.1325C56.9807 96.8183 56.4109 97.3519 55.6478 97.7335C54.8895 98.115 53.9357 98.3058 52.7863 98.3058H48.7802V96.3788H52.5834C53.3079 96.3788 53.8971 96.2749 54.3511 96.0673C54.8099 95.8596 55.1455 95.5577 55.358 95.1617C55.5705 94.7657 55.6767 94.29 55.6767 93.7346C55.6767 93.1744 55.5681 92.689 55.3508 92.2785C55.1383 91.868 54.8026 91.5541 54.3438 91.3367C53.8898 91.1146 53.2934 91.0035 52.5545 91.0035H49.7437V103.92H47.5052ZM54.8292 97.2263L58.4948 103.92H55.9448L52.3516 97.2263H54.8292Z" fill="white"/>
</g>
</g>
<g clip-path="url(#clip5_56_2570)">
<path d="M92.3457 88H90.5234L90.5352 86.834H92.3457C92.873 86.834 93.3145 86.7188 93.6699 86.4883C94.0293 86.2578 94.2988 85.9277 94.4785 85.498C94.6621 85.0684 94.7539 84.5566 94.7539 83.9629V83.5C94.7539 83.0391 94.7012 82.6309 94.5957 82.2754C94.4941 81.9199 94.3418 81.6211 94.1387 81.3789C93.9395 81.1367 93.6934 80.9531 93.4004 80.8281C93.1113 80.7031 92.7773 80.6406 92.3984 80.6406H90.4883V79.4688H92.3984C92.9648 79.4688 93.4824 79.5645 93.9512 79.7559C94.4199 79.9434 94.8242 80.2148 95.1641 80.5703C95.5078 80.9258 95.7715 81.3516 95.9551 81.8477C96.1387 82.3438 96.2305 82.8984 96.2305 83.5117V83.9629C96.2305 84.5762 96.1387 85.1309 95.9551 85.627C95.7715 86.123 95.5078 86.5488 95.1641 86.9043C94.8203 87.2559 94.4102 87.5273 93.9336 87.7188C93.4609 87.9062 92.9316 88 92.3457 88ZM91.3379 79.4688V88H89.8672V79.4688H91.3379ZM100.361 88.1172C99.8926 88.1172 99.4688 88.041 99.0898 87.8887C98.7148 87.7324 98.3945 87.5156 98.1289 87.2383C97.8672 86.9609 97.666 86.6348 97.5254 86.2598C97.3848 85.8848 97.3145 85.4805 97.3145 85.0469V84.8125C97.3145 84.3164 97.3867 83.8672 97.5312 83.4648C97.6758 83.0625 97.877 82.7188 98.1348 82.4336C98.3926 82.1445 98.6973 81.9238 99.0488 81.7715C99.4004 81.6191 99.7812 81.543 100.191 81.543C100.645 81.543 101.041 81.6191 101.381 81.7715C101.721 81.9238 102.002 82.1387 102.225 82.416C102.451 82.6895 102.619 83.0156 102.729 83.3945C102.842 83.7734 102.898 84.1914 102.898 84.6484V85.252H98V84.2383H101.504V84.127C101.496 83.873 101.445 83.6348 101.352 83.4121C101.262 83.1895 101.123 83.0098 100.936 82.873C100.748 82.7363 100.498 82.668 100.186 82.668C99.9512 82.668 99.7422 82.7188 99.5586 82.8203C99.3789 82.918 99.2285 83.0605 99.1074 83.248C98.9863 83.4355 98.8926 83.6621 98.8262 83.9277C98.7637 84.1895 98.7324 84.4844 98.7324 84.8125V85.0469C98.7324 85.3242 98.7695 85.582 98.8438 85.8203C98.9219 86.0547 99.0352 86.2598 99.1836 86.4355C99.332 86.6113 99.5117 86.75 99.7227 86.8516C99.9336 86.9492 100.174 86.998 100.443 86.998C100.783 86.998 101.086 86.9297 101.352 86.793C101.617 86.6562 101.848 86.4629 102.043 86.2129L102.787 86.9336C102.65 87.1328 102.473 87.3242 102.254 87.5078C102.035 87.6875 101.768 87.834 101.451 87.9473C101.139 88.0605 100.775 88.1172 100.361 88.1172ZM105.418 82.8789V90.4375H104.006V81.6602H105.307L105.418 82.8789ZM109.549 84.7715V84.8945C109.549 85.3555 109.494 85.7832 109.385 86.1777C109.279 86.5684 109.121 86.9102 108.91 87.2031C108.703 87.4922 108.447 87.7168 108.143 87.877C107.838 88.0371 107.486 88.1172 107.088 88.1172C106.693 88.1172 106.348 88.0449 106.051 87.9004C105.758 87.752 105.51 87.543 105.307 87.2734C105.104 87.0039 104.939 86.6875 104.814 86.3242C104.693 85.957 104.607 85.5547 104.557 85.1172V84.6426C104.607 84.1777 104.693 83.7559 104.814 83.377C104.939 82.998 105.104 82.6719 105.307 82.3984C105.51 82.125 105.758 81.9141 106.051 81.7656C106.344 81.6172 106.686 81.543 107.076 81.543C107.475 81.543 107.828 81.6211 108.137 81.7773C108.445 81.9297 108.705 82.1484 108.916 82.4336C109.127 82.7148 109.285 83.0547 109.391 83.4531C109.496 83.8477 109.549 84.2871 109.549 84.7715ZM108.137 84.8945V84.7715C108.137 84.4785 108.109 84.207 108.055 83.957C108 83.7031 107.914 83.4805 107.797 83.2891C107.68 83.0977 107.529 82.9492 107.346 82.8438C107.166 82.7344 106.949 82.6797 106.695 82.6797C106.445 82.6797 106.23 82.7227 106.051 82.8086C105.871 82.8906 105.721 83.0059 105.6 83.1543C105.479 83.3027 105.385 83.4766 105.318 83.6758C105.252 83.8711 105.205 84.084 105.178 84.3145V85.4512C105.225 85.7324 105.305 85.9902 105.418 86.2246C105.531 86.459 105.691 86.6465 105.898 86.7871C106.109 86.9238 106.379 86.9922 106.707 86.9922C106.961 86.9922 107.178 86.9375 107.357 86.8281C107.537 86.7188 107.684 86.5684 107.797 86.377C107.914 86.1816 108 85.957 108.055 85.7031C108.109 85.4492 108.137 85.1797 108.137 84.8945ZM110.48 84.9004V84.7656C110.48 84.3086 110.547 83.8848 110.68 83.4941C110.812 83.0996 111.004 82.7578 111.254 82.4688C111.508 82.1758 111.816 81.9492 112.18 81.7891C112.547 81.625 112.961 81.543 113.422 81.543C113.887 81.543 114.301 81.625 114.664 81.7891C115.031 81.9492 115.342 82.1758 115.596 82.4688C115.85 82.7578 116.043 83.0996 116.176 83.4941C116.309 83.8848 116.375 84.3086 116.375 84.7656V84.9004C116.375 85.3574 116.309 85.7812 116.176 86.1719C116.043 86.5625 115.85 86.9043 115.596 87.1973C115.342 87.4863 115.033 87.7129 114.67 87.877C114.307 88.0371 113.895 88.1172 113.434 88.1172C112.969 88.1172 112.553 88.0371 112.186 87.877C111.822 87.7129 111.514 87.4863 111.26 87.1973C111.006 86.9043 110.812 86.5625 110.68 86.1719C110.547 85.7812 110.48 85.3574 110.48 84.9004ZM111.893 84.7656V84.9004C111.893 85.1855 111.922 85.4551 111.98 85.709C112.039 85.9629 112.131 86.1855 112.256 86.377C112.381 86.5684 112.541 86.7188 112.736 86.8281C112.932 86.9375 113.164 86.9922 113.434 86.9922C113.695 86.9922 113.922 86.9375 114.113 86.8281C114.309 86.7188 114.469 86.5684 114.594 86.377C114.719 86.1855 114.811 85.9629 114.869 85.709C114.932 85.4551 114.963 85.1855 114.963 84.9004V84.7656C114.963 84.4844 114.932 84.2188 114.869 83.9688C114.811 83.7148 114.717 83.4902 114.588 83.2949C114.463 83.0996 114.303 82.9473 114.107 82.8379C113.916 82.7246 113.688 82.668 113.422 82.668C113.156 82.668 112.926 82.7246 112.73 82.8379C112.539 82.9473 112.381 83.0996 112.256 83.2949C112.131 83.4902 112.039 83.7148 111.98 83.9688C111.922 84.2188 111.893 84.4844 111.893 84.7656ZM121.115 86.2832C121.115 86.1426 121.08 86.0156 121.01 85.9023C120.939 85.7852 120.805 85.6797 120.605 85.5859C120.41 85.4922 120.121 85.4062 119.738 85.3281C119.402 85.2539 119.094 85.166 118.812 85.0645C118.535 84.959 118.297 84.832 118.098 84.6836C117.898 84.5352 117.744 84.3594 117.635 84.1562C117.525 83.9531 117.471 83.7188 117.471 83.4531C117.471 83.1953 117.527 82.9512 117.641 82.7207C117.754 82.4902 117.916 82.2871 118.127 82.1113C118.338 81.9355 118.594 81.7969 118.895 81.6953C119.199 81.5938 119.539 81.543 119.914 81.543C120.445 81.543 120.9 81.6328 121.279 81.8125C121.662 81.9883 121.955 82.2285 122.158 82.5332C122.361 82.834 122.463 83.1738 122.463 83.5527H121.051C121.051 83.3848 121.008 83.2285 120.922 83.084C120.84 82.9355 120.715 82.8164 120.547 82.7266C120.379 82.6328 120.168 82.5859 119.914 82.5859C119.672 82.5859 119.471 82.625 119.311 82.7031C119.154 82.7773 119.037 82.875 118.959 82.9961C118.885 83.1172 118.848 83.25 118.848 83.3945C118.848 83.5 118.867 83.5957 118.906 83.6816C118.949 83.7637 119.02 83.8398 119.117 83.9102C119.215 83.9766 119.348 84.0391 119.516 84.0977C119.688 84.1562 119.902 84.2129 120.16 84.2676C120.645 84.3691 121.061 84.5 121.408 84.6602C121.76 84.8164 122.029 85.0195 122.217 85.2695C122.404 85.5156 122.498 85.8281 122.498 86.207C122.498 86.4883 122.438 86.7461 122.316 86.9805C122.199 87.2109 122.027 87.4121 121.801 87.584C121.574 87.752 121.303 87.8828 120.986 87.9766C120.674 88.0703 120.322 88.1172 119.932 88.1172C119.357 88.1172 118.871 88.0156 118.473 87.8125C118.074 87.6055 117.771 87.3418 117.564 87.0215C117.361 86.6973 117.26 86.3613 117.26 86.0137H118.625C118.641 86.2754 118.713 86.4844 118.842 86.6406C118.975 86.793 119.139 86.9043 119.334 86.9746C119.533 87.041 119.738 87.0742 119.949 87.0742C120.203 87.0742 120.416 87.041 120.588 86.9746C120.76 86.9043 120.891 86.8105 120.98 86.6934C121.07 86.5723 121.115 86.4355 121.115 86.2832ZM125.246 81.6602V88H123.828V81.6602H125.246ZM123.734 79.9961C123.734 79.7812 123.805 79.6035 123.945 79.4629C124.09 79.3184 124.289 79.2461 124.543 79.2461C124.793 79.2461 124.99 79.3184 125.135 79.4629C125.279 79.6035 125.352 79.7812 125.352 79.9961C125.352 80.207 125.279 80.3828 125.135 80.5234C124.99 80.6641 124.793 80.7344 124.543 80.7344C124.289 80.7344 124.09 80.6641 123.945 80.5234C123.805 80.3828 123.734 80.207 123.734 79.9961ZM129.699 81.6602V82.6914H126.125V81.6602H129.699ZM127.156 80.1074H128.568V86.248C128.568 86.4434 128.596 86.5938 128.65 86.6992C128.709 86.8008 128.789 86.8691 128.891 86.9043C128.992 86.9395 129.111 86.957 129.248 86.957C129.346 86.957 129.439 86.9512 129.529 86.9395C129.619 86.9277 129.691 86.916 129.746 86.9043L129.752 87.9824C129.635 88.0176 129.498 88.0488 129.342 88.0762C129.189 88.1035 129.014 88.1172 128.814 88.1172C128.49 88.1172 128.203 88.0605 127.953 87.9473C127.703 87.8301 127.508 87.6406 127.367 87.3789C127.227 87.1172 127.156 86.7695 127.156 86.3359V80.1074Z" fill="white"/>
<g clip-path="url(#clip6_56_2570)">
<rect x="89" y="97" width="45" height="16" rx="8" fill="white" fill-opacity="0.05"/>
<rect x="138" y="97" width="56" height="16" rx="8" fill="white" fill-opacity="0.05"/>
<rect x="198" y="97" width="35" height="16" rx="8" fill="white" fill-opacity="0.05"/>
<rect x="237" y="97" width="40" height="16" rx="8" fill="white" fill-opacity="0.05"/>
<rect x="281" y="97" width="76" height="16" rx="8" fill="white" fill-opacity="0.05"/>
<rect x="361" y="97" width="52" height="16" rx="8" fill="white" fill-opacity="0.05"/>
</g>
</g>
</g>
<g clip-path="url(#clip7_56_2570)">
<g clip-path="url(#clip8_56_2570)">
<rect x="33" y="141" width="40" height="40" rx="20" fill="white"/>
<g clip-path="url(#clip9_56_2570)">
<mask id="mask1_56_2570" style="mask-type:luminance" maskUnits="userSpaceOnUse" x="33" y="141" width="40" height="40">
<path d="M73 141H33V181H73V141Z" fill="white"/>
</mask>
<g mask="url(#mask1_56_2570)">
<path d="M73 141H33V181H73V141Z" fill="white"/>
<path d="M73 141H33V181H73V141Z" fill="#2C2C2C"/>
<path d="M43.78 155.32C51.6777 155.32 58.08 148.918 58.08 141.02C58.08 133.122 51.6777 126.72 43.78 126.72C35.8823 126.72 29.48 133.122 29.48 141.02C29.48 148.918 35.8823 155.32 43.78 155.32Z" fill="url(#paint6_linear_56_2570)"/>
<path d="M63.14 195.32C71.0376 195.32 77.44 188.918 77.44 181.02C77.44 173.122 71.0376 166.72 63.14 166.72C55.2423 166.72 48.84 173.122 48.84 181.02C48.84 188.918 55.2423 195.32 63.14 195.32Z" fill="url(#paint7_linear_56_2570)"/>
<g opacity="0.7">
<path opacity="0.6" d="M41.6261 170.208C42.8474 169.453 43.2253 167.85 42.4701 166.629C41.7149 165.408 40.1126 165.03 38.8913 165.785C37.67 166.54 37.2921 168.142 38.0473 169.364C38.8025 170.585 40.4048 170.963 41.6261 170.208Z" fill="url(#paint8_linear_56_2570)"/>
<path opacity="0.6" d="M50.1315 164.948C51.3528 164.193 51.7307 162.591 50.9755 161.37C50.2203 160.148 48.618 159.77 47.3967 160.526C46.1754 161.281 45.7975 162.883 46.5527 164.104C47.3079 165.326 48.9102 165.704 50.1315 164.948Z" fill="url(#paint9_linear_56_2570)"/>
<path opacity="0.6" d="M58.6368 159.689C59.8582 158.934 60.236 157.332 59.4808 156.11C58.7257 154.889 57.1234 154.511 55.9021 155.266C54.6807 156.022 54.3029 157.624 55.0581 158.845C55.8132 160.066 57.4155 160.444 58.6368 159.689Z" fill="url(#paint10_linear_56_2570)"/>
<path opacity="0.6" d="M67.1422 154.43C68.3635 153.675 68.7413 152.073 67.9862 150.851C67.231 149.63 65.6287 149.252 64.4074 150.007C63.1861 150.763 62.8082 152.365 63.5634 153.586C64.3186 154.807 65.9208 155.185 67.1422 154.43Z" fill="url(#paint11_linear_56_2570)"/>
</g>
</g>
</g>
<g clip-path="url(#clip10_56_2570)">
<path d="M47.5052 167.92V153.084H52.7935C53.9429 153.084 54.8968 153.282 55.655 153.678C56.4181 154.074 56.988 154.622 57.3647 155.322C57.7414 156.018 57.9297 156.822 57.9297 157.735C57.9297 158.643 57.739 159.442 57.3575 160.132C56.9807 160.818 56.4109 161.352 55.6478 161.733C54.8895 162.115 53.9357 162.306 52.7863 162.306H48.7802V160.379H52.5834C53.3079 160.379 53.8971 160.275 54.3511 160.067C54.8099 159.86 55.1455 159.558 55.358 159.162C55.5705 158.766 55.6767 158.29 55.6767 157.735C55.6767 157.174 55.5681 156.689 55.3508 156.278C55.1383 155.868 54.8026 155.554 54.3438 155.337C53.8898 155.115 53.2934 155.003 52.5545 155.003H49.7437V167.92H47.5052ZM54.8292 161.226L58.4948 167.92H55.9448L52.3516 161.226H54.8292Z" fill="white"/>
</g>
</g>
<g clip-path="url(#clip11_56_2570)">
<path d="M92.0059 150.084L93.7051 143.469H94.5957L94.4961 145.174L92.6797 152H91.7539L92.0059 150.084ZM90.7344 143.469L92.1113 150.031L92.2344 152H91.25L89.2754 143.469H90.7344ZM96.5234 150.014L97.8828 143.469H99.3477L97.373 152H96.3887L96.5234 150.014ZM94.9414 143.469L96.623 150.102L96.8691 152H95.9434L94.1562 145.174L94.0625 143.469H94.9414ZM101.809 145.66V152H100.391V145.66H101.809ZM100.297 143.996C100.297 143.781 100.367 143.604 100.508 143.463C100.652 143.318 100.852 143.246 101.105 143.246C101.355 143.246 101.553 143.318 101.697 143.463C101.842 143.604 101.914 143.781 101.914 143.996C101.914 144.207 101.842 144.383 101.697 144.523C101.553 144.664 101.355 144.734 101.105 144.734C100.852 144.734 100.652 144.664 100.508 144.523C100.367 144.383 100.297 144.207 100.297 143.996ZM106.262 145.66V146.691H102.688V145.66H106.262ZM103.719 144.107H105.131V150.248C105.131 150.443 105.158 150.594 105.213 150.699C105.271 150.801 105.352 150.869 105.453 150.904C105.555 150.939 105.674 150.957 105.811 150.957C105.908 150.957 106.002 150.951 106.092 150.939C106.182 150.928 106.254 150.916 106.309 150.904L106.314 151.982C106.197 152.018 106.061 152.049 105.904 152.076C105.752 152.104 105.576 152.117 105.377 152.117C105.053 152.117 104.766 152.061 104.516 151.947C104.266 151.83 104.07 151.641 103.93 151.379C103.789 151.117 103.719 150.77 103.719 150.336V144.107ZM108.746 143V152H107.34V143H108.746ZM108.5 148.596L108.043 148.59C108.047 148.152 108.107 147.748 108.225 147.377C108.346 147.006 108.514 146.684 108.729 146.41C108.947 146.133 109.209 145.92 109.514 145.771C109.818 145.619 110.156 145.543 110.527 145.543C110.84 145.543 111.121 145.586 111.371 145.672C111.625 145.758 111.844 145.896 112.027 146.088C112.211 146.275 112.35 146.521 112.443 146.826C112.541 147.127 112.59 147.494 112.59 147.928V152H111.172V147.916C111.172 147.611 111.127 147.369 111.037 147.189C110.951 147.01 110.824 146.881 110.656 146.803C110.488 146.721 110.283 146.68 110.041 146.68C109.787 146.68 109.562 146.73 109.367 146.832C109.176 146.934 109.016 147.072 108.887 147.248C108.758 147.424 108.66 147.627 108.594 147.857C108.531 148.088 108.5 148.334 108.5 148.596ZM117.887 150.688V143H119.305V152H118.021L117.887 150.688ZM113.762 148.9V148.777C113.762 148.297 113.818 147.859 113.932 147.465C114.045 147.066 114.209 146.725 114.424 146.439C114.639 146.15 114.9 145.93 115.209 145.777C115.518 145.621 115.865 145.543 116.252 145.543C116.635 145.543 116.971 145.617 117.26 145.766C117.549 145.914 117.795 146.127 117.998 146.404C118.201 146.678 118.363 147.006 118.484 147.389C118.605 147.768 118.691 148.189 118.742 148.654V149.047C118.691 149.5 118.605 149.914 118.484 150.289C118.363 150.664 118.201 150.988 117.998 151.262C117.795 151.535 117.547 151.746 117.254 151.895C116.965 152.043 116.627 152.117 116.24 152.117C115.857 152.117 115.512 152.037 115.203 151.877C114.898 151.717 114.639 151.492 114.424 151.203C114.209 150.914 114.045 150.574 113.932 150.184C113.818 149.789 113.762 149.361 113.762 148.9ZM115.174 148.777V148.9C115.174 149.189 115.199 149.459 115.25 149.709C115.305 149.959 115.389 150.18 115.502 150.371C115.615 150.559 115.762 150.707 115.941 150.816C116.125 150.922 116.344 150.975 116.598 150.975C116.918 150.975 117.182 150.904 117.389 150.764C117.596 150.623 117.758 150.434 117.875 150.195C117.996 149.953 118.078 149.684 118.121 149.387V148.326C118.098 148.096 118.049 147.881 117.975 147.682C117.904 147.482 117.809 147.309 117.688 147.16C117.566 147.008 117.416 146.891 117.236 146.809C117.061 146.723 116.852 146.68 116.609 146.68C116.352 146.68 116.133 146.734 115.953 146.844C115.773 146.953 115.625 147.104 115.508 147.295C115.395 147.486 115.311 147.709 115.256 147.963C115.201 148.217 115.174 148.488 115.174 148.777ZM122.199 146.867V152H120.787V145.66H122.135L122.199 146.867ZM124.139 145.619L124.127 146.932C124.041 146.916 123.947 146.904 123.846 146.896C123.748 146.889 123.65 146.885 123.553 146.885C123.311 146.885 123.098 146.92 122.914 146.99C122.73 147.057 122.576 147.154 122.451 147.283C122.33 147.408 122.236 147.561 122.17 147.74C122.104 147.92 122.064 148.121 122.053 148.344L121.73 148.367C121.73 147.969 121.77 147.6 121.848 147.26C121.926 146.92 122.043 146.621 122.199 146.363C122.359 146.105 122.559 145.904 122.797 145.76C123.039 145.615 123.318 145.543 123.635 145.543C123.721 145.543 123.812 145.551 123.91 145.566C124.012 145.582 124.088 145.6 124.139 145.619ZM128.387 150.729V147.705C128.387 147.479 128.346 147.283 128.264 147.119C128.182 146.955 128.057 146.828 127.889 146.738C127.725 146.648 127.518 146.604 127.268 146.604C127.037 146.604 126.838 146.643 126.67 146.721C126.502 146.799 126.371 146.904 126.277 147.037C126.184 147.17 126.137 147.32 126.137 147.488H124.73C124.73 147.238 124.791 146.996 124.912 146.762C125.033 146.527 125.209 146.318 125.439 146.135C125.67 145.951 125.945 145.807 126.266 145.701C126.586 145.596 126.945 145.543 127.344 145.543C127.82 145.543 128.242 145.623 128.609 145.783C128.98 145.943 129.271 146.186 129.482 146.51C129.697 146.83 129.805 147.232 129.805 147.717V150.535C129.805 150.824 129.824 151.084 129.863 151.314C129.906 151.541 129.967 151.738 130.045 151.906V152H128.598C128.531 151.848 128.479 151.654 128.439 151.42C128.404 151.182 128.387 150.951 128.387 150.729ZM128.592 148.145L128.604 149.018H127.59C127.328 149.018 127.098 149.043 126.898 149.094C126.699 149.141 126.533 149.211 126.4 149.305C126.268 149.398 126.168 149.512 126.102 149.645C126.035 149.777 126.002 149.928 126.002 150.096C126.002 150.264 126.041 150.418 126.119 150.559C126.197 150.695 126.311 150.803 126.459 150.881C126.611 150.959 126.795 150.998 127.01 150.998C127.299 150.998 127.551 150.939 127.766 150.822C127.984 150.701 128.156 150.555 128.281 150.383C128.406 150.207 128.473 150.041 128.48 149.885L128.938 150.512C128.891 150.672 128.811 150.844 128.697 151.027C128.584 151.211 128.436 151.387 128.252 151.555C128.072 151.719 127.855 151.854 127.602 151.959C127.352 152.064 127.062 152.117 126.734 152.117C126.32 152.117 125.951 152.035 125.627 151.871C125.303 151.703 125.049 151.479 124.865 151.197C124.682 150.912 124.59 150.59 124.59 150.23C124.59 149.895 124.652 149.598 124.777 149.34C124.906 149.078 125.094 148.859 125.34 148.684C125.59 148.508 125.895 148.375 126.254 148.285C126.613 148.191 127.023 148.145 127.484 148.145H128.592ZM133.004 150.594L134.469 145.66H135.371L135.125 147.137L133.648 152H132.84L133.004 150.594ZM132.143 145.66L133.285 150.617L133.379 152H132.477L130.76 145.66H132.143ZM136.742 150.559L137.85 145.66H139.227L137.516 152H136.613L136.742 150.559ZM135.523 145.66L136.971 150.535L137.152 152H136.344L134.85 147.131L134.604 145.66H135.523ZM143.762 150.729V147.705C143.762 147.479 143.721 147.283 143.639 147.119C143.557 146.955 143.432 146.828 143.264 146.738C143.1 146.648 142.893 146.604 142.643 146.604C142.412 146.604 142.213 146.643 142.045 146.721C141.877 146.799 141.746 146.904 141.652 147.037C141.559 147.17 141.512 147.32 141.512 147.488H140.105C140.105 147.238 140.166 146.996 140.287 146.762C140.408 146.527 140.584 146.318 140.814 146.135C141.045 145.951 141.32 145.807 141.641 145.701C141.961 145.596 142.32 145.543 142.719 145.543C143.195 145.543 143.617 145.623 143.984 145.783C144.355 145.943 144.646 146.186 144.857 146.51C145.072 146.83 145.18 147.232 145.18 147.717V150.535C145.18 150.824 145.199 151.084 145.238 151.314C145.281 151.541 145.342 151.738 145.42 151.906V152H143.973C143.906 151.848 143.854 151.654 143.814 151.42C143.779 151.182 143.762 150.951 143.762 150.729ZM143.967 148.145L143.979 149.018H142.965C142.703 149.018 142.473 149.043 142.273 149.094C142.074 149.141 141.908 149.211 141.775 149.305C141.643 149.398 141.543 149.512 141.477 149.645C141.41 149.777 141.377 149.928 141.377 150.096C141.377 150.264 141.416 150.418 141.494 150.559C141.572 150.695 141.686 150.803 141.834 150.881C141.986 150.959 142.17 150.998 142.385 150.998C142.674 150.998 142.926 150.939 143.141 150.822C143.359 150.701 143.531 150.555 143.656 150.383C143.781 150.207 143.848 150.041 143.855 149.885L144.312 150.512C144.266 150.672 144.186 150.844 144.072 151.027C143.959 151.211 143.811 151.387 143.627 151.555C143.447 151.719 143.23 151.854 142.977 151.959C142.727 152.064 142.438 152.117 142.109 152.117C141.695 152.117 141.326 152.035 141.002 151.871C140.678 151.703 140.424 151.479 140.24 151.197C140.057 150.912 139.965 150.59 139.965 150.23C139.965 149.895 140.027 149.598 140.152 149.34C140.281 149.078 140.469 148.859 140.715 148.684C140.965 148.508 141.27 148.375 141.629 148.285C141.988 148.191 142.398 148.145 142.859 148.145H143.967ZM148.168 143V152H146.75V143H148.168Z" fill="white"/>
<g clip-path="url(#clip12_56_2570)">
<rect x="89" y="161" width="33" height="16" rx="8" fill="white" fill-opacity="0.05"/>
<rect x="126" y="161" width="44" height="16" rx="8" fill="white" fill-opacity="0.05"/>
<rect x="174" y="161" width="64" height="16" rx="8" fill="white" fill-opacity="0.05"/>
<rect x="242" y="161" width="37" height="16" rx="8" fill="white" fill-opacity="0.05"/>
</g>
</g>
</g>
<g clip-path="url(#clip13_56_2570)">
<g clip-path="url(#clip14_56_2570)">
<rect x="33" y="205" width="40" height="40" rx="20" fill="white"/>
<g clip-path="url(#clip15_56_2570)">
<mask id="mask2_56_2570" style="mask-type:luminance" maskUnits="userSpaceOnUse" x="33" y="205" width="40" height="40">
<path d="M73 205H33V245H73V205Z" fill="white"/>
</mask>
<g mask="url(#mask2_56_2570)">
<path d="M73 205H33V245H73V205Z" fill="white"/>
<path d="M73 205H33V245H73V205Z" fill="#2C2C2C"/>
<path d="M43.78 219.32C51.6777 219.32 58.08 212.918 58.08 205.02C58.08 197.122 51.6777 190.72 43.78 190.72C35.8823 190.72 29.48 197.122 29.48 205.02C29.48 212.918 35.8823 219.32 43.78 219.32Z" fill="url(#paint12_linear_56_2570)"/>
<path d="M63.14 259.32C71.0376 259.32 77.44 252.918 77.44 245.02C77.44 237.122 71.0376 230.72 63.14 230.72C55.2423 230.72 48.84 237.122 48.84 245.02C48.84 252.918 55.2423 259.32 63.14 259.32Z" fill="url(#paint13_linear_56_2570)"/>
<g opacity="0.7">
<path opacity="0.6" d="M41.6262 234.208C42.8475 233.453 43.2253 231.85 42.4702 230.629C41.715 229.408 40.1127 229.03 38.8914 229.785C37.6701 230.54 37.2922 232.142 38.0474 233.364C38.8026 234.585 40.4048 234.963 41.6262 234.208Z" fill="url(#paint14_linear_56_2570)"/>
<path opacity="0.6" d="M50.1315 228.948C51.3528 228.193 51.7307 226.591 50.9755 225.37C50.2203 224.148 48.618 223.77 47.3967 224.526C46.1754 225.281 45.7975 226.883 46.5527 228.104C47.3079 229.326 48.9102 229.704 50.1315 228.948Z" fill="url(#paint15_linear_56_2570)"/>
<path opacity="0.6" d="M58.6368 223.689C59.8582 222.934 60.236 221.332 59.4808 220.11C58.7257 218.889 57.1234 218.511 55.9021 219.266C54.6807 220.022 54.3029 221.624 55.0581 222.845C55.8132 224.066 57.4155 224.444 58.6368 223.689Z" fill="url(#paint16_linear_56_2570)"/>
<path opacity="0.6" d="M67.1422 218.43C68.3635 217.675 68.7414 216.073 67.9862 214.851C67.231 213.63 65.6288 213.252 64.4074 214.007C63.1861 214.763 62.8082 216.365 63.5634 217.586C64.3186 218.807 65.9209 219.185 67.1422 218.43Z" fill="url(#paint17_linear_56_2570)"/>
</g>
</g>
</g>
<path d="M48.724 231.92H46.3478L51.6869 217.084H54.2731L59.6122 231.92H57.2361L53.0416 219.779H52.9257L48.724 231.92ZM49.1224 226.11H56.8304V227.994H49.1224V226.11Z" fill="white"/>
</g>
<g clip-path="url(#clip16_56_2570)">
<path d="M93.377 207.469V216H91.918V207.469H93.377ZM96.0547 207.469V208.641H89.2637V207.469H96.0547ZM98.0352 210.867V216H96.623V209.66H97.9707L98.0352 210.867ZM99.9746 209.619L99.9629 210.932C99.877 210.916 99.7832 210.904 99.6816 210.896C99.584 210.889 99.4863 210.885 99.3887 210.885C99.1465 210.885 98.9336 210.92 98.75 210.99C98.5664 211.057 98.4121 211.154 98.2871 211.283C98.166 211.408 98.0723 211.561 98.0059 211.74C97.9395 211.92 97.9004 212.121 97.8887 212.344L97.5664 212.367C97.5664 211.969 97.6055 211.6 97.6836 211.26C97.7617 210.92 97.8789 210.621 98.0352 210.363C98.1953 210.105 98.3945 209.904 98.6328 209.76C98.875 209.615 99.1543 209.543 99.4707 209.543C99.5566 209.543 99.6484 209.551 99.7461 209.566C99.8477 209.582 99.9238 209.6 99.9746 209.619ZM104.223 214.729V211.705C104.223 211.479 104.182 211.283 104.1 211.119C104.018 210.955 103.893 210.828 103.725 210.738C103.561 210.648 103.354 210.604 103.104 210.604C102.873 210.604 102.674 210.643 102.506 210.721C102.338 210.799 102.207 210.904 102.113 211.037C102.02 211.17 101.973 211.32 101.973 211.488H100.566C100.566 211.238 100.627 210.996 100.748 210.762C100.869 210.527 101.045 210.318 101.275 210.135C101.506 209.951 101.781 209.807 102.102 209.701C102.422 209.596 102.781 209.543 103.18 209.543C103.656 209.543 104.078 209.623 104.445 209.783C104.816 209.943 105.107 210.186 105.318 210.51C105.533 210.83 105.641 211.232 105.641 211.717V214.535C105.641 214.824 105.66 215.084 105.699 215.314C105.742 215.541 105.803 215.738 105.881 215.906V216H104.434C104.367 215.848 104.314 215.654 104.275 215.42C104.24 215.182 104.223 214.951 104.223 214.729ZM104.428 212.145L104.439 213.018H103.426C103.164 213.018 102.934 213.043 102.734 213.094C102.535 213.141 102.369 213.211 102.236 213.305C102.104 213.398 102.004 213.512 101.938 213.645C101.871 213.777 101.838 213.928 101.838 214.096C101.838 214.264 101.877 214.418 101.955 214.559C102.033 214.695 102.146 214.803 102.295 214.881C102.447 214.959 102.631 214.998 102.846 214.998C103.135 214.998 103.387 214.939 103.602 214.822C103.82 214.701 103.992 214.555 104.117 214.383C104.242 214.207 104.309 214.041 104.316 213.885L104.773 214.512C104.727 214.672 104.646 214.844 104.533 215.027C104.42 215.211 104.271 215.387 104.088 215.555C103.908 215.719 103.691 215.854 103.438 215.959C103.188 216.064 102.898 216.117 102.57 216.117C102.156 216.117 101.787 216.035 101.463 215.871C101.139 215.703 100.885 215.479 100.701 215.197C100.518 214.912 100.426 214.59 100.426 214.23C100.426 213.895 100.488 213.598 100.613 213.34C100.742 213.078 100.93 212.859 101.176 212.684C101.426 212.508 101.73 212.375 102.09 212.285C102.449 212.191 102.859 212.145 103.32 212.145H104.428ZM108.518 211.014V216H107.105V209.66H108.436L108.518 211.014ZM108.266 212.596L107.809 212.59C107.812 212.141 107.875 211.729 107.996 211.354C108.121 210.979 108.293 210.656 108.512 210.387C108.734 210.117 109 209.91 109.309 209.766C109.617 209.617 109.961 209.543 110.34 209.543C110.645 209.543 110.92 209.586 111.166 209.672C111.416 209.754 111.629 209.889 111.805 210.076C111.984 210.264 112.121 210.508 112.215 210.809C112.309 211.105 112.355 211.471 112.355 211.904V216H110.938V211.898C110.938 211.594 110.893 211.354 110.803 211.178C110.717 210.998 110.59 210.871 110.422 210.797C110.258 210.719 110.053 210.68 109.807 210.68C109.564 210.68 109.348 210.73 109.156 210.832C108.965 210.934 108.803 211.072 108.67 211.248C108.541 211.424 108.441 211.627 108.371 211.857C108.301 212.088 108.266 212.334 108.266 212.596ZM117.354 214.283C117.354 214.143 117.318 214.016 117.248 213.902C117.178 213.785 117.043 213.68 116.844 213.586C116.648 213.492 116.359 213.406 115.977 213.328C115.641 213.254 115.332 213.166 115.051 213.064C114.773 212.959 114.535 212.832 114.336 212.684C114.137 212.535 113.982 212.359 113.873 212.156C113.764 211.953 113.709 211.719 113.709 211.453C113.709 211.195 113.766 210.951 113.879 210.721C113.992 210.49 114.154 210.287 114.365 210.111C114.576 209.936 114.832 209.797 115.133 209.695C115.438 209.594 115.777 209.543 116.152 209.543C116.684 209.543 117.139 209.633 117.518 209.812C117.9 209.988 118.193 210.229 118.396 210.533C118.6 210.834 118.701 211.174 118.701 211.553H117.289C117.289 211.385 117.246 211.229 117.16 211.084C117.078 210.936 116.953 210.816 116.785 210.727C116.617 210.633 116.406 210.586 116.152 210.586C115.91 210.586 115.709 210.625 115.549 210.703C115.393 210.777 115.275 210.875 115.197 210.996C115.123 211.117 115.086 211.25 115.086 211.395C115.086 211.5 115.105 211.596 115.145 211.682C115.188 211.764 115.258 211.84 115.355 211.91C115.453 211.977 115.586 212.039 115.754 212.098C115.926 212.156 116.141 212.213 116.398 212.268C116.883 212.369 117.299 212.5 117.646 212.66C117.998 212.816 118.268 213.02 118.455 213.27C118.643 213.516 118.736 213.828 118.736 214.207C118.736 214.488 118.676 214.746 118.555 214.98C118.438 215.211 118.266 215.412 118.039 215.584C117.812 215.752 117.541 215.883 117.225 215.977C116.912 216.07 116.561 216.117 116.17 216.117C115.596 216.117 115.109 216.016 114.711 215.812C114.312 215.605 114.01 215.342 113.803 215.021C113.6 214.697 113.498 214.361 113.498 214.014H114.863C114.879 214.275 114.951 214.484 115.08 214.641C115.213 214.793 115.377 214.904 115.572 214.975C115.771 215.041 115.977 215.074 116.188 215.074C116.441 215.074 116.654 215.041 116.826 214.975C116.998 214.904 117.129 214.811 117.219 214.693C117.309 214.572 117.354 214.436 117.354 214.283ZM121.883 216H120.471V209.051C120.471 208.578 120.559 208.182 120.734 207.861C120.914 207.537 121.17 207.293 121.502 207.129C121.834 206.961 122.227 206.877 122.68 206.877C122.82 206.877 122.959 206.887 123.096 206.906C123.232 206.922 123.365 206.947 123.494 206.982L123.459 208.072C123.381 208.053 123.295 208.039 123.201 208.031C123.111 208.023 123.014 208.02 122.908 208.02C122.693 208.02 122.508 208.061 122.352 208.143C122.199 208.221 122.082 208.336 122 208.488C121.922 208.641 121.883 208.828 121.883 209.051V216ZM123.189 209.66V210.691H119.498V209.66H123.189ZM126.869 216.117C126.4 216.117 125.977 216.041 125.598 215.889C125.223 215.732 124.902 215.516 124.637 215.238C124.375 214.961 124.174 214.635 124.033 214.26C123.893 213.885 123.822 213.48 123.822 213.047V212.812C123.822 212.316 123.895 211.867 124.039 211.465C124.184 211.062 124.385 210.719 124.643 210.434C124.9 210.145 125.205 209.924 125.557 209.771C125.908 209.619 126.289 209.543 126.699 209.543C127.152 209.543 127.549 209.619 127.889 209.771C128.229 209.924 128.51 210.139 128.732 210.416C128.959 210.689 129.127 211.016 129.236 211.395C129.35 211.773 129.406 212.191 129.406 212.648V213.252H124.508V212.238H128.012V212.127C128.004 211.873 127.953 211.635 127.859 211.412C127.77 211.189 127.631 211.01 127.443 210.873C127.256 210.736 127.006 210.668 126.693 210.668C126.459 210.668 126.25 210.719 126.066 210.82C125.887 210.918 125.736 211.061 125.615 211.248C125.494 211.436 125.4 211.662 125.334 211.928C125.271 212.189 125.24 212.484 125.24 212.812V213.047C125.24 213.324 125.277 213.582 125.352 213.82C125.43 214.055 125.543 214.26 125.691 214.436C125.84 214.611 126.02 214.75 126.23 214.852C126.441 214.949 126.682 214.998 126.951 214.998C127.291 214.998 127.594 214.93 127.859 214.793C128.125 214.656 128.355 214.463 128.551 214.213L129.295 214.934C129.158 215.133 128.98 215.324 128.762 215.508C128.543 215.688 128.275 215.834 127.959 215.947C127.646 216.061 127.283 216.117 126.869 216.117ZM131.926 210.867V216H130.514V209.66H131.861L131.926 210.867ZM133.865 209.619L133.854 210.932C133.768 210.916 133.674 210.904 133.572 210.896C133.475 210.889 133.377 210.885 133.279 210.885C133.037 210.885 132.824 210.92 132.641 210.99C132.457 211.057 132.303 211.154 132.178 211.283C132.057 211.408 131.963 211.561 131.896 211.74C131.83 211.92 131.791 212.121 131.779 212.344L131.457 212.367C131.457 211.969 131.496 211.6 131.574 211.26C131.652 210.92 131.77 210.621 131.926 210.363C132.086 210.105 132.285 209.904 132.523 209.76C132.766 209.615 133.045 209.543 133.361 209.543C133.447 209.543 133.539 209.551 133.637 209.566C133.738 209.582 133.814 209.6 133.865 209.619ZM139.156 210.867V216H137.744V209.66H139.092L139.156 210.867ZM141.096 209.619L141.084 210.932C140.998 210.916 140.904 210.904 140.803 210.896C140.705 210.889 140.607 210.885 140.51 210.885C140.268 210.885 140.055 210.92 139.871 210.99C139.688 211.057 139.533 211.154 139.408 211.283C139.287 211.408 139.193 211.561 139.127 211.74C139.061 211.92 139.021 212.121 139.01 212.344L138.688 212.367C138.688 211.969 138.727 211.6 138.805 211.26C138.883 210.92 139 210.621 139.156 210.363C139.316 210.105 139.516 209.904 139.754 209.76C139.996 209.615 140.275 209.543 140.592 209.543C140.678 209.543 140.77 209.551 140.867 209.566C140.969 209.582 141.045 209.6 141.096 209.619ZM144.658 216.117C144.189 216.117 143.766 216.041 143.387 215.889C143.012 215.732 142.691 215.516 142.426 215.238C142.164 214.961 141.963 214.635 141.822 214.26C141.682 213.885 141.611 213.48 141.611 213.047V212.812C141.611 212.316 141.684 211.867 141.828 211.465C141.973 211.062 142.174 210.719 142.432 210.434C142.689 210.145 142.994 209.924 143.346 209.771C143.697 209.619 144.078 209.543 144.488 209.543C144.941 209.543 145.338 209.619 145.678 209.771C146.018 209.924 146.299 210.139 146.521 210.416C146.748 210.689 146.916 211.016 147.025 211.395C147.139 211.773 147.195 212.191 147.195 212.648V213.252H142.297V212.238H145.801V212.127C145.793 211.873 145.742 211.635 145.648 211.412C145.559 211.189 145.42 211.01 145.232 210.873C145.045 210.736 144.795 210.668 144.482 210.668C144.248 210.668 144.039 210.719 143.855 210.82C143.676 210.918 143.525 211.061 143.404 211.248C143.283 211.436 143.189 211.662 143.123 211.928C143.061 212.189 143.029 212.484 143.029 212.812V213.047C143.029 213.324 143.066 213.582 143.141 213.82C143.219 214.055 143.332 214.26 143.48 214.436C143.629 214.611 143.809 214.75 144.02 214.852C144.23 214.949 144.471 214.998 144.74 214.998C145.08 214.998 145.383 214.93 145.648 214.793C145.914 214.656 146.145 214.463 146.34 214.213L147.084 214.934C146.947 215.133 146.77 215.324 146.551 215.508C146.332 215.688 146.064 215.834 145.748 215.947C145.436 216.061 145.072 216.117 144.658 216.117ZM150.887 214.992C151.117 214.992 151.324 214.947 151.508 214.857C151.695 214.764 151.846 214.635 151.959 214.471C152.076 214.307 152.141 214.117 152.152 213.902H153.482C153.475 214.312 153.354 214.686 153.119 215.021C152.885 215.357 152.574 215.625 152.188 215.824C151.801 216.02 151.373 216.117 150.904 216.117C150.42 216.117 149.998 216.035 149.639 215.871C149.279 215.703 148.98 215.473 148.742 215.18C148.504 214.887 148.324 214.549 148.203 214.166C148.086 213.783 148.027 213.373 148.027 212.936V212.73C148.027 212.293 148.086 211.883 148.203 211.5C148.324 211.113 148.504 210.773 148.742 210.48C148.98 210.188 149.279 209.959 149.639 209.795C149.998 209.627 150.418 209.543 150.898 209.543C151.406 209.543 151.852 209.645 152.234 209.848C152.617 210.047 152.918 210.326 153.137 210.686C153.359 211.041 153.475 211.455 153.482 211.928H152.152C152.141 211.693 152.082 211.482 151.977 211.295C151.875 211.104 151.73 210.951 151.543 210.838C151.359 210.725 151.139 210.668 150.881 210.668C150.596 210.668 150.359 210.727 150.172 210.844C149.984 210.957 149.838 211.113 149.732 211.312C149.627 211.508 149.551 211.729 149.504 211.975C149.461 212.217 149.439 212.469 149.439 212.73V212.936C149.439 213.197 149.461 213.451 149.504 213.697C149.547 213.943 149.621 214.164 149.727 214.359C149.836 214.551 149.984 214.705 150.172 214.822C150.359 214.936 150.598 214.992 150.887 214.992ZM157.361 216.117C156.893 216.117 156.469 216.041 156.09 215.889C155.715 215.732 155.395 215.516 155.129 215.238C154.867 214.961 154.666 214.635 154.525 214.26C154.385 213.885 154.314 213.48 154.314 213.047V212.812C154.314 212.316 154.387 211.867 154.531 211.465C154.676 211.062 154.877 210.719 155.135 210.434C155.393 210.145 155.697 209.924 156.049 209.771C156.4 209.619 156.781 209.543 157.191 209.543C157.645 209.543 158.041 209.619 158.381 209.771C158.721 209.924 159.002 210.139 159.225 210.416C159.451 210.689 159.619 211.016 159.729 211.395C159.842 211.773 159.898 212.191 159.898 212.648V213.252H155V212.238H158.504V212.127C158.496 211.873 158.445 211.635 158.352 211.412C158.262 211.189 158.123 211.01 157.936 210.873C157.748 210.736 157.498 210.668 157.186 210.668C156.951 210.668 156.742 210.719 156.559 210.82C156.379 210.918 156.229 211.061 156.107 211.248C155.986 211.436 155.893 211.662 155.826 211.928C155.764 212.189 155.732 212.484 155.732 212.812V213.047C155.732 213.324 155.77 213.582 155.844 213.82C155.922 214.055 156.035 214.26 156.184 214.436C156.332 214.611 156.512 214.75 156.723 214.852C156.934 214.949 157.174 214.998 157.443 214.998C157.783 214.998 158.086 214.93 158.352 214.793C158.617 214.656 158.848 214.463 159.043 214.213L159.787 214.934C159.65 215.133 159.473 215.324 159.254 215.508C159.035 215.688 158.768 215.834 158.451 215.947C158.139 216.061 157.775 216.117 157.361 216.117ZM162.512 209.66V216H161.094V209.66H162.512ZM161 207.996C161 207.781 161.07 207.604 161.211 207.463C161.355 207.318 161.555 207.246 161.809 207.246C162.059 207.246 162.256 207.318 162.4 207.463C162.545 207.604 162.617 207.781 162.617 207.996C162.617 208.207 162.545 208.383 162.4 208.523C162.256 208.664 162.059 208.734 161.809 208.734C161.555 208.734 161.355 208.664 161.211 208.523C161.07 208.383 161 208.207 161 207.996ZM166.121 214.881L167.674 209.66H169.139L166.936 216H166.021L166.121 214.881ZM164.932 209.66L166.514 214.904L166.59 216H165.676L163.461 209.66H164.932ZM172.725 216.117C172.256 216.117 171.832 216.041 171.453 215.889C171.078 215.732 170.758 215.516 170.492 215.238C170.23 214.961 170.029 214.635 169.889 214.26C169.748 213.885 169.678 213.48 169.678 213.047V212.812C169.678 212.316 169.75 211.867 169.895 211.465C170.039 211.062 170.24 210.719 170.498 210.434C170.756 210.145 171.061 209.924 171.412 209.771C171.764 209.619 172.145 209.543 172.555 209.543C173.008 209.543 173.404 209.619 173.744 209.771C174.084 209.924 174.365 210.139 174.588 210.416C174.814 210.689 174.982 211.016 175.092 211.395C175.205 211.773 175.262 212.191 175.262 212.648V213.252H170.363V212.238H173.867V212.127C173.859 211.873 173.809 211.635 173.715 211.412C173.625 211.189 173.486 211.01 173.299 210.873C173.111 210.736 172.861 210.668 172.549 210.668C172.314 210.668 172.105 210.719 171.922 210.82C171.742 210.918 171.592 211.061 171.471 211.248C171.35 211.436 171.256 211.662 171.189 211.928C171.127 212.189 171.096 212.484 171.096 212.812V213.047C171.096 213.324 171.133 213.582 171.207 213.82C171.285 214.055 171.398 214.26 171.547 214.436C171.695 214.611 171.875 214.75 172.086 214.852C172.297 214.949 172.537 214.998 172.807 214.998C173.146 214.998 173.449 214.93 173.715 214.793C173.98 214.656 174.211 214.463 174.406 214.213L175.15 214.934C175.014 215.133 174.836 215.324 174.617 215.508C174.398 215.688 174.131 215.834 173.814 215.947C173.502 216.061 173.139 216.117 172.725 216.117ZM180.23 214.688V207H181.648V216H180.365L180.23 214.688ZM176.105 212.9V212.777C176.105 212.297 176.162 211.859 176.275 211.465C176.389 211.066 176.553 210.725 176.768 210.439C176.982 210.15 177.244 209.93 177.553 209.777C177.861 209.621 178.209 209.543 178.596 209.543C178.979 209.543 179.314 209.617 179.604 209.766C179.893 209.914 180.139 210.127 180.342 210.404C180.545 210.678 180.707 211.006 180.828 211.389C180.949 211.768 181.035 212.189 181.086 212.654V213.047C181.035 213.5 180.949 213.914 180.828 214.289C180.707 214.664 180.545 214.988 180.342 215.262C180.139 215.535 179.891 215.746 179.598 215.895C179.309 216.043 178.971 216.117 178.584 216.117C178.201 216.117 177.855 216.037 177.547 215.877C177.242 215.717 176.982 215.492 176.768 215.203C176.553 214.914 176.389 214.574 176.275 214.184C176.162 213.789 176.105 213.361 176.105 212.9ZM177.518 212.777V212.9C177.518 213.189 177.543 213.459 177.594 213.709C177.648 213.959 177.732 214.18 177.846 214.371C177.959 214.559 178.105 214.707 178.285 214.816C178.469 214.922 178.688 214.975 178.941 214.975C179.262 214.975 179.525 214.904 179.732 214.764C179.939 214.623 180.102 214.434 180.219 214.195C180.34 213.953 180.422 213.684 180.465 213.387V212.326C180.441 212.096 180.393 211.881 180.318 211.682C180.248 211.482 180.152 211.309 180.031 211.16C179.91 211.008 179.76 210.891 179.58 210.809C179.404 210.723 179.195 210.68 178.953 210.68C178.695 210.68 178.477 210.734 178.297 210.844C178.117 210.953 177.969 211.104 177.852 211.295C177.738 211.486 177.654 211.709 177.6 211.963C177.545 212.217 177.518 212.488 177.518 212.777Z" fill="white"/>
<g clip-path="url(#clip17_56_2570)">
<rect x="89" y="225" width="57" height="16" rx="8" fill="white" fill-opacity="0.05"/>
<rect x="150" y="225" width="53" height="16" rx="8" fill="white" fill-opacity="0.05"/>
<rect x="207" y="225" width="55" height="16" rx="8" fill="white" fill-opacity="0.05"/>
<rect x="266" y="225" width="75" height="16" rx="8" fill="white" fill-opacity="0.05"/>
<rect x="345" y="225" width="74" height="16" rx="8" fill="white" fill-opacity="0.05"/>
<rect x="423" y="225" width="33" height="16" rx="8" fill="white" fill-opacity="0.05"/>
</g>
<g clip-path="url(#clip18_56_2570)">
<rect x="89" y="247" width="36" height="16" rx="8" fill="white" fill-opacity="0.05"/>
<rect x="129" y="247" width="80" height="16" rx="8" fill="white" fill-opacity="0.05"/>
<rect x="213" y="247" width="60" height="16" rx="8" fill="white" fill-opacity="0.05"/>
<rect x="277" y="247" width="35" height="16" rx="8" fill="white" fill-opacity="0.05"/>
<rect x="316" y="247" width="68" height="16" rx="8" fill="white" fill-opacity="0.05"/>
</g>
<g clip-path="url(#clip19_56_2570)">
<rect x="89" y="269" width="77" height="16" rx="8" fill="white" fill-opacity="0.05"/>
<rect x="170" y="269" width="39" height="16" rx="8" fill="white" fill-opacity="0.05"/>
<rect x="213" y="269" width="59" height="16" rx="8" fill="white" fill-opacity="0.05"/>
<rect x="276" y="269" width="73" height="16" rx="8" fill="white" fill-opacity="0.05"/>
<rect x="353" y="269" width="69" height="16" rx="8" fill="white" fill-opacity="0.05"/>
</g>
</g>
</g>
</g>
<path d="M41.3789 27.2109L36.2812 42H33.1992L39.6211 24.9375H41.5898L41.3789 27.2109ZM45.6445 42L40.5352 27.2109L40.3125 24.9375H42.293L48.7383 42H45.6445ZM45.3984 35.6719V38.0039H36.1172V35.6719H45.3984ZM55.5469 39.9844C56.0078 39.9844 56.4219 39.8945 56.7891 39.7148C57.1641 39.5273 57.4648 39.2695 57.6914 38.9414C57.9258 38.6133 58.0547 38.2344 58.0781 37.8047H60.7383C60.7227 38.625 60.4805 39.3711 60.0117 40.043C59.543 40.7148 58.9219 41.25 58.1484 41.6484C57.375 42.0391 56.5195 42.2344 55.582 42.2344C54.6133 42.2344 53.7695 42.0703 53.0508 41.7422C52.332 41.4062 51.7344 40.9453 51.2578 40.3594C50.7812 39.7734 50.4219 39.0977 50.1797 38.332C49.9453 37.5664 49.8281 36.7461 49.8281 35.8711V35.4609C49.8281 34.5859 49.9453 33.7656 50.1797 33C50.4219 32.2266 50.7812 31.5469 51.2578 30.9609C51.7344 30.375 52.332 29.918 53.0508 29.5898C53.7695 29.2539 54.6094 29.0859 55.5703 29.0859C56.5859 29.0859 57.4766 29.2891 58.2422 29.6953C59.0078 30.0938 59.6094 30.6523 60.0469 31.3711C60.4922 32.082 60.7227 32.9102 60.7383 33.8555H58.0781C58.0547 33.3867 57.9375 32.9648 57.7266 32.5898C57.5234 32.207 57.2344 31.9023 56.8594 31.6758C56.4922 31.4492 56.0508 31.3359 55.5352 31.3359C54.9648 31.3359 54.4922 31.4531 54.1172 31.6875C53.7422 31.9141 53.4492 32.2266 53.2383 32.625C53.0273 33.0156 52.875 33.457 52.7812 33.9492C52.6953 34.4336 52.6523 34.9375 52.6523 35.4609V35.8711C52.6523 36.3945 52.6953 36.9023 52.7812 37.3945C52.8672 37.8867 53.0156 38.3281 53.2266 38.7188C53.4453 39.1016 53.7422 39.4102 54.1172 39.6445C54.4922 39.8711 54.9688 39.9844 55.5469 39.9844ZM68.7188 29.3203V31.3828H61.5703V29.3203H68.7188ZM63.6328 26.2148H66.457V38.4961C66.457 38.8867 66.5117 39.1875 66.6211 39.3984C66.7383 39.6016 66.8984 39.7383 67.1016 39.8086C67.3047 39.8789 67.543 39.9141 67.8164 39.9141C68.0117 39.9141 68.1992 39.9023 68.3789 39.8789C68.5586 39.8555 68.7031 39.832 68.8125 39.8086L68.8242 41.9648C68.5898 42.0352 68.3164 42.0977 68.0039 42.1523C67.6992 42.207 67.3477 42.2344 66.9492 42.2344C66.3008 42.2344 65.7266 42.1211 65.2266 41.8945C64.7266 41.6602 64.3359 41.2812 64.0547 40.7578C63.7734 40.2344 63.6328 39.5391 63.6328 38.6719V26.2148ZM73.9219 29.3203V42H71.0859V29.3203H73.9219ZM70.8984 25.9922C70.8984 25.5625 71.0391 25.207 71.3203 24.9258C71.6094 24.6367 72.0078 24.4922 72.5156 24.4922C73.0156 24.4922 73.4102 24.6367 73.6992 24.9258C73.9883 25.207 74.1328 25.5625 74.1328 25.9922C74.1328 26.4141 73.9883 26.7656 73.6992 27.0469C73.4102 27.3281 73.0156 27.4688 72.5156 27.4688C72.0078 27.4688 71.6094 27.3281 71.3203 27.0469C71.0391 26.7656 70.8984 26.4141 70.8984 25.9922ZM81.1406 39.7617L84.2461 29.3203H87.1758L82.7695 42H80.9414L81.1406 39.7617ZM78.7617 29.3203L81.9258 39.8086L82.0781 42H80.25L75.8203 29.3203H78.7617ZM91.9453 29.3203V42H89.1094V29.3203H91.9453ZM88.9219 25.9922C88.9219 25.5625 89.0625 25.207 89.3438 24.9258C89.6328 24.6367 90.0312 24.4922 90.5391 24.4922C91.0391 24.4922 91.4336 24.6367 91.7227 24.9258C92.0117 25.207 92.1562 25.5625 92.1562 25.9922C92.1562 26.4141 92.0117 26.7656 91.7227 27.0469C91.4336 27.3281 91.0391 27.4688 90.5391 27.4688C90.0312 27.4688 89.6328 27.3281 89.3438 27.0469C89.0625 26.7656 88.9219 26.4141 88.9219 25.9922ZM100.852 29.3203V31.3828H93.7031V29.3203H100.852ZM95.7656 26.2148H98.5898V38.4961C98.5898 38.8867 98.6445 39.1875 98.7539 39.3984C98.8711 39.6016 99.0312 39.7383 99.2344 39.8086C99.4375 39.8789 99.6758 39.9141 99.9492 39.9141C100.145 39.9141 100.332 39.9023 100.512 39.8789C100.691 39.8555 100.836 39.832 100.945 39.8086L100.957 41.9648C100.723 42.0352 100.449 42.0977 100.137 42.1523C99.832 42.207 99.4805 42.2344 99.082 42.2344C98.4336 42.2344 97.8594 42.1211 97.3594 41.8945C96.8594 41.6602 96.4688 41.2812 96.1875 40.7578C95.9062 40.2344 95.7656 39.5391 95.7656 38.6719V26.2148ZM106.711 40.6172L110.156 29.3203H113.18L108.094 43.9336C107.977 44.2461 107.824 44.5859 107.637 44.9531C107.449 45.3203 107.203 45.668 106.898 45.9961C106.602 46.332 106.23 46.6016 105.785 46.8047C105.34 47.0156 104.801 47.1211 104.168 47.1211C103.918 47.1211 103.676 47.0977 103.441 47.0508C103.215 47.0117 103 46.9688 102.797 46.9219L102.785 44.7656C102.863 44.7734 102.957 44.7812 103.066 44.7891C103.184 44.7969 103.277 44.8008 103.348 44.8008C103.816 44.8008 104.207 44.7422 104.52 44.625C104.832 44.5156 105.086 44.3359 105.281 44.0859C105.484 43.8359 105.656 43.5 105.797 43.0781L106.711 40.6172ZM104.766 29.3203L107.777 38.8125L108.281 41.7891L106.324 42.293L101.719 29.3203H104.766ZM124.594 42H121.77V28.1016C121.77 27.1562 121.945 26.3633 122.297 25.7227C122.656 25.0742 123.168 24.5859 123.832 24.2578C124.496 23.9219 125.281 23.7539 126.188 23.7539C126.469 23.7539 126.746 23.7734 127.02 23.8125C127.293 23.8438 127.559 23.8945 127.816 23.9648L127.746 26.1445C127.59 26.1055 127.418 26.0781 127.23 26.0625C127.051 26.0469 126.855 26.0391 126.645 26.0391C126.215 26.0391 125.844 26.1211 125.531 26.2852C125.227 26.4414 124.992 26.6719 124.828 26.9766C124.672 27.2812 124.594 27.6562 124.594 28.1016V42ZM127.207 29.3203V31.3828H119.824V29.3203H127.207ZM134.566 42.2344C133.629 42.2344 132.781 42.082 132.023 41.7773C131.273 41.4648 130.633 41.0312 130.102 40.4766C129.578 39.9219 129.176 39.2695 128.895 38.5195C128.613 37.7695 128.473 36.9609 128.473 36.0938V35.625C128.473 34.6328 128.617 33.7344 128.906 32.9297C129.195 32.125 129.598 31.4375 130.113 30.8672C130.629 30.2891 131.238 29.8477 131.941 29.543C132.645 29.2383 133.406 29.0859 134.227 29.0859C135.133 29.0859 135.926 29.2383 136.605 29.543C137.285 29.8477 137.848 30.2773 138.293 30.832C138.746 31.3789 139.082 32.0312 139.301 32.7891C139.527 33.5469 139.641 34.3828 139.641 35.2969V36.5039H129.844V34.4766H136.852V34.2539C136.836 33.7461 136.734 33.2695 136.547 32.8242C136.367 32.3789 136.09 32.0195 135.715 31.7461C135.34 31.4727 134.84 31.3359 134.215 31.3359C133.746 31.3359 133.328 31.4375 132.961 31.6406C132.602 31.8359 132.301 32.1211 132.059 32.4961C131.816 32.8711 131.629 33.3242 131.496 33.8555C131.371 34.3789 131.309 34.9688 131.309 35.625V36.0938C131.309 36.6484 131.383 37.1641 131.531 37.6406C131.688 38.1094 131.914 38.5195 132.211 38.8711C132.508 39.2227 132.867 39.5 133.289 39.7031C133.711 39.8984 134.191 39.9961 134.73 39.9961C135.41 39.9961 136.016 39.8594 136.547 39.5859C137.078 39.3125 137.539 38.9258 137.93 38.4258L139.418 39.8672C139.145 40.2656 138.789 40.6484 138.352 41.0156C137.914 41.375 137.379 41.668 136.746 41.8945C136.121 42.1211 135.395 42.2344 134.566 42.2344ZM147.434 42.2344C146.496 42.2344 145.648 42.082 144.891 41.7773C144.141 41.4648 143.5 41.0312 142.969 40.4766C142.445 39.9219 142.043 39.2695 141.762 38.5195C141.48 37.7695 141.34 36.9609 141.34 36.0938V35.625C141.34 34.6328 141.484 33.7344 141.773 32.9297C142.062 32.125 142.465 31.4375 142.98 30.8672C143.496 30.2891 144.105 29.8477 144.809 29.543C145.512 29.2383 146.273 29.0859 147.094 29.0859C148 29.0859 148.793 29.2383 149.473 29.543C150.152 29.8477 150.715 30.2773 151.16 30.832C151.613 31.3789 151.949 32.0312 152.168 32.7891C152.395 33.5469 152.508 34.3828 152.508 35.2969V36.5039H142.711V34.4766H149.719V34.2539C149.703 33.7461 149.602 33.2695 149.414 32.8242C149.234 32.3789 148.957 32.0195 148.582 31.7461C148.207 31.4727 147.707 31.3359 147.082 31.3359C146.613 31.3359 146.195 31.4375 145.828 31.6406C145.469 31.8359 145.168 32.1211 144.926 32.4961C144.684 32.8711 144.496 33.3242 144.363 33.8555C144.238 34.3789 144.176 34.9688 144.176 35.625V36.0938C144.176 36.6484 144.25 37.1641 144.398 37.6406C144.555 38.1094 144.781 38.5195 145.078 38.8711C145.375 39.2227 145.734 39.5 146.156 39.7031C146.578 39.8984 147.059 39.9961 147.598 39.9961C148.277 39.9961 148.883 39.8594 149.414 39.5859C149.945 39.3125 150.406 38.9258 150.797 38.4258L152.285 39.8672C152.012 40.2656 151.656 40.6484 151.219 41.0156C150.781 41.375 150.246 41.668 149.613 41.8945C148.988 42.1211 148.262 42.2344 147.434 42.2344ZM162.445 39.375V24H165.281V42H162.715L162.445 39.375ZM154.195 35.8008V35.5547C154.195 34.5938 154.309 33.7188 154.535 32.9297C154.762 32.1328 155.09 31.4492 155.52 30.8789C155.949 30.3008 156.473 29.8594 157.09 29.5547C157.707 29.2422 158.402 29.0859 159.176 29.0859C159.941 29.0859 160.613 29.2344 161.191 29.5312C161.77 29.8281 162.262 30.2539 162.668 30.8086C163.074 31.3555 163.398 32.0117 163.641 32.7773C163.883 33.5352 164.055 34.3789 164.156 35.3086V36.0938C164.055 37 163.883 37.8281 163.641 38.5781C163.398 39.3281 163.074 39.9766 162.668 40.5234C162.262 41.0703 161.766 41.4922 161.18 41.7891C160.602 42.0859 159.926 42.2344 159.152 42.2344C158.387 42.2344 157.695 42.0742 157.078 41.7539C156.469 41.4336 155.949 40.9844 155.52 40.4062C155.09 39.8281 154.762 39.1484 154.535 38.3672C154.309 37.5781 154.195 36.7227 154.195 35.8008ZM157.02 35.5547V35.8008C157.02 36.3789 157.07 36.918 157.172 37.418C157.281 37.918 157.449 38.3594 157.676 38.7422C157.902 39.1172 158.195 39.4141 158.555 39.6328C158.922 39.8438 159.359 39.9492 159.867 39.9492C160.508 39.9492 161.035 39.8086 161.449 39.5273C161.863 39.2461 162.188 38.8672 162.422 38.3906C162.664 37.9062 162.828 37.3672 162.914 36.7734V34.6523C162.867 34.1914 162.77 33.7617 162.621 33.3633C162.48 32.9648 162.289 32.6172 162.047 32.3203C161.805 32.0156 161.504 31.7812 161.145 31.6172C160.793 31.4453 160.375 31.3594 159.891 31.3594C159.375 31.3594 158.938 31.4688 158.578 31.6875C158.219 31.9062 157.922 32.207 157.688 32.5898C157.461 32.9727 157.293 33.418 157.184 33.9258C157.074 34.4336 157.02 34.9766 157.02 35.5547Z" fill="white"/>
</g>
<defs>
<filter id="filter0_d_56_2570" x="-8" y="-8" width="506" height="332" filterUnits="userSpaceOnUse" color-interpolation-filters="sRGB">
<feFlood flood-opacity="0" result="BackgroundImageFix"/>
<feColorMatrix in="SourceAlpha" type="matrix" values="0 0 0 0 0 0 0 0 0 0 0 0 0 0 0 0 0 0 127 0" result="hardAlpha"/>
<feOffset/>
<feGaussianBlur stdDeviation="4"/>
<feComposite in2="hardAlpha" operator="out"/>
<feColorMatrix type="matrix" values="0 0 0 0 0.247059 0 0 0 0 0.247059 0 0 0 0 0.247059 0 0 0 0.25 0"/>
<feBlend mode="normal" in2="BackgroundImageFix" result="effect1_dropShadow_56_2570"/>
<feBlend mode="normal" in="SourceGraphic" in2="effect1_dropShadow_56_2570" result="shape"/>
</filter>
<linearGradient id="paint0_linear_56_2570" x1="43.8" y1="75.2" x2="49.66" y2="89.5" gradientUnits="userSpaceOnUse">
<stop stop-color="#95F3FF"/>
<stop offset="1" stop-color="#95F3FF" stop-opacity="0"/>
</linearGradient>
<linearGradient id="paint1_linear_56_2570" x1="55.92" y1="103.4" x2="64.88" y2="118.9" gradientUnits="userSpaceOnUse">
<stop stop-color="#EFFFF9" stop-opacity="0"/>
<stop offset="1" stop-color="#EFFFF9"/>
</linearGradient>
<linearGradient id="paint2_linear_56_2570" x1="40.5622" y1="100.752" x2="40.2615" y2="105.319" gradientUnits="userSpaceOnUse">
<stop stop-color="#EFFFF9" stop-opacity="0"/>
<stop offset="1" stop-color="#EFFFF9"/>
</linearGradient>
<linearGradient id="paint3_linear_56_2570" x1="49.0675" y1="95.4925" x2="48.7669" y2="100.06" gradientUnits="userSpaceOnUse">
<stop stop-color="#EFFFF9" stop-opacity="0"/>
<stop offset="1" stop-color="#EFFFF9"/>
</linearGradient>
<linearGradient id="paint4_linear_56_2570" x1="57.5729" y1="90.2333" x2="57.2723" y2="94.8007" gradientUnits="userSpaceOnUse">
<stop stop-color="#EFFFF9" stop-opacity="0"/>
<stop offset="1" stop-color="#EFFFF9"/>
</linearGradient>
<linearGradient id="paint5_linear_56_2570" x1="66.0782" y1="84.9742" x2="65.7776" y2="89.5417" gradientUnits="userSpaceOnUse">
<stop stop-color="#EFFFF9" stop-opacity="0"/>
<stop offset="1" stop-color="#EFFFF9"/>
</linearGradient>
<linearGradient id="paint6_linear_56_2570" x1="43.8" y1="139.2" x2="49.66" y2="153.5" gradientUnits="userSpaceOnUse">
<stop stop-color="#95F3FF"/>
<stop offset="1" stop-color="#95F3FF" stop-opacity="0"/>
</linearGradient>
<linearGradient id="paint7_linear_56_2570" x1="55.92" y1="167.4" x2="64.88" y2="182.9" gradientUnits="userSpaceOnUse">
<stop stop-color="#EFFFF9" stop-opacity="0"/>
<stop offset="1" stop-color="#EFFFF9"/>
</linearGradient>
<linearGradient id="paint8_linear_56_2570" x1="40.5622" y1="164.752" x2="40.2615" y2="169.319" gradientUnits="userSpaceOnUse">
<stop stop-color="#EFFFF9" stop-opacity="0"/>
<stop offset="1" stop-color="#EFFFF9"/>
</linearGradient>
<linearGradient id="paint9_linear_56_2570" x1="49.0675" y1="159.493" x2="48.7669" y2="164.06" gradientUnits="userSpaceOnUse">
<stop stop-color="#EFFFF9" stop-opacity="0"/>
<stop offset="1" stop-color="#EFFFF9"/>
</linearGradient>
<linearGradient id="paint10_linear_56_2570" x1="57.5729" y1="154.233" x2="57.2723" y2="158.801" gradientUnits="userSpaceOnUse">
<stop stop-color="#EFFFF9" stop-opacity="0"/>
<stop offset="1" stop-color="#EFFFF9"/>
</linearGradient>
<linearGradient id="paint11_linear_56_2570" x1="66.0782" y1="148.974" x2="65.7776" y2="153.542" gradientUnits="userSpaceOnUse">
<stop stop-color="#EFFFF9" stop-opacity="0"/>
<stop offset="1" stop-color="#EFFFF9"/>
</linearGradient>
<linearGradient id="paint12_linear_56_2570" x1="43.8" y1="203.2" x2="49.66" y2="217.5" gradientUnits="userSpaceOnUse">
<stop stop-color="#EDFFA8"/>
<stop offset="1" stop-color="#EDFFA8" stop-opacity="0"/>
</linearGradient>
<linearGradient id="paint13_linear_56_2570" x1="55.92" y1="231.4" x2="64.88" y2="246.9" gradientUnits="userSpaceOnUse">
<stop stop-color="#51FFEB" stop-opacity="0"/>
<stop offset="1" stop-color="#51FFEB"/>
</linearGradient>
<linearGradient id="paint14_linear_56_2570" x1="40.5622" y1="228.752" x2="40.2616" y2="233.319" gradientUnits="userSpaceOnUse">
<stop stop-color="#FCFF67" stop-opacity="0"/>
<stop offset="1" stop-color="#FCFF67"/>
</linearGradient>
<linearGradient id="paint15_linear_56_2570" x1="49.0675" y1="223.493" x2="48.7669" y2="228.06" gradientUnits="userSpaceOnUse">
<stop stop-color="#FF8267" stop-opacity="0"/>
<stop offset="1" stop-color="#FF8267"/>
</linearGradient>
<linearGradient id="paint16_linear_56_2570" x1="57.5729" y1="218.233" x2="57.2723" y2="222.801" gradientUnits="userSpaceOnUse">
<stop stop-color="#73FF67" stop-opacity="0"/>
<stop offset="1" stop-color="#73FF67"/>
</linearGradient>
<linearGradient id="paint17_linear_56_2570" x1="66.0783" y1="212.974" x2="65.7776" y2="217.542" gradientUnits="userSpaceOnUse">
<stop stop-color="#9867FF" stop-opacity="0"/>
<stop offset="1" stop-color="#9867FF"/>
</linearGradient>
<clipPath id="clip0_56_2570">
<rect x="33" y="77" width="423" height="208" rx="7" fill="white"/>
</clipPath>
<clipPath id="clip1_56_2570">
<rect width="380" height="40" fill="white" transform="translate(33 77)"/>
</clipPath>
<clipPath id="clip2_56_2570">
<rect x="33" y="77" width="40" height="40" rx="20" fill="white"/>
</clipPath>
<clipPath id="clip3_56_2570">
<rect width="40" height="40" fill="white" transform="translate(33 77)"/>
</clipPath>
<clipPath id="clip4_56_2570">
<rect width="20" height="40" fill="white" transform="translate(43 77)"/>
</clipPath>
<clipPath id="clip5_56_2570">
<rect width="324" height="36" fill="white" transform="translate(89 77)"/>
</clipPath>
<clipPath id="clip6_56_2570">
<rect width="324" height="16" fill="white" transform="translate(89 97)"/>
</clipPath>
<clipPath id="clip7_56_2570">
<rect width="246" height="40" fill="white" transform="translate(33 141)"/>
</clipPath>
<clipPath id="clip8_56_2570">
<rect x="33" y="141" width="40" height="40" rx="20" fill="white"/>
</clipPath>
<clipPath id="clip9_56_2570">
<rect width="40" height="40" fill="white" transform="translate(33 141)"/>
</clipPath>
<clipPath id="clip10_56_2570">
<rect width="20" height="40" fill="white" transform="translate(43 141)"/>
</clipPath>
<clipPath id="clip11_56_2570">
<rect width="190" height="36" fill="white" transform="translate(89 141)"/>
</clipPath>
<clipPath id="clip12_56_2570">
<rect width="190" height="16" fill="white" transform="translate(89 161)"/>
</clipPath>
<clipPath id="clip13_56_2570">
<rect width="423" height="80" fill="white" transform="translate(33 205)"/>
</clipPath>
<clipPath id="clip14_56_2570">
<rect x="33" y="205" width="40" height="40" rx="20" fill="white"/>
</clipPath>
<clipPath id="clip15_56_2570">
<rect width="40" height="40" fill="white" transform="translate(33 205)"/>
</clipPath>
<clipPath id="clip16_56_2570">
<rect width="367" height="80" fill="white" transform="translate(89 205)"/>
</clipPath>
<clipPath id="clip17_56_2570">
<rect width="367" height="16" fill="white" transform="translate(89 225)"/>
</clipPath>
<clipPath id="clip18_56_2570">
<rect width="295" height="16" fill="white" transform="translate(89 247)"/>
</clipPath>
<clipPath id="clip19_56_2570">
<rect width="333" height="16" fill="white" transform="translate(89 269)"/>
</clipPath>
</defs>
</svg>
