<svg width="368" height="332" viewBox="0 0 368 332" fill="none" xmlns="http://www.w3.org/2000/svg">
<g filter="url(#filter0_d_56_2570)">
<rect x="8" y="8" width="490" height="316" rx="7" fill="#141414"/>
<g clip-path="url(#clip0_56_2570)">
<g clip-path="url(#clip1_56_2570)">
<g clip-path="url(#clip2_56_2570)">
<rect x="41" y="85" width="40" height="40" rx="20" fill="white"/>
<g clip-path="url(#clip3_56_2570)">
<mask id="mask0_56_2570" style="mask-type:luminance" maskUnits="userSpaceOnUse" x="41" y="85" width="40" height="40">
<path d="M81 85H41V125H81V85Z" fill="white"/>
</mask>
<g mask="url(#mask0_56_2570)">
<path d="M81 85H41V125H81V85Z" fill="white"/>
<path d="M81 85H41V125H81V85Z" fill="#2C2C2C"/>
<path d="M51.78 99.32C59.6777 99.32 66.08 92.9176 66.08 85.02C66.08 77.1223 59.6777 70.72 51.78 70.72C43.8823 70.72 37.48 77.1223 37.48 85.02C37.48 92.9176 43.8823 99.32 51.78 99.32Z" fill="url(#paint0_linear_56_2570)"/>
<path d="M71.14 139.32C79.0376 139.32 85.44 132.918 85.44 125.02C85.44 117.122 79.0376 110.72 71.14 110.72C63.2423 110.72 56.84 117.122 56.84 125.02C56.84 132.918 63.2423 139.32 71.14 139.32Z" fill="url(#paint1_linear_56_2570)"/>
<g opacity="0.7">
<path opacity="0.6" d="M49.6261 114.208C50.8474 113.453 51.2253 111.85 50.4701 110.629C49.7149 109.408 48.1126 109.03 46.8913 109.785C45.67 110.54 45.2921 112.142 46.0473 113.364C46.8025 114.585 48.4048 114.963 49.6261 114.208Z" fill="url(#paint2_linear_56_2570)"/>
<path opacity="0.6" d="M58.1315 108.948C59.3528 108.193 59.7307 106.591 58.9755 105.37C58.2203 104.148 56.618 103.77 55.3967 104.526C54.1754 105.281 53.7975 106.883 54.5527 108.104C55.3079 109.326 56.9102 109.704 58.1315 108.948Z" fill="url(#paint3_linear_56_2570)"/>
<path opacity="0.6" d="M66.6368 103.689C67.8582 102.934 68.236 101.332 67.4808 100.11C66.7257 98.8891 65.1234 98.5112 63.9021 99.2664C62.6807 100.022 62.3029 101.624 63.0581 102.845C63.8132 104.066 65.4155 104.444 66.6368 103.689Z" fill="url(#paint4_linear_56_2570)"/>
<path opacity="0.6" d="M75.1422 98.4301C76.3635 97.675 76.7413 96.0727 75.9862 94.8514C75.231 93.6301 73.6287 93.2522 72.4074 94.0074C71.1861 94.7626 70.8082 96.3648 71.5634 97.5861C72.3186 98.8075 73.9208 99.1853 75.1422 98.4301Z" fill="url(#paint5_linear_56_2570)"/>
</g>
</g>
</g>
<g clip-path="url(#clip4_56_2570)">
<path d="M55.5052 111.92V97.0837H60.7935C61.9429 97.0837 62.8968 97.2817 63.655 97.6778C64.4181 98.0738 64.988 98.6219 65.3647 99.3222C65.7414 100.018 65.9297 100.822 65.9297 101.735C65.9297 102.643 65.739 103.442 65.3575 104.132C64.9807 104.818 64.4109 105.352 63.6478 105.733C62.8895 106.115 61.9357 106.306 60.7863 106.306H56.7802V104.379H60.5834C61.3079 104.379 61.8971 104.275 62.3511 104.067C62.8099 103.86 63.1455 103.558 63.358 103.162C63.5705 102.766 63.6767 102.29 63.6767 101.735C63.6767 101.174 63.5681 100.689 63.3508 100.278C63.1383 99.868 62.8026 99.5541 62.3438 99.3367C61.8898 99.1146 61.2934 99.0035 60.5545 99.0035H57.7437V111.92H55.5052ZM62.8292 105.226L66.4948 111.92H63.9448L60.3516 105.226H62.8292Z" fill="white"/>
</g>
</g>
<g clip-path="url(#clip5_56_2570)">
<path d="M100.346 96H98.5234L98.5352 94.834H100.346C100.873 94.834 101.314 94.7188 101.67 94.4883C102.029 94.2578 102.299 93.9277 102.479 93.498C102.662 93.0684 102.754 92.5566 102.754 91.9629V91.5C102.754 91.0391 102.701 90.6309 102.596 90.2754C102.494 89.9199 102.342 89.6211 102.139 89.3789C101.939 89.1367 101.693 88.9531 101.4 88.8281C101.111 88.7031 100.777 88.6406 100.398 88.6406H98.4883V87.4688H100.398C100.965 87.4688 101.482 87.5645 101.951 87.7559C102.42 87.9434 102.824 88.2148 103.164 88.5703C103.508 88.9258 103.771 89.3516 103.955 89.8477C104.139 90.3438 104.23 90.8984 104.23 91.5117V91.9629C104.23 92.5762 104.139 93.1309 103.955 93.627C103.771 94.123 103.508 94.5488 103.164 94.9043C102.82 95.2559 102.41 95.5273 101.934 95.7188C101.461 95.9062 100.932 96 100.346 96ZM99.3379 87.4688V96H97.8672V87.4688H99.3379ZM108.361 96.1172C107.893 96.1172 107.469 96.041 107.09 95.8887C106.715 95.7324 106.395 95.5156 106.129 95.2383C105.867 94.9609 105.666 94.6348 105.525 94.2598C105.385 93.8848 105.314 93.4805 105.314 93.0469V92.8125C105.314 92.3164 105.387 91.8672 105.531 91.4648C105.676 91.0625 105.877 90.7188 106.135 90.4336C106.393 90.1445 106.697 89.9238 107.049 89.7715C107.4 89.6191 107.781 89.543 108.191 89.543C108.645 89.543 109.041 89.6191 109.381 89.7715C109.721 89.9238 110.002 90.1387 110.225 90.416C110.451 90.6895 110.619 91.0156 110.729 91.3945C110.842 91.7734 110.898 92.1914 110.898 92.6484V93.252H106V92.2383H109.504V92.127C109.496 91.873 109.445 91.6348 109.352 91.4121C109.262 91.1895 109.123 91.0098 108.936 90.873C108.748 90.7363 108.498 90.668 108.186 90.668C107.951 90.668 107.742 90.7188 107.559 90.8203C107.379 90.918 107.229 91.0605 107.107 91.248C106.986 91.4355 106.893 91.6621 106.826 91.9277C106.764 92.1895 106.732 92.4844 106.732 92.8125V93.0469C106.732 93.3242 106.77 93.582 106.844 93.8203C106.922 94.0547 107.035 94.2598 107.184 94.4355C107.332 94.6113 107.512 94.75 107.723 94.8516C107.934 94.9492 108.174 94.998 108.443 94.998C108.783 94.998 109.086 94.9297 109.352 94.793C109.617 94.6562 109.848 94.4629 110.043 94.2129L110.787 94.9336C110.65 95.1328 110.473 95.3242 110.254 95.5078C110.035 95.6875 109.768 95.834 109.451 95.9473C109.139 96.0605 108.775 96.1172 108.361 96.1172ZM113.418 90.8789V98.4375H112.006V89.6602H113.307L113.418 90.8789ZM117.549 92.7715V92.8945C117.549 93.3555 117.494 93.7832 117.385 94.1777C117.279 94.5684 117.121 94.9102 116.91 95.2031C116.703 95.4922 116.447 95.7168 116.143 95.877C115.838 96.0371 115.486 96.1172 115.088 96.1172C114.693 96.1172 114.348 96.0449 114.051 95.9004C113.758 95.752 113.51 95.543 113.307 95.2734C113.104 95.0039 112.939 94.6875 112.814 94.3242C112.693 93.957 112.607 93.5547 112.557 93.1172V92.6426C112.607 92.1777 112.693 91.7559 112.814 91.377C112.939 90.998 113.104 90.6719 113.307 90.3984C113.51 90.125 113.758 89.9141 114.051 89.7656C114.344 89.6172 114.686 89.543 115.076 89.543C115.475 89.543 115.828 89.6211 116.137 89.7773C116.445 89.9297 116.705 90.1484 116.916 90.4336C117.127 90.7148 117.285 91.0547 117.391 91.4531C117.496 91.8477 117.549 92.2871 117.549 92.7715ZM116.137 92.8945V92.7715C116.137 92.4785 116.109 92.207 116.055 91.957C116 91.7031 115.914 91.4805 115.797 91.2891C115.68 91.0977 115.529 90.9492 115.346 90.8438C115.166 90.7344 114.949 90.6797 114.695 90.6797C114.445 90.6797 114.23 90.7227 114.051 90.8086C113.871 90.8906 113.721 91.0059 113.6 91.1543C113.479 91.3027 113.385 91.4766 113.318 91.6758C113.252 91.8711 113.205 92.084 113.178 92.3145V93.4512C113.225 93.7324 113.305 93.9902 113.418 94.2246C113.531 94.459 113.691 94.6465 113.898 94.7871C114.109 94.9238 114.379 94.9922 114.707 94.9922C114.961 94.9922 115.178 94.9375 115.357 94.8281C115.537 94.7188 115.684 94.5684 115.797 94.377C115.914 94.1816 116 93.957 116.055 93.7031C116.109 93.4492 116.137 93.1797 116.137 92.8945ZM118.48 92.9004V92.7656C118.48 92.3086 118.547 91.8848 118.68 91.4941C118.812 91.0996 119.004 90.7578 119.254 90.4688C119.508 90.1758 119.816 89.9492 120.18 89.7891C120.547 89.625 120.961 89.543 121.422 89.543C121.887 89.543 122.301 89.625 122.664 89.7891C123.031 89.9492 123.342 90.1758 123.596 90.4688C123.85 90.7578 124.043 91.0996 124.176 91.4941C124.309 91.8848 124.375 92.3086 124.375 92.7656V92.9004C124.375 93.3574 124.309 93.7812 124.176 94.1719C124.043 94.5625 123.85 94.9043 123.596 95.1973C123.342 95.4863 123.033 95.7129 122.67 95.877C122.307 96.0371 121.895 96.1172 121.434 96.1172C120.969 96.1172 120.553 96.0371 120.186 95.877C119.822 95.7129 119.514 95.4863 119.26 95.1973C119.006 94.9043 118.812 94.5625 118.68 94.1719C118.547 93.7812 118.48 93.3574 118.48 92.9004ZM119.893 92.7656V92.9004C119.893 93.1855 119.922 93.4551 119.98 93.709C120.039 93.9629 120.131 94.1855 120.256 94.377C120.381 94.5684 120.541 94.7188 120.736 94.8281C120.932 94.9375 121.164 94.9922 121.434 94.9922C121.695 94.9922 121.922 94.9375 122.113 94.8281C122.309 94.7188 122.469 94.5684 122.594 94.377C122.719 94.1855 122.811 93.9629 122.869 93.709C122.932 93.4551 122.963 93.1855 122.963 92.9004V92.7656C122.963 92.4844 122.932 92.2188 122.869 91.9688C122.811 91.7148 122.717 91.4902 122.588 91.2949C122.463 91.0996 122.303 90.9473 122.107 90.8379C121.916 90.7246 121.688 90.668 121.422 90.668C121.156 90.668 120.926 90.7246 120.73 90.8379C120.539 90.9473 120.381 91.0996 120.256 91.2949C120.131 91.4902 120.039 91.7148 119.98 91.9688C119.922 92.2188 119.893 92.4844 119.893 92.7656ZM129.115 94.2832C129.115 94.1426 129.08 94.0156 129.01 93.9023C128.939 93.7852 128.805 93.6797 128.605 93.5859C128.41 93.4922 128.121 93.4062 127.738 93.3281C127.402 93.2539 127.094 93.166 126.812 93.0645C126.535 92.959 126.297 92.832 126.098 92.6836C125.898 92.5352 125.744 92.3594 125.635 92.1562C125.525 91.9531 125.471 91.7188 125.471 91.4531C125.471 91.1953 125.527 90.9512 125.641 90.7207C125.754 90.4902 125.916 90.2871 126.127 90.1113C126.338 89.9355 126.594 89.7969 126.895 89.6953C127.199 89.5938 127.539 89.543 127.914 89.543C128.445 89.543 128.9 89.6328 129.279 89.8125C129.662 89.9883 129.955 90.2285 130.158 90.5332C130.361 90.834 130.463 91.1738 130.463 91.5527H129.051C129.051 91.3848 129.008 91.2285 128.922 91.084C128.84 90.9355 128.715 90.8164 128.547 90.7266C128.379 90.6328 128.168 90.5859 127.914 90.5859C127.672 90.5859 127.471 90.625 127.311 90.7031C127.154 90.7773 127.037 90.875 126.959 90.9961C126.885 91.1172 126.848 91.25 126.848 91.3945C126.848 91.5 126.867 91.5957 126.906 91.6816C126.949 91.7637 127.02 91.8398 127.117 91.9102C127.215 91.9766 127.348 92.0391 127.516 92.0977C127.688 92.1562 127.902 92.2129 128.16 92.2676C128.645 92.3691 129.061 92.5 129.408 92.6602C129.76 92.8164 130.029 93.0195 130.217 93.2695C130.404 93.5156 130.498 93.8281 130.498 94.207C130.498 94.4883 130.438 94.7461 130.316 94.9805C130.199 95.2109 130.027 95.4121 129.801 95.584C129.574 95.752 129.303 95.8828 128.986 95.9766C128.674 96.0703 128.322 96.1172 127.932 96.1172C127.357 96.1172 126.871 96.0156 126.473 95.8125C126.074 95.6055 125.771 95.3418 125.564 95.0215C125.361 94.6973 125.26 94.3613 125.26 94.0137H126.625C126.641 94.2754 126.713 94.4844 126.842 94.6406C126.975 94.793 127.139 94.9043 127.334 94.9746C127.533 95.041 127.738 95.0742 127.949 95.0742C128.203 95.0742 128.416 95.041 128.588 94.9746C128.76 94.9043 128.891 94.8105 128.98 94.6934C129.07 94.5723 129.115 94.4355 129.115 94.2832ZM133.246 89.6602V96H131.828V89.6602H133.246ZM131.734 87.9961C131.734 87.7812 131.805 87.6035 131.945 87.4629C132.09 87.3184 132.289 87.2461 132.543 87.2461C132.793 87.2461 132.99 87.3184 133.135 87.4629C133.279 87.6035 133.352 87.7812 133.352 87.9961C133.352 88.207 133.279 88.3828 133.135 88.5234C132.99 88.6641 132.793 88.7344 132.543 88.7344C132.289 88.7344 132.09 88.6641 131.945 88.5234C131.805 88.3828 131.734 88.207 131.734 87.9961ZM137.699 89.6602V90.6914H134.125V89.6602H137.699ZM135.156 88.1074H136.568V94.248C136.568 94.4434 136.596 94.5938 136.65 94.6992C136.709 94.8008 136.789 94.8691 136.891 94.9043C136.992 94.9395 137.111 94.957 137.248 94.957C137.346 94.957 137.439 94.9512 137.529 94.9395C137.619 94.9277 137.691 94.916 137.746 94.9043L137.752 95.9824C137.635 96.0176 137.498 96.0488 137.342 96.0762C137.189 96.1035 137.014 96.1172 136.814 96.1172C136.49 96.1172 136.203 96.0605 135.953 95.9473C135.703 95.8301 135.508 95.6406 135.367 95.3789C135.227 95.1172 135.156 94.7695 135.156 94.3359V88.1074Z" fill="white"/>
<g clip-path="url(#clip6_56_2570)">
<rect x="97" y="105" width="45" height="16" rx="8" fill="white" fill-opacity="0.05"/>
<rect x="146" y="105" width="56" height="16" rx="8" fill="white" fill-opacity="0.05"/>
<rect x="206" y="105" width="35" height="16" rx="8" fill="white" fill-opacity="0.05"/>
<rect x="245" y="105" width="40" height="16" rx="8" fill="white" fill-opacity="0.05"/>
<rect x="289" y="105" width="76" height="16" rx="8" fill="white" fill-opacity="0.05"/>
</g>
</g>
</g>
<g clip-path="url(#clip7_56_2570)">
<g clip-path="url(#clip8_56_2570)">
<rect x="41" y="149" width="40" height="40" rx="20" fill="white"/>
<g clip-path="url(#clip9_56_2570)">
<mask id="mask1_56_2570" style="mask-type:luminance" maskUnits="userSpaceOnUse" x="41" y="149" width="40" height="40">
<path d="M81 149H41V189H81V149Z" fill="white"/>
</mask>
<g mask="url(#mask1_56_2570)">
<path d="M81 149H41V189H81V149Z" fill="white"/>
<path d="M81 149H41V189H81V149Z" fill="#2C2C2C"/>
<path d="M51.78 163.32C59.6777 163.32 66.08 156.918 66.08 149.02C66.08 141.122 59.6777 134.72 51.78 134.72C43.8823 134.72 37.48 141.122 37.48 149.02C37.48 156.918 43.8823 163.32 51.78 163.32Z" fill="url(#paint6_linear_56_2570)"/>
<path d="M71.14 203.32C79.0376 203.32 85.44 196.918 85.44 189.02C85.44 181.122 79.0376 174.72 71.14 174.72C63.2423 174.72 56.84 181.122 56.84 189.02C56.84 196.918 63.2423 203.32 71.14 203.32Z" fill="url(#paint7_linear_56_2570)"/>
<g opacity="0.7">
<path opacity="0.6" d="M49.6261 178.208C50.8474 177.453 51.2253 175.85 50.4701 174.629C49.7149 173.408 48.1126 173.03 46.8913 173.785C45.67 174.54 45.2921 176.142 46.0473 177.364C46.8025 178.585 48.4048 178.963 49.6261 178.208Z" fill="url(#paint8_linear_56_2570)"/>
<path opacity="0.6" d="M58.1315 172.948C59.3528 172.193 59.7307 170.591 58.9755 169.37C58.2203 168.148 56.618 167.77 55.3967 168.526C54.1754 169.281 53.7975 170.883 54.5527 172.104C55.3079 173.326 56.9102 173.704 58.1315 172.948Z" fill="url(#paint9_linear_56_2570)"/>
<path opacity="0.6" d="M66.6368 167.689C67.8582 166.934 68.236 165.332 67.4808 164.11C66.7257 162.889 65.1234 162.511 63.9021 163.266C62.6807 164.022 62.3029 165.624 63.0581 166.845C63.8132 168.066 65.4155 168.444 66.6368 167.689Z" fill="url(#paint10_linear_56_2570)"/>
<path opacity="0.6" d="M75.1422 162.43C76.3635 161.675 76.7413 160.073 75.9862 158.851C75.231 157.63 73.6287 157.252 72.4074 158.007C71.1861 158.763 70.8082 160.365 71.5634 161.586C72.3186 162.807 73.9208 163.185 75.1422 162.43Z" fill="url(#paint11_linear_56_2570)"/>
</g>
</g>
</g>
<g clip-path="url(#clip10_56_2570)">
<path d="M55.5052 175.92V161.084H60.7935C61.9429 161.084 62.8968 161.282 63.655 161.678C64.4181 162.074 64.988 162.622 65.3647 163.322C65.7414 164.018 65.9297 164.822 65.9297 165.735C65.9297 166.643 65.739 167.442 65.3575 168.132C64.9807 168.818 64.4109 169.352 63.6478 169.733C62.8895 170.115 61.9357 170.306 60.7863 170.306H56.7802V168.379H60.5834C61.3079 168.379 61.8971 168.275 62.3511 168.067C62.8099 167.86 63.1455 167.558 63.358 167.162C63.5705 166.766 63.6767 166.29 63.6767 165.735C63.6767 165.174 63.5681 164.689 63.3508 164.278C63.1383 163.868 62.8026 163.554 62.3438 163.337C61.8898 163.115 61.2934 163.003 60.5545 163.003H57.7437V175.92H55.5052ZM62.8292 169.226L66.4948 175.92H63.9448L60.3516 169.226H62.8292Z" fill="white"/>
</g>
</g>
<g clip-path="url(#clip11_56_2570)">
<path d="M100.006 158.084L101.705 151.469H102.596L102.496 153.174L100.68 160H99.7539L100.006 158.084ZM98.7344 151.469L100.111 158.031L100.234 160H99.25L97.2754 151.469H98.7344ZM104.523 158.014L105.883 151.469H107.348L105.373 160H104.389L104.523 158.014ZM102.941 151.469L104.623 158.102L104.869 160H103.943L102.156 153.174L102.062 151.469H102.941ZM109.809 153.66V160H108.391V153.66H109.809ZM108.297 151.996C108.297 151.781 108.367 151.604 108.508 151.463C108.652 151.318 108.852 151.246 109.105 151.246C109.355 151.246 109.553 151.318 109.697 151.463C109.842 151.604 109.914 151.781 109.914 151.996C109.914 152.207 109.842 152.383 109.697 152.523C109.553 152.664 109.355 152.734 109.105 152.734C108.852 152.734 108.652 152.664 108.508 152.523C108.367 152.383 108.297 152.207 108.297 151.996ZM114.262 153.66V154.691H110.688V153.66H114.262ZM111.719 152.107H113.131V158.248C113.131 158.443 113.158 158.594 113.213 158.699C113.271 158.801 113.352 158.869 113.453 158.904C113.555 158.939 113.674 158.957 113.811 158.957C113.908 158.957 114.002 158.951 114.092 158.939C114.182 158.928 114.254 158.916 114.309 158.904L114.314 159.982C114.197 160.018 114.061 160.049 113.904 160.076C113.752 160.104 113.576 160.117 113.377 160.117C113.053 160.117 112.766 160.061 112.516 159.947C112.266 159.83 112.07 159.641 111.93 159.379C111.789 159.117 111.719 158.77 111.719 158.336V152.107ZM116.746 151V160H115.34V151H116.746ZM116.5 156.596L116.043 156.59C116.047 156.152 116.107 155.748 116.225 155.377C116.346 155.006 116.514 154.684 116.729 154.41C116.947 154.133 117.209 153.92 117.514 153.771C117.818 153.619 118.156 153.543 118.527 153.543C118.84 153.543 119.121 153.586 119.371 153.672C119.625 153.758 119.844 153.896 120.027 154.088C120.211 154.275 120.35 154.521 120.443 154.826C120.541 155.127 120.59 155.494 120.59 155.928V160H119.172V155.916C119.172 155.611 119.127 155.369 119.037 155.189C118.951 155.01 118.824 154.881 118.656 154.803C118.488 154.721 118.283 154.68 118.041 154.68C117.787 154.68 117.562 154.73 117.367 154.832C117.176 154.934 117.016 155.072 116.887 155.248C116.758 155.424 116.66 155.627 116.594 155.857C116.531 156.088 116.5 156.334 116.5 156.596ZM125.887 158.688V151H127.305V160H126.021L125.887 158.688ZM121.762 156.9V156.777C121.762 156.297 121.818 155.859 121.932 155.465C122.045 155.066 122.209 154.725 122.424 154.439C122.639 154.15 122.9 153.93 123.209 153.777C123.518 153.621 123.865 153.543 124.252 153.543C124.635 153.543 124.971 153.617 125.26 153.766C125.549 153.914 125.795 154.127 125.998 154.404C126.201 154.678 126.363 155.006 126.484 155.389C126.605 155.768 126.691 156.189 126.742 156.654V157.047C126.691 157.5 126.605 157.914 126.484 158.289C126.363 158.664 126.201 158.988 125.998 159.262C125.795 159.535 125.547 159.746 125.254 159.895C124.965 160.043 124.627 160.117 124.24 160.117C123.857 160.117 123.512 160.037 123.203 159.877C122.898 159.717 122.639 159.492 122.424 159.203C122.209 158.914 122.045 158.574 121.932 158.184C121.818 157.789 121.762 157.361 121.762 156.9ZM123.174 156.777V156.9C123.174 157.189 123.199 157.459 123.25 157.709C123.305 157.959 123.389 158.18 123.502 158.371C123.615 158.559 123.762 158.707 123.941 158.816C124.125 158.922 124.344 158.975 124.598 158.975C124.918 158.975 125.182 158.904 125.389 158.764C125.596 158.623 125.758 158.434 125.875 158.195C125.996 157.953 126.078 157.684 126.121 157.387V156.326C126.098 156.096 126.049 155.881 125.975 155.682C125.904 155.482 125.809 155.309 125.688 155.16C125.566 155.008 125.416 154.891 125.236 154.809C125.061 154.723 124.852 154.68 124.609 154.68C124.352 154.68 124.133 154.734 123.953 154.844C123.773 154.953 123.625 155.104 123.508 155.295C123.395 155.486 123.311 155.709 123.256 155.963C123.201 156.217 123.174 156.488 123.174 156.777ZM130.199 154.867V160H128.787V153.66H130.135L130.199 154.867ZM132.139 153.619L132.127 154.932C132.041 154.916 131.947 154.904 131.846 154.896C131.748 154.889 131.65 154.885 131.553 154.885C131.311 154.885 131.098 154.92 130.914 154.99C130.73 155.057 130.576 155.154 130.451 155.283C130.33 155.408 130.236 155.561 130.17 155.74C130.104 155.92 130.064 156.121 130.053 156.344L129.73 156.367C129.73 155.969 129.77 155.6 129.848 155.26C129.926 154.92 130.043 154.621 130.199 154.363C130.359 154.105 130.559 153.904 130.797 153.76C131.039 153.615 131.318 153.543 131.635 153.543C131.721 153.543 131.812 153.551 131.91 153.566C132.012 153.582 132.088 153.6 132.139 153.619ZM136.387 158.729V155.705C136.387 155.479 136.346 155.283 136.264 155.119C136.182 154.955 136.057 154.828 135.889 154.738C135.725 154.648 135.518 154.604 135.268 154.604C135.037 154.604 134.838 154.643 134.67 154.721C134.502 154.799 134.371 154.904 134.277 155.037C134.184 155.17 134.137 155.32 134.137 155.488H132.73C132.73 155.238 132.791 154.996 132.912 154.762C133.033 154.527 133.209 154.318 133.439 154.135C133.67 153.951 133.945 153.807 134.266 153.701C134.586 153.596 134.945 153.543 135.344 153.543C135.82 153.543 136.242 153.623 136.609 153.783C136.98 153.943 137.271 154.186 137.482 154.51C137.697 154.83 137.805 155.232 137.805 155.717V158.535C137.805 158.824 137.824 159.084 137.863 159.314C137.906 159.541 137.967 159.738 138.045 159.906V160H136.598C136.531 159.848 136.479 159.654 136.439 159.42C136.404 159.182 136.387 158.951 136.387 158.729ZM136.592 156.145L136.604 157.018H135.59C135.328 157.018 135.098 157.043 134.898 157.094C134.699 157.141 134.533 157.211 134.4 157.305C134.268 157.398 134.168 157.512 134.102 157.645C134.035 157.777 134.002 157.928 134.002 158.096C134.002 158.264 134.041 158.418 134.119 158.559C134.197 158.695 134.311 158.803 134.459 158.881C134.611 158.959 134.795 158.998 135.01 158.998C135.299 158.998 135.551 158.939 135.766 158.822C135.984 158.701 136.156 158.555 136.281 158.383C136.406 158.207 136.473 158.041 136.48 157.885L136.938 158.512C136.891 158.672 136.811 158.844 136.697 159.027C136.584 159.211 136.436 159.387 136.252 159.555C136.072 159.719 135.855 159.854 135.602 159.959C135.352 160.064 135.062 160.117 134.734 160.117C134.32 160.117 133.951 160.035 133.627 159.871C133.303 159.703 133.049 159.479 132.865 159.197C132.682 158.912 132.59 158.59 132.59 158.23C132.59 157.895 132.652 157.598 132.777 157.34C132.906 157.078 133.094 156.859 133.34 156.684C133.59 156.508 133.895 156.375 134.254 156.285C134.613 156.191 135.023 156.145 135.484 156.145H136.592ZM141.004 158.594L142.469 153.66H143.371L143.125 155.137L141.648 160H140.84L141.004 158.594ZM140.143 153.66L141.285 158.617L141.379 160H140.477L138.76 153.66H140.143ZM144.742 158.559L145.85 153.66H147.227L145.516 160H144.613L144.742 158.559ZM143.523 153.66L144.971 158.535L145.152 160H144.344L142.85 155.131L142.604 153.66H143.523ZM151.762 158.729V155.705C151.762 155.479 151.721 155.283 151.639 155.119C151.557 154.955 151.432 154.828 151.264 154.738C151.1 154.648 150.893 154.604 150.643 154.604C150.412 154.604 150.213 154.643 150.045 154.721C149.877 154.799 149.746 154.904 149.652 155.037C149.559 155.17 149.512 155.32 149.512 155.488H148.105C148.105 155.238 148.166 154.996 148.287 154.762C148.408 154.527 148.584 154.318 148.814 154.135C149.045 153.951 149.32 153.807 149.641 153.701C149.961 153.596 150.32 153.543 150.719 153.543C151.195 153.543 151.617 153.623 151.984 153.783C152.355 153.943 152.646 154.186 152.857 154.51C153.072 154.83 153.18 155.232 153.18 155.717V158.535C153.18 158.824 153.199 159.084 153.238 159.314C153.281 159.541 153.342 159.738 153.42 159.906V160H151.973C151.906 159.848 151.854 159.654 151.814 159.42C151.779 159.182 151.762 158.951 151.762 158.729ZM151.967 156.145L151.979 157.018H150.965C150.703 157.018 150.473 157.043 150.273 157.094C150.074 157.141 149.908 157.211 149.775 157.305C149.643 157.398 149.543 157.512 149.477 157.645C149.41 157.777 149.377 157.928 149.377 158.096C149.377 158.264 149.416 158.418 149.494 158.559C149.572 158.695 149.686 158.803 149.834 158.881C149.986 158.959 150.17 158.998 150.385 158.998C150.674 158.998 150.926 158.939 151.141 158.822C151.359 158.701 151.531 158.555 151.656 158.383C151.781 158.207 151.848 158.041 151.855 157.885L152.312 158.512C152.266 158.672 152.186 158.844 152.072 159.027C151.959 159.211 151.811 159.387 151.627 159.555C151.447 159.719 151.23 159.854 150.977 159.959C150.727 160.064 150.438 160.117 150.109 160.117C149.695 160.117 149.326 160.035 149.002 159.871C148.678 159.703 148.424 159.479 148.24 159.197C148.057 158.912 147.965 158.59 147.965 158.23C147.965 157.895 148.027 157.598 148.152 157.34C148.281 157.078 148.469 156.859 148.715 156.684C148.965 156.508 149.27 156.375 149.629 156.285C149.988 156.191 150.398 156.145 150.859 156.145H151.967ZM156.168 151V160H154.75V151H156.168Z" fill="white"/>
<g clip-path="url(#clip12_56_2570)">
<rect x="97" y="169" width="33" height="16" rx="8" fill="white" fill-opacity="0.05"/>
<rect x="134" y="169" width="44" height="16" rx="8" fill="white" fill-opacity="0.05"/>
<rect x="182" y="169" width="64" height="16" rx="8" fill="white" fill-opacity="0.05"/>
<rect x="250" y="169" width="37" height="16" rx="8" fill="white" fill-opacity="0.05"/>
</g>
</g>
</g>
<g clip-path="url(#clip13_56_2570)">
<g clip-path="url(#clip14_56_2570)">
<rect x="41" y="213" width="40" height="40" rx="20" fill="white"/>
<g clip-path="url(#clip15_56_2570)">
<mask id="mask2_56_2570" style="mask-type:luminance" maskUnits="userSpaceOnUse" x="41" y="213" width="40" height="40">
<path d="M81 213H41V253H81V213Z" fill="white"/>
</mask>
<g mask="url(#mask2_56_2570)">
<path d="M81 213H41V253H81V213Z" fill="white"/>
<path d="M81 213H41V253H81V213Z" fill="#2C2C2C"/>
<path d="M51.78 227.32C59.6777 227.32 66.08 220.918 66.08 213.02C66.08 205.122 59.6777 198.72 51.78 198.72C43.8823 198.72 37.48 205.122 37.48 213.02C37.48 220.918 43.8823 227.32 51.78 227.32Z" fill="url(#paint12_linear_56_2570)"/>
<path d="M71.14 267.32C79.0376 267.32 85.44 260.918 85.44 253.02C85.44 245.122 79.0376 238.72 71.14 238.72C63.2423 238.72 56.84 245.122 56.84 253.02C56.84 260.918 63.2423 267.32 71.14 267.32Z" fill="url(#paint13_linear_56_2570)"/>
<g opacity="0.7">
<path opacity="0.6" d="M49.6262 242.208C50.8475 241.453 51.2253 239.85 50.4702 238.629C49.715 237.408 48.1127 237.03 46.8914 237.785C45.6701 238.54 45.2922 240.142 46.0474 241.364C46.8026 242.585 48.4048 242.963 49.6262 242.208Z" fill="url(#paint14_linear_56_2570)"/>
<path opacity="0.6" d="M58.1315 236.948C59.3528 236.193 59.7307 234.591 58.9755 233.37C58.2203 232.148 56.618 231.77 55.3967 232.526C54.1754 233.281 53.7975 234.883 54.5527 236.104C55.3079 237.326 56.9102 237.704 58.1315 236.948Z" fill="url(#paint15_linear_56_2570)"/>
<path opacity="0.6" d="M66.6368 231.689C67.8582 230.934 68.236 229.332 67.4808 228.11C66.7257 226.889 65.1234 226.511 63.9021 227.266C62.6807 228.022 62.3029 229.624 63.0581 230.845C63.8132 232.066 65.4155 232.444 66.6368 231.689Z" fill="url(#paint16_linear_56_2570)"/>
<path opacity="0.6" d="M75.1422 226.43C76.3635 225.675 76.7414 224.073 75.9862 222.851C75.231 221.63 73.6288 221.252 72.4074 222.007C71.1861 222.763 70.8082 224.365 71.5634 225.586C72.3186 226.807 73.9209 227.185 75.1422 226.43Z" fill="url(#paint17_linear_56_2570)"/>
</g>
</g>
</g>
<path d="M56.724 239.92H54.3478L59.6869 225.084H62.2731L67.6122 239.92H65.2361L61.0416 227.779H60.9257L56.724 239.92ZM57.1224 234.11H64.8304V235.994H57.1224V234.11Z" fill="white"/>
</g>
<g clip-path="url(#clip16_56_2570)">
<path d="M101.377 215.469V224H99.918V215.469H101.377ZM104.055 215.469V216.641H97.2637V215.469H104.055ZM106.035 218.867V224H104.623V217.66H105.971L106.035 218.867ZM107.975 217.619L107.963 218.932C107.877 218.916 107.783 218.904 107.682 218.896C107.584 218.889 107.486 218.885 107.389 218.885C107.146 218.885 106.934 218.92 106.75 218.99C106.566 219.057 106.412 219.154 106.287 219.283C106.166 219.408 106.072 219.561 106.006 219.74C105.939 219.92 105.9 220.121 105.889 220.344L105.566 220.367C105.566 219.969 105.605 219.6 105.684 219.26C105.762 218.92 105.879 218.621 106.035 218.363C106.195 218.105 106.395 217.904 106.633 217.76C106.875 217.615 107.154 217.543 107.471 217.543C107.557 217.543 107.648 217.551 107.746 217.566C107.848 217.582 107.924 217.6 107.975 217.619ZM112.223 222.729V219.705C112.223 219.479 112.182 219.283 112.1 219.119C112.018 218.955 111.893 218.828 111.725 218.738C111.561 218.648 111.354 218.604 111.104 218.604C110.873 218.604 110.674 218.643 110.506 218.721C110.338 218.799 110.207 218.904 110.113 219.037C110.02 219.17 109.973 219.32 109.973 219.488H108.566C108.566 219.238 108.627 218.996 108.748 218.762C108.869 218.527 109.045 218.318 109.275 218.135C109.506 217.951 109.781 217.807 110.102 217.701C110.422 217.596 110.781 217.543 111.18 217.543C111.656 217.543 112.078 217.623 112.445 217.783C112.816 217.943 113.107 218.186 113.318 218.51C113.533 218.83 113.641 219.232 113.641 219.717V222.535C113.641 222.824 113.66 223.084 113.699 223.314C113.742 223.541 113.803 223.738 113.881 223.906V224H112.434C112.367 223.848 112.314 223.654 112.275 223.42C112.24 223.182 112.223 222.951 112.223 222.729ZM112.428 220.145L112.439 221.018H111.426C111.164 221.018 110.934 221.043 110.734 221.094C110.535 221.141 110.369 221.211 110.236 221.305C110.104 221.398 110.004 221.512 109.938 221.645C109.871 221.777 109.838 221.928 109.838 222.096C109.838 222.264 109.877 222.418 109.955 222.559C110.033 222.695 110.146 222.803 110.295 222.881C110.447 222.959 110.631 222.998 110.846 222.998C111.135 222.998 111.387 222.939 111.602 222.822C111.82 222.701 111.992 222.555 112.117 222.383C112.242 222.207 112.309 222.041 112.316 221.885L112.773 222.512C112.727 222.672 112.646 222.844 112.533 223.027C112.42 223.211 112.271 223.387 112.088 223.555C111.908 223.719 111.691 223.854 111.438 223.959C111.188 224.064 110.898 224.117 110.57 224.117C110.156 224.117 109.787 224.035 109.463 223.871C109.139 223.703 108.885 223.479 108.701 223.197C108.518 222.912 108.426 222.59 108.426 222.23C108.426 221.895 108.488 221.598 108.613 221.34C108.742 221.078 108.93 220.859 109.176 220.684C109.426 220.508 109.73 220.375 110.09 220.285C110.449 220.191 110.859 220.145 111.32 220.145H112.428ZM116.518 219.014V224H115.105V217.66H116.436L116.518 219.014ZM116.266 220.596L115.809 220.59C115.812 220.141 115.875 219.729 115.996 219.354C116.121 218.979 116.293 218.656 116.512 218.387C116.734 218.117 117 217.91 117.309 217.766C117.617 217.617 117.961 217.543 118.34 217.543C118.645 217.543 118.92 217.586 119.166 217.672C119.416 217.754 119.629 217.889 119.805 218.076C119.984 218.264 120.121 218.508 120.215 218.809C120.309 219.105 120.355 219.471 120.355 219.904V224H118.938V219.898C118.938 219.594 118.893 219.354 118.803 219.178C118.717 218.998 118.59 218.871 118.422 218.797C118.258 218.719 118.053 218.68 117.807 218.68C117.564 218.68 117.348 218.73 117.156 218.832C116.965 218.934 116.803 219.072 116.67 219.248C116.541 219.424 116.441 219.627 116.371 219.857C116.301 220.088 116.266 220.334 116.266 220.596ZM125.354 222.283C125.354 222.143 125.318 222.016 125.248 221.902C125.178 221.785 125.043 221.68 124.844 221.586C124.648 221.492 124.359 221.406 123.977 221.328C123.641 221.254 123.332 221.166 123.051 221.064C122.773 220.959 122.535 220.832 122.336 220.684C122.137 220.535 121.982 220.359 121.873 220.156C121.764 219.953 121.709 219.719 121.709 219.453C121.709 219.195 121.766 218.951 121.879 218.721C121.992 218.49 122.154 218.287 122.365 218.111C122.576 217.936 122.832 217.797 123.133 217.695C123.438 217.594 123.777 217.543 124.152 217.543C124.684 217.543 125.139 217.633 125.518 217.812C125.9 217.988 126.193 218.229 126.396 218.533C126.6 218.834 126.701 219.174 126.701 219.553H125.289C125.289 219.385 125.246 219.229 125.16 219.084C125.078 218.936 124.953 218.816 124.785 218.727C124.617 218.633 124.406 218.586 124.152 218.586C123.91 218.586 123.709 218.625 123.549 218.703C123.393 218.777 123.275 218.875 123.197 218.996C123.123 219.117 123.086 219.25 123.086 219.395C123.086 219.5 123.105 219.596 123.145 219.682C123.188 219.764 123.258 219.84 123.355 219.91C123.453 219.977 123.586 220.039 123.754 220.098C123.926 220.156 124.141 220.213 124.398 220.268C124.883 220.369 125.299 220.5 125.646 220.66C125.998 220.816 126.268 221.02 126.455 221.27C126.643 221.516 126.736 221.828 126.736 222.207C126.736 222.488 126.676 222.746 126.555 222.98C126.438 223.211 126.266 223.412 126.039 223.584C125.812 223.752 125.541 223.883 125.225 223.977C124.912 224.07 124.561 224.117 124.17 224.117C123.596 224.117 123.109 224.016 122.711 223.812C122.312 223.605 122.01 223.342 121.803 223.021C121.6 222.697 121.498 222.361 121.498 222.014H122.863C122.879 222.275 122.951 222.484 123.08 222.641C123.213 222.793 123.377 222.904 123.572 222.975C123.771 223.041 123.977 223.074 124.188 223.074C124.441 223.074 124.654 223.041 124.826 222.975C124.998 222.904 125.129 222.811 125.219 222.693C125.309 222.572 125.354 222.436 125.354 222.283ZM129.883 224H128.471V217.051C128.471 216.578 128.559 216.182 128.734 215.861C128.914 215.537 129.17 215.293 129.502 215.129C129.834 214.961 130.227 214.877 130.68 214.877C130.82 214.877 130.959 214.887 131.096 214.906C131.232 214.922 131.365 214.947 131.494 214.982L131.459 216.072C131.381 216.053 131.295 216.039 131.201 216.031C131.111 216.023 131.014 216.02 130.908 216.02C130.693 216.02 130.508 216.061 130.352 216.143C130.199 216.221 130.082 216.336 130 216.488C129.922 216.641 129.883 216.828 129.883 217.051V224ZM131.189 217.66V218.691H127.498V217.66H131.189ZM134.869 224.117C134.4 224.117 133.977 224.041 133.598 223.889C133.223 223.732 132.902 223.516 132.637 223.238C132.375 222.961 132.174 222.635 132.033 222.26C131.893 221.885 131.822 221.48 131.822 221.047V220.812C131.822 220.316 131.895 219.867 132.039 219.465C132.184 219.062 132.385 218.719 132.643 218.434C132.9 218.145 133.205 217.924 133.557 217.771C133.908 217.619 134.289 217.543 134.699 217.543C135.152 217.543 135.549 217.619 135.889 217.771C136.229 217.924 136.51 218.139 136.732 218.416C136.959 218.689 137.127 219.016 137.236 219.395C137.35 219.773 137.406 220.191 137.406 220.648V221.252H132.508V220.238H136.012V220.127C136.004 219.873 135.953 219.635 135.859 219.412C135.77 219.189 135.631 219.01 135.443 218.873C135.256 218.736 135.006 218.668 134.693 218.668C134.459 218.668 134.25 218.719 134.066 218.82C133.887 218.918 133.736 219.061 133.615 219.248C133.494 219.436 133.4 219.662 133.334 219.928C133.271 220.189 133.24 220.484 133.24 220.812V221.047C133.24 221.324 133.277 221.582 133.352 221.82C133.43 222.055 133.543 222.26 133.691 222.436C133.84 222.611 134.02 222.75 134.23 222.852C134.441 222.949 134.682 222.998 134.951 222.998C135.291 222.998 135.594 222.93 135.859 222.793C136.125 222.656 136.355 222.463 136.551 222.213L137.295 222.934C137.158 223.133 136.98 223.324 136.762 223.508C136.543 223.688 136.275 223.834 135.959 223.947C135.646 224.061 135.283 224.117 134.869 224.117ZM139.926 218.867V224H138.514V217.66H139.861L139.926 218.867ZM141.865 217.619L141.854 218.932C141.768 218.916 141.674 218.904 141.572 218.896C141.475 218.889 141.377 218.885 141.279 218.885C141.037 218.885 140.824 218.92 140.641 218.99C140.457 219.057 140.303 219.154 140.178 219.283C140.057 219.408 139.963 219.561 139.896 219.74C139.83 219.92 139.791 220.121 139.779 220.344L139.457 220.367C139.457 219.969 139.496 219.6 139.574 219.26C139.652 218.92 139.77 218.621 139.926 218.363C140.086 218.105 140.285 217.904 140.523 217.76C140.766 217.615 141.045 217.543 141.361 217.543C141.447 217.543 141.539 217.551 141.637 217.566C141.738 217.582 141.814 217.6 141.865 217.619ZM147.156 218.867V224H145.744V217.66H147.092L147.156 218.867ZM149.096 217.619L149.084 218.932C148.998 218.916 148.904 218.904 148.803 218.896C148.705 218.889 148.607 218.885 148.51 218.885C148.268 218.885 148.055 218.92 147.871 218.99C147.688 219.057 147.533 219.154 147.408 219.283C147.287 219.408 147.193 219.561 147.127 219.74C147.061 219.92 147.021 220.121 147.01 220.344L146.688 220.367C146.688 219.969 146.727 219.6 146.805 219.26C146.883 218.92 147 218.621 147.156 218.363C147.316 218.105 147.516 217.904 147.754 217.76C147.996 217.615 148.275 217.543 148.592 217.543C148.678 217.543 148.77 217.551 148.867 217.566C148.969 217.582 149.045 217.6 149.096 217.619ZM152.658 224.117C152.189 224.117 151.766 224.041 151.387 223.889C151.012 223.732 150.691 223.516 150.426 223.238C150.164 222.961 149.963 222.635 149.822 222.26C149.682 221.885 149.611 221.48 149.611 221.047V220.812C149.611 220.316 149.684 219.867 149.828 219.465C149.973 219.062 150.174 218.719 150.432 218.434C150.689 218.145 150.994 217.924 151.346 217.771C151.697 217.619 152.078 217.543 152.488 217.543C152.941 217.543 153.338 217.619 153.678 217.771C154.018 217.924 154.299 218.139 154.521 218.416C154.748 218.689 154.916 219.016 155.025 219.395C155.139 219.773 155.195 220.191 155.195 220.648V221.252H150.297V220.238H153.801V220.127C153.793 219.873 153.742 219.635 153.648 219.412C153.559 219.189 153.42 219.01 153.232 218.873C153.045 218.736 152.795 218.668 152.482 218.668C152.248 218.668 152.039 218.719 151.855 218.82C151.676 218.918 151.525 219.061 151.404 219.248C151.283 219.436 151.189 219.662 151.123 219.928C151.061 220.189 151.029 220.484 151.029 220.812V221.047C151.029 221.324 151.066 221.582 151.141 221.82C151.219 222.055 151.332 222.26 151.48 222.436C151.629 222.611 151.809 222.75 152.02 222.852C152.23 222.949 152.471 222.998 152.74 222.998C153.08 222.998 153.383 222.93 153.648 222.793C153.914 222.656 154.145 222.463 154.34 222.213L155.084 222.934C154.947 223.133 154.77 223.324 154.551 223.508C154.332 223.688 154.064 223.834 153.748 223.947C153.436 224.061 153.072 224.117 152.658 224.117ZM158.887 222.992C159.117 222.992 159.324 222.947 159.508 222.857C159.695 222.764 159.846 222.635 159.959 222.471C160.076 222.307 160.141 222.117 160.152 221.902H161.482C161.475 222.312 161.354 222.686 161.119 223.021C160.885 223.357 160.574 223.625 160.188 223.824C159.801 224.02 159.373 224.117 158.904 224.117C158.42 224.117 157.998 224.035 157.639 223.871C157.279 223.703 156.98 223.473 156.742 223.18C156.504 222.887 156.324 222.549 156.203 222.166C156.086 221.783 156.027 221.373 156.027 220.936V220.73C156.027 220.293 156.086 219.883 156.203 219.5C156.324 219.113 156.504 218.773 156.742 218.48C156.98 218.188 157.279 217.959 157.639 217.795C157.998 217.627 158.418 217.543 158.898 217.543C159.406 217.543 159.852 217.645 160.234 217.848C160.617 218.047 160.918 218.326 161.137 218.686C161.359 219.041 161.475 219.455 161.482 219.928H160.152C160.141 219.693 160.082 219.482 159.977 219.295C159.875 219.104 159.73 218.951 159.543 218.838C159.359 218.725 159.139 218.668 158.881 218.668C158.596 218.668 158.359 218.727 158.172 218.844C157.984 218.957 157.838 219.113 157.732 219.312C157.627 219.508 157.551 219.729 157.504 219.975C157.461 220.217 157.439 220.469 157.439 220.73V220.936C157.439 221.197 157.461 221.451 157.504 221.697C157.547 221.943 157.621 222.164 157.727 222.359C157.836 222.551 157.984 222.705 158.172 222.822C158.359 222.936 158.598 222.992 158.887 222.992ZM165.361 224.117C164.893 224.117 164.469 224.041 164.09 223.889C163.715 223.732 163.395 223.516 163.129 223.238C162.867 222.961 162.666 222.635 162.525 222.26C162.385 221.885 162.314 221.48 162.314 221.047V220.812C162.314 220.316 162.387 219.867 162.531 219.465C162.676 219.062 162.877 218.719 163.135 218.434C163.393 218.145 163.697 217.924 164.049 217.771C164.4 217.619 164.781 217.543 165.191 217.543C165.645 217.543 166.041 217.619 166.381 217.771C166.721 217.924 167.002 218.139 167.225 218.416C167.451 218.689 167.619 219.016 167.729 219.395C167.842 219.773 167.898 220.191 167.898 220.648V221.252H163V220.238H166.504V220.127C166.496 219.873 166.445 219.635 166.352 219.412C166.262 219.189 166.123 219.01 165.936 218.873C165.748 218.736 165.498 218.668 165.186 218.668C164.951 218.668 164.742 218.719 164.559 218.82C164.379 218.918 164.229 219.061 164.107 219.248C163.986 219.436 163.893 219.662 163.826 219.928C163.764 220.189 163.732 220.484 163.732 220.812V221.047C163.732 221.324 163.77 221.582 163.844 221.82C163.922 222.055 164.035 222.26 164.184 222.436C164.332 222.611 164.512 222.75 164.723 222.852C164.934 222.949 165.174 222.998 165.443 222.998C165.783 222.998 166.086 222.93 166.352 222.793C166.617 222.656 166.848 222.463 167.043 222.213L167.787 222.934C167.65 223.133 167.473 223.324 167.254 223.508C167.035 223.688 166.768 223.834 166.451 223.947C166.139 224.061 165.775 224.117 165.361 224.117ZM170.512 217.66V224H169.094V217.66H170.512ZM169 215.996C169 215.781 169.07 215.604 169.211 215.463C169.355 215.318 169.555 215.246 169.809 215.246C170.059 215.246 170.256 215.318 170.4 215.463C170.545 215.604 170.617 215.781 170.617 215.996C170.617 216.207 170.545 216.383 170.4 216.523C170.256 216.664 170.059 216.734 169.809 216.734C169.555 216.734 169.355 216.664 169.211 216.523C169.07 216.383 169 216.207 169 215.996ZM174.121 222.881L175.674 217.66H177.139L174.936 224H174.021L174.121 222.881ZM172.932 217.66L174.514 222.904L174.59 224H173.676L171.461 217.66H172.932ZM180.725 224.117C180.256 224.117 179.832 224.041 179.453 223.889C179.078 223.732 178.758 223.516 178.492 223.238C178.23 222.961 178.029 222.635 177.889 222.26C177.748 221.885 177.678 221.48 177.678 221.047V220.812C177.678 220.316 177.75 219.867 177.895 219.465C178.039 219.062 178.24 218.719 178.498 218.434C178.756 218.145 179.061 217.924 179.412 217.771C179.764 217.619 180.145 217.543 180.555 217.543C181.008 217.543 181.404 217.619 181.744 217.771C182.084 217.924 182.365 218.139 182.588 218.416C182.814 218.689 182.982 219.016 183.092 219.395C183.205 219.773 183.262 220.191 183.262 220.648V221.252H178.363V220.238H181.867V220.127C181.859 219.873 181.809 219.635 181.715 219.412C181.625 219.189 181.486 219.01 181.299 218.873C181.111 218.736 180.861 218.668 180.549 218.668C180.314 218.668 180.105 218.719 179.922 218.82C179.742 218.918 179.592 219.061 179.471 219.248C179.35 219.436 179.256 219.662 179.189 219.928C179.127 220.189 179.096 220.484 179.096 220.812V221.047C179.096 221.324 179.133 221.582 179.207 221.82C179.285 222.055 179.398 222.26 179.547 222.436C179.695 222.611 179.875 222.75 180.086 222.852C180.297 222.949 180.537 222.998 180.807 222.998C181.146 222.998 181.449 222.93 181.715 222.793C181.98 222.656 182.211 222.463 182.406 222.213L183.15 222.934C183.014 223.133 182.836 223.324 182.617 223.508C182.398 223.688 182.131 223.834 181.814 223.947C181.502 224.061 181.139 224.117 180.725 224.117ZM188.23 222.688V215H189.648V224H188.365L188.23 222.688ZM184.105 220.9V220.777C184.105 220.297 184.162 219.859 184.275 219.465C184.389 219.066 184.553 218.725 184.768 218.439C184.982 218.15 185.244 217.93 185.553 217.777C185.861 217.621 186.209 217.543 186.596 217.543C186.979 217.543 187.314 217.617 187.604 217.766C187.893 217.914 188.139 218.127 188.342 218.404C188.545 218.678 188.707 219.006 188.828 219.389C188.949 219.768 189.035 220.189 189.086 220.654V221.047C189.035 221.5 188.949 221.914 188.828 222.289C188.707 222.664 188.545 222.988 188.342 223.262C188.139 223.535 187.891 223.746 187.598 223.895C187.309 224.043 186.971 224.117 186.584 224.117C186.201 224.117 185.855 224.037 185.547 223.877C185.242 223.717 184.982 223.492 184.768 223.203C184.553 222.914 184.389 222.574 184.275 222.184C184.162 221.789 184.105 221.361 184.105 220.9ZM185.518 220.777V220.9C185.518 221.189 185.543 221.459 185.594 221.709C185.648 221.959 185.732 222.18 185.846 222.371C185.959 222.559 186.105 222.707 186.285 222.816C186.469 222.922 186.688 222.975 186.941 222.975C187.262 222.975 187.525 222.904 187.732 222.764C187.939 222.623 188.102 222.434 188.219 222.195C188.34 221.953 188.422 221.684 188.465 221.387V220.326C188.441 220.096 188.393 219.881 188.318 219.682C188.248 219.482 188.152 219.309 188.031 219.16C187.91 219.008 187.76 218.891 187.58 218.809C187.404 218.723 187.195 218.68 186.953 218.68C186.695 218.68 186.477 218.734 186.297 218.844C186.117 218.953 185.969 219.104 185.852 219.295C185.738 219.486 185.654 219.709 185.6 219.963C185.545 220.217 185.518 220.488 185.518 220.777Z" fill="white"/>
<g clip-path="url(#clip17_56_2570)">
<rect x="97" y="233" width="57" height="16" rx="8" fill="white" fill-opacity="0.05"/>
<rect x="158" y="233" width="53" height="16" rx="8" fill="white" fill-opacity="0.05"/>
<rect x="215" y="233" width="55" height="16" rx="8" fill="white" fill-opacity="0.05"/>
<rect x="274" y="233" width="75" height="16" rx="8" fill="white" fill-opacity="0.05"/>
<rect x="353" y="233" width="74" height="16" rx="8" fill="white" fill-opacity="0.05"/>
</g>
<g clip-path="url(#clip18_56_2570)">
<rect x="97" y="255" width="36" height="16" rx="8" fill="white" fill-opacity="0.05"/>
<rect x="137" y="255" width="80" height="16" rx="8" fill="white" fill-opacity="0.05"/>
<rect x="221" y="255" width="60" height="16" rx="8" fill="white" fill-opacity="0.05"/>
<rect x="285" y="255" width="35" height="16" rx="8" fill="white" fill-opacity="0.05"/>
<rect x="324" y="255" width="68" height="16" rx="8" fill="white" fill-opacity="0.05"/>
</g>
<g clip-path="url(#clip19_56_2570)">
<rect x="97" y="277" width="77" height="16" rx="8" fill="white" fill-opacity="0.05"/>
<rect x="178" y="277" width="39" height="16" rx="8" fill="white" fill-opacity="0.05"/>
<rect x="221" y="277" width="59" height="16" rx="8" fill="white" fill-opacity="0.05"/>
<rect x="284" y="277" width="73" height="16" rx="8" fill="white" fill-opacity="0.05"/>
<rect x="361" y="277" width="69" height="16" rx="8" fill="white" fill-opacity="0.05"/>
</g>
</g>
</g>
</g>
<path d="M49.3789 35.2109L44.2812 50H41.1992L47.6211 32.9375H49.5898L49.3789 35.2109ZM53.6445 50L48.5352 35.2109L48.3125 32.9375H50.293L56.7383 50H53.6445ZM53.3984 43.6719V46.0039H44.1172V43.6719H53.3984ZM63.5469 47.9844C64.0078 47.9844 64.4219 47.8945 64.7891 47.7148C65.1641 47.5273 65.4648 47.2695 65.6914 46.9414C65.9258 46.6133 66.0547 46.2344 66.0781 45.8047H68.7383C68.7227 46.625 68.4805 47.3711 68.0117 48.043C67.543 48.7148 66.9219 49.25 66.1484 49.6484C65.375 50.0391 64.5195 50.2344 63.582 50.2344C62.6133 50.2344 61.7695 50.0703 61.0508 49.7422C60.332 49.4062 59.7344 48.9453 59.2578 48.3594C58.7812 47.7734 58.4219 47.0977 58.1797 46.332C57.9453 45.5664 57.8281 44.7461 57.8281 43.8711V43.4609C57.8281 42.5859 57.9453 41.7656 58.1797 41C58.4219 40.2266 58.7812 39.5469 59.2578 38.9609C59.7344 38.375 60.332 37.918 61.0508 37.5898C61.7695 37.2539 62.6094 37.0859 63.5703 37.0859C64.5859 37.0859 65.4766 37.2891 66.2422 37.6953C67.0078 38.0938 67.6094 38.6523 68.0469 39.3711C68.4922 40.082 68.7227 40.9102 68.7383 41.8555H66.0781C66.0547 41.3867 65.9375 40.9648 65.7266 40.5898C65.5234 40.207 65.2344 39.9023 64.8594 39.6758C64.4922 39.4492 64.0508 39.3359 63.5352 39.3359C62.9648 39.3359 62.4922 39.4531 62.1172 39.6875C61.7422 39.9141 61.4492 40.2266 61.2383 40.625C61.0273 41.0156 60.875 41.457 60.7812 41.9492C60.6953 42.4336 60.6523 42.9375 60.6523 43.4609V43.8711C60.6523 44.3945 60.6953 44.9023 60.7812 45.3945C60.8672 45.8867 61.0156 46.3281 61.2266 46.7188C61.4453 47.1016 61.7422 47.4102 62.1172 47.6445C62.4922 47.8711 62.9688 47.9844 63.5469 47.9844ZM76.7188 37.3203V39.3828H69.5703V37.3203H76.7188ZM71.6328 34.2148H74.457V46.4961C74.457 46.8867 74.5117 47.1875 74.6211 47.3984C74.7383 47.6016 74.8984 47.7383 75.1016 47.8086C75.3047 47.8789 75.543 47.9141 75.8164 47.9141C76.0117 47.9141 76.1992 47.9023 76.3789 47.8789C76.5586 47.8555 76.7031 47.832 76.8125 47.8086L76.8242 49.9648C76.5898 50.0352 76.3164 50.0977 76.0039 50.1523C75.6992 50.207 75.3477 50.2344 74.9492 50.2344C74.3008 50.2344 73.7266 50.1211 73.2266 49.8945C72.7266 49.6602 72.3359 49.2812 72.0547 48.7578C71.7734 48.2344 71.6328 47.5391 71.6328 46.6719V34.2148ZM81.9219 37.3203V50H79.0859V37.3203H81.9219ZM78.8984 33.9922C78.8984 33.5625 79.0391 33.207 79.3203 32.9258C79.6094 32.6367 80.0078 32.4922 80.5156 32.4922C81.0156 32.4922 81.4102 32.6367 81.6992 32.9258C81.9883 33.207 82.1328 33.5625 82.1328 33.9922C82.1328 34.4141 81.9883 34.7656 81.6992 35.0469C81.4102 35.3281 81.0156 35.4688 80.5156 35.4688C80.0078 35.4688 79.6094 35.3281 79.3203 35.0469C79.0391 34.7656 78.8984 34.4141 78.8984 33.9922ZM89.1406 47.7617L92.2461 37.3203H95.1758L90.7695 50H88.9414L89.1406 47.7617ZM86.7617 37.3203L89.9258 47.8086L90.0781 50H88.25L83.8203 37.3203H86.7617ZM99.9453 37.3203V50H97.1094V37.3203H99.9453ZM96.9219 33.9922C96.9219 33.5625 97.0625 33.207 97.3438 32.9258C97.6328 32.6367 98.0312 32.4922 98.5391 32.4922C99.0391 32.4922 99.4336 32.6367 99.7227 32.9258C100.012 33.207 100.156 33.5625 100.156 33.9922C100.156 34.4141 100.012 34.7656 99.7227 35.0469C99.4336 35.3281 99.0391 35.4688 98.5391 35.4688C98.0312 35.4688 97.6328 35.3281 97.3438 35.0469C97.0625 34.7656 96.9219 34.4141 96.9219 33.9922ZM108.852 37.3203V39.3828H101.703V37.3203H108.852ZM103.766 34.2148H106.59V46.4961C106.59 46.8867 106.645 47.1875 106.754 47.3984C106.871 47.6016 107.031 47.7383 107.234 47.8086C107.438 47.8789 107.676 47.9141 107.949 47.9141C108.145 47.9141 108.332 47.9023 108.512 47.8789C108.691 47.8555 108.836 47.832 108.945 47.8086L108.957 49.9648C108.723 50.0352 108.449 50.0977 108.137 50.1523C107.832 50.207 107.48 50.2344 107.082 50.2344C106.434 50.2344 105.859 50.1211 105.359 49.8945C104.859 49.6602 104.469 49.2812 104.188 48.7578C103.906 48.2344 103.766 47.5391 103.766 46.6719V34.2148ZM114.711 48.6172L118.156 37.3203H121.18L116.094 51.9336C115.977 52.2461 115.824 52.5859 115.637 52.9531C115.449 53.3203 115.203 53.668 114.898 53.9961C114.602 54.332 114.23 54.6016 113.785 54.8047C113.34 55.0156 112.801 55.1211 112.168 55.1211C111.918 55.1211 111.676 55.0977 111.441 55.0508C111.215 55.0117 111 54.9688 110.797 54.9219L110.785 52.7656C110.863 52.7734 110.957 52.7812 111.066 52.7891C111.184 52.7969 111.277 52.8008 111.348 52.8008C111.816 52.8008 112.207 52.7422 112.52 52.625C112.832 52.5156 113.086 52.3359 113.281 52.0859C113.484 51.8359 113.656 51.5 113.797 51.0781L114.711 48.6172ZM112.766 37.3203L115.777 46.8125L116.281 49.7891L114.324 50.293L109.719 37.3203H112.766ZM132.594 50H129.77V36.1016C129.77 35.1562 129.945 34.3633 130.297 33.7227C130.656 33.0742 131.168 32.5859 131.832 32.2578C132.496 31.9219 133.281 31.7539 134.188 31.7539C134.469 31.7539 134.746 31.7734 135.02 31.8125C135.293 31.8438 135.559 31.8945 135.816 31.9648L135.746 34.1445C135.59 34.1055 135.418 34.0781 135.23 34.0625C135.051 34.0469 134.855 34.0391 134.645 34.0391C134.215 34.0391 133.844 34.1211 133.531 34.2852C133.227 34.4414 132.992 34.6719 132.828 34.9766C132.672 35.2812 132.594 35.6562 132.594 36.1016V50ZM135.207 37.3203V39.3828H127.824V37.3203H135.207ZM142.566 50.2344C141.629 50.2344 140.781 50.082 140.023 49.7773C139.273 49.4648 138.633 49.0312 138.102 48.4766C137.578 47.9219 137.176 47.2695 136.895 46.5195C136.613 45.7695 136.473 44.9609 136.473 44.0938V43.625C136.473 42.6328 136.617 41.7344 136.906 40.9297C137.195 40.125 137.598 39.4375 138.113 38.8672C138.629 38.2891 139.238 37.8477 139.941 37.543C140.645 37.2383 141.406 37.0859 142.227 37.0859C143.133 37.0859 143.926 37.2383 144.605 37.543C145.285 37.8477 145.848 38.2773 146.293 38.832C146.746 39.3789 147.082 40.0312 147.301 40.7891C147.527 41.5469 147.641 42.3828 147.641 43.2969V44.5039H137.844V42.4766H144.852V42.2539C144.836 41.7461 144.734 41.2695 144.547 40.8242C144.367 40.3789 144.09 40.0195 143.715 39.7461C143.34 39.4727 142.84 39.3359 142.215 39.3359C141.746 39.3359 141.328 39.4375 140.961 39.6406C140.602 39.8359 140.301 40.1211 140.059 40.4961C139.816 40.8711 139.629 41.3242 139.496 41.8555C139.371 42.3789 139.309 42.9688 139.309 43.625V44.0938C139.309 44.6484 139.383 45.1641 139.531 45.6406C139.688 46.1094 139.914 46.5195 140.211 46.8711C140.508 47.2227 140.867 47.5 141.289 47.7031C141.711 47.8984 142.191 47.9961 142.73 47.9961C143.41 47.9961 144.016 47.8594 144.547 47.5859C145.078 47.3125 145.539 46.9258 145.93 46.4258L147.418 47.8672C147.145 48.2656 146.789 48.6484 146.352 49.0156C145.914 49.375 145.379 49.668 144.746 49.8945C144.121 50.1211 143.395 50.2344 142.566 50.2344ZM155.434 50.2344C154.496 50.2344 153.648 50.082 152.891 49.7773C152.141 49.4648 151.5 49.0312 150.969 48.4766C150.445 47.9219 150.043 47.2695 149.762 46.5195C149.48 45.7695 149.34 44.9609 149.34 44.0938V43.625C149.34 42.6328 149.484 41.7344 149.773 40.9297C150.062 40.125 150.465 39.4375 150.98 38.8672C151.496 38.2891 152.105 37.8477 152.809 37.543C153.512 37.2383 154.273 37.0859 155.094 37.0859C156 37.0859 156.793 37.2383 157.473 37.543C158.152 37.8477 158.715 38.2773 159.16 38.832C159.613 39.3789 159.949 40.0312 160.168 40.7891C160.395 41.5469 160.508 42.3828 160.508 43.2969V44.5039H150.711V42.4766H157.719V42.2539C157.703 41.7461 157.602 41.2695 157.414 40.8242C157.234 40.3789 156.957 40.0195 156.582 39.7461C156.207 39.4727 155.707 39.3359 155.082 39.3359C154.613 39.3359 154.195 39.4375 153.828 39.6406C153.469 39.8359 153.168 40.1211 152.926 40.4961C152.684 40.8711 152.496 41.3242 152.363 41.8555C152.238 42.3789 152.176 42.9688 152.176 43.625V44.0938C152.176 44.6484 152.25 45.1641 152.398 45.6406C152.555 46.1094 152.781 46.5195 153.078 46.8711C153.375 47.2227 153.734 47.5 154.156 47.7031C154.578 47.8984 155.059 47.9961 155.598 47.9961C156.277 47.9961 156.883 47.8594 157.414 47.5859C157.945 47.3125 158.406 46.9258 158.797 46.4258L160.285 47.8672C160.012 48.2656 159.656 48.6484 159.219 49.0156C158.781 49.375 158.246 49.668 157.613 49.8945C156.988 50.1211 156.262 50.2344 155.434 50.2344ZM170.445 47.375V32H173.281V50H170.715L170.445 47.375ZM162.195 43.8008V43.5547C162.195 42.5938 162.309 41.7188 162.535 40.9297C162.762 40.1328 163.09 39.4492 163.52 38.8789C163.949 38.3008 164.473 37.8594 165.09 37.5547C165.707 37.2422 166.402 37.0859 167.176 37.0859C167.941 37.0859 168.613 37.2344 169.191 37.5312C169.77 37.8281 170.262 38.2539 170.668 38.8086C171.074 39.3555 171.398 40.0117 171.641 40.7773C171.883 41.5352 172.055 42.3789 172.156 43.3086V44.0938C172.055 45 171.883 45.8281 171.641 46.5781C171.398 47.3281 171.074 47.9766 170.668 48.5234C170.262 49.0703 169.766 49.4922 169.18 49.7891C168.602 50.0859 167.926 50.2344 167.152 50.2344C166.387 50.2344 165.695 50.0742 165.078 49.7539C164.469 49.4336 163.949 48.9844 163.52 48.4062C163.09 47.8281 162.762 47.1484 162.535 46.3672C162.309 45.5781 162.195 44.7227 162.195 43.8008ZM165.02 43.5547V43.8008C165.02 44.3789 165.07 44.918 165.172 45.418C165.281 45.918 165.449 46.3594 165.676 46.7422C165.902 47.1172 166.195 47.4141 166.555 47.6328C166.922 47.8438 167.359 47.9492 167.867 47.9492C168.508 47.9492 169.035 47.8086 169.449 47.5273C169.863 47.2461 170.188 46.8672 170.422 46.3906C170.664 45.9062 170.828 45.3672 170.914 44.7734V42.6523C170.867 42.1914 170.77 41.7617 170.621 41.3633C170.48 40.9648 170.289 40.6172 170.047 40.3203C169.805 40.0156 169.504 39.7812 169.145 39.6172C168.793 39.4453 168.375 39.3594 167.891 39.3594C167.375 39.3594 166.938 39.4688 166.578 39.6875C166.219 39.9062 165.922 40.207 165.688 40.5898C165.461 40.9727 165.293 41.418 165.184 41.9258C165.074 42.4336 165.02 42.9766 165.02 43.5547Z" fill="white"/>
</g>
<defs>
<filter id="filter0_d_56_2570" x="0" y="0" width="506" height="332" filterUnits="userSpaceOnUse" color-interpolation-filters="sRGB">
<feFlood flood-opacity="0" result="BackgroundImageFix"/>
<feColorMatrix in="SourceAlpha" type="matrix" values="0 0 0 0 0 0 0 0 0 0 0 0 0 0 0 0 0 0 127 0" result="hardAlpha"/>
<feOffset/>
<feGaussianBlur stdDeviation="4"/>
<feComposite in2="hardAlpha" operator="out"/>
<feColorMatrix type="matrix" values="0 0 0 0 0.247059 0 0 0 0 0.247059 0 0 0 0 0.247059 0 0 0 0.25 0"/>
<feBlend mode="normal" in2="BackgroundImageFix" result="effect1_dropShadow_56_2570"/>
<feBlend mode="normal" in="SourceGraphic" in2="effect1_dropShadow_56_2570" result="shape"/>
</filter>
<linearGradient id="paint0_linear_56_2570" x1="51.8" y1="83.2" x2="57.66" y2="97.5" gradientUnits="userSpaceOnUse">
<stop stop-color="#95F3FF"/>
<stop offset="1" stop-color="#95F3FF" stop-opacity="0"/>
</linearGradient>
<linearGradient id="paint1_linear_56_2570" x1="63.92" y1="111.4" x2="72.88" y2="126.9" gradientUnits="userSpaceOnUse">
<stop stop-color="#EFFFF9" stop-opacity="0"/>
<stop offset="1" stop-color="#EFFFF9"/>
</linearGradient>
<linearGradient id="paint2_linear_56_2570" x1="48.5622" y1="108.752" x2="48.2615" y2="113.319" gradientUnits="userSpaceOnUse">
<stop stop-color="#EFFFF9" stop-opacity="0"/>
<stop offset="1" stop-color="#EFFFF9"/>
</linearGradient>
<linearGradient id="paint3_linear_56_2570" x1="57.0675" y1="103.493" x2="56.7669" y2="108.06" gradientUnits="userSpaceOnUse">
<stop stop-color="#EFFFF9" stop-opacity="0"/>
<stop offset="1" stop-color="#EFFFF9"/>
</linearGradient>
<linearGradient id="paint4_linear_56_2570" x1="65.5729" y1="98.2333" x2="65.2723" y2="102.801" gradientUnits="userSpaceOnUse">
<stop stop-color="#EFFFF9" stop-opacity="0"/>
<stop offset="1" stop-color="#EFFFF9"/>
</linearGradient>
<linearGradient id="paint5_linear_56_2570" x1="74.0782" y1="92.9742" x2="73.7776" y2="97.5417" gradientUnits="userSpaceOnUse">
<stop stop-color="#EFFFF9" stop-opacity="0"/>
<stop offset="1" stop-color="#EFFFF9"/>
</linearGradient>
<linearGradient id="paint6_linear_56_2570" x1="51.8" y1="147.2" x2="57.66" y2="161.5" gradientUnits="userSpaceOnUse">
<stop stop-color="#95F3FF"/>
<stop offset="1" stop-color="#95F3FF" stop-opacity="0"/>
</linearGradient>
<linearGradient id="paint7_linear_56_2570" x1="63.92" y1="175.4" x2="72.88" y2="190.9" gradientUnits="userSpaceOnUse">
<stop stop-color="#EFFFF9" stop-opacity="0"/>
<stop offset="1" stop-color="#EFFFF9"/>
</linearGradient>
<linearGradient id="paint8_linear_56_2570" x1="48.5622" y1="172.752" x2="48.2615" y2="177.319" gradientUnits="userSpaceOnUse">
<stop stop-color="#EFFFF9" stop-opacity="0"/>
<stop offset="1" stop-color="#EFFFF9"/>
</linearGradient>
<linearGradient id="paint9_linear_56_2570" x1="57.0675" y1="167.493" x2="56.7669" y2="172.06" gradientUnits="userSpaceOnUse">
<stop stop-color="#EFFFF9" stop-opacity="0"/>
<stop offset="1" stop-color="#EFFFF9"/>
</linearGradient>
<linearGradient id="paint10_linear_56_2570" x1="65.5729" y1="162.233" x2="65.2723" y2="166.801" gradientUnits="userSpaceOnUse">
<stop stop-color="#EFFFF9" stop-opacity="0"/>
<stop offset="1" stop-color="#EFFFF9"/>
</linearGradient>
<linearGradient id="paint11_linear_56_2570" x1="74.0782" y1="156.974" x2="73.7776" y2="161.542" gradientUnits="userSpaceOnUse">
<stop stop-color="#EFFFF9" stop-opacity="0"/>
<stop offset="1" stop-color="#EFFFF9"/>
</linearGradient>
<linearGradient id="paint12_linear_56_2570" x1="51.8" y1="211.2" x2="57.66" y2="225.5" gradientUnits="userSpaceOnUse">
<stop stop-color="#EDFFA8"/>
<stop offset="1" stop-color="#EDFFA8" stop-opacity="0"/>
</linearGradient>
<linearGradient id="paint13_linear_56_2570" x1="63.92" y1="239.4" x2="72.88" y2="254.9" gradientUnits="userSpaceOnUse">
<stop stop-color="#51FFEB" stop-opacity="0"/>
<stop offset="1" stop-color="#51FFEB"/>
</linearGradient>
<linearGradient id="paint14_linear_56_2570" x1="48.5622" y1="236.752" x2="48.2616" y2="241.319" gradientUnits="userSpaceOnUse">
<stop stop-color="#FCFF67" stop-opacity="0"/>
<stop offset="1" stop-color="#FCFF67"/>
</linearGradient>
<linearGradient id="paint15_linear_56_2570" x1="57.0675" y1="231.493" x2="56.7669" y2="236.06" gradientUnits="userSpaceOnUse">
<stop stop-color="#FF8267" stop-opacity="0"/>
<stop offset="1" stop-color="#FF8267"/>
</linearGradient>
<linearGradient id="paint16_linear_56_2570" x1="65.5729" y1="226.233" x2="65.2723" y2="230.801" gradientUnits="userSpaceOnUse">
<stop stop-color="#73FF67" stop-opacity="0"/>
<stop offset="1" stop-color="#73FF67"/>
</linearGradient>
<linearGradient id="paint17_linear_56_2570" x1="74.0783" y1="220.974" x2="73.7776" y2="225.542" gradientUnits="userSpaceOnUse">
<stop stop-color="#9867FF" stop-opacity="0"/>
<stop offset="1" stop-color="#9867FF"/>
</linearGradient>
<clipPath id="clip0_56_2570">
<rect x="41" y="85" width="423" height="208" rx="7" fill="white"/>
</clipPath>
<clipPath id="clip1_56_2570">
<rect width="380" height="40" fill="white" transform="translate(41 85)"/>
</clipPath>
<clipPath id="clip2_56_2570">
<rect x="41" y="85" width="40" height="40" rx="20" fill="white"/>
</clipPath>
<clipPath id="clip3_56_2570">
<rect width="40" height="40" fill="white" transform="translate(41 85)"/>
</clipPath>
<clipPath id="clip4_56_2570">
<rect width="20" height="40" fill="white" transform="translate(51 85)"/>
</clipPath>
<clipPath id="clip5_56_2570">
<rect width="324" height="36" fill="white" transform="translate(97 85)"/>
</clipPath>
<clipPath id="clip6_56_2570">
<rect width="324" height="16" fill="white" transform="translate(97 105)"/>
</clipPath>
<clipPath id="clip7_56_2570">
<rect width="246" height="40" fill="white" transform="translate(41 149)"/>
</clipPath>
<clipPath id="clip8_56_2570">
<rect x="41" y="149" width="40" height="40" rx="20" fill="white"/>
</clipPath>
<clipPath id="clip9_56_2570">
<rect width="40" height="40" fill="white" transform="translate(41 149)"/>
</clipPath>
<clipPath id="clip10_56_2570">
<rect width="20" height="40" fill="white" transform="translate(51 149)"/>
</clipPath>
<clipPath id="clip11_56_2570">
<rect width="190" height="36" fill="white" transform="translate(97 149)"/>
</clipPath>
<clipPath id="clip12_56_2570">
<rect width="190" height="16" fill="white" transform="translate(97 169)"/>
</clipPath>
<clipPath id="clip13_56_2570">
<rect width="423" height="80" fill="white" transform="translate(41 213)"/>
</clipPath>
<clipPath id="clip14_56_2570">
<rect x="41" y="213" width="40" height="40" rx="20" fill="white"/>
</clipPath>
<clipPath id="clip15_56_2570">
<rect width="40" height="40" fill="white" transform="translate(41 213)"/>
</clipPath>
<clipPath id="clip16_56_2570">
<rect width="367" height="80" fill="white" transform="translate(97 213)"/>
</clipPath>
<clipPath id="clip17_56_2570">
<rect width="367" height="16" fill="white" transform="translate(97 233)"/>
</clipPath>
<clipPath id="clip18_56_2570">
<rect width="295" height="16" fill="white" transform="translate(97 255)"/>
</clipPath>
<clipPath id="clip19_56_2570">
<rect width="333" height="16" fill="white" transform="translate(97 277)"/>
</clipPath>
</defs>
</svg>
